G04 #@! TF.GenerationSoftware,KiCad,Pcbnew,5.99.0-unknown-d20d310~100~ubuntu19.10.1*
G04 #@! TF.CreationDate,2019-12-12T13:35:59+01:00*
G04 #@! TF.ProjectId,DEWHEAT,44455748-4541-4542-9e6b-696361645f70,rev?*
G04 #@! TF.SameCoordinates,Original*
G04 #@! TF.FileFunction,Copper,L2,Bot*
G04 #@! TF.FilePolarity,Positive*
%FSLAX46Y46*%
G04 Gerber Fmt 4.6, Leading zero omitted, Abs format (unit mm)*
G04 Created by KiCad (PCBNEW 5.99.0-unknown-d20d310~100~ubuntu19.10.1) date 2019-12-12 13:35:59*
%MOMM*%
%LPD*%
G04 APERTURE LIST*
%ADD10C,0.200000*%
%ADD11R,3.810000X3.810000*%
%ADD12R,1.524000X1.524000*%
%ADD13C,6.000000*%
%ADD14C,0.800000*%
%ADD15C,0.500000*%
%ADD16C,1.500000*%
%ADD17C,0.254000*%
G04 APERTURE END LIST*
D10*
X107040000Y-50707857D02*
X107040000Y-49507857D01*
X106754285Y-49507857D01*
X106582857Y-49565000D01*
X106468571Y-49679285D01*
X106411428Y-49793571D01*
X106354285Y-50022142D01*
X106354285Y-50193571D01*
X106411428Y-50422142D01*
X106468571Y-50536428D01*
X106582857Y-50650714D01*
X106754285Y-50707857D01*
X107040000Y-50707857D01*
X105840000Y-50079285D02*
X105440000Y-50079285D01*
X105268571Y-50707857D02*
X105840000Y-50707857D01*
X105840000Y-49507857D01*
X105268571Y-49507857D01*
X104868571Y-49507857D02*
X104582857Y-50707857D01*
X104354285Y-49850714D01*
X104125714Y-50707857D01*
X103840000Y-49507857D01*
X103382857Y-50707857D02*
X103382857Y-49507857D01*
X103382857Y-50079285D02*
X102697142Y-50079285D01*
X102697142Y-50707857D02*
X102697142Y-49507857D01*
X102125714Y-50079285D02*
X101725714Y-50079285D01*
X101554285Y-50707857D02*
X102125714Y-50707857D01*
X102125714Y-49507857D01*
X101554285Y-49507857D01*
X101097142Y-50365000D02*
X100525714Y-50365000D01*
X101211428Y-50707857D02*
X100811428Y-49507857D01*
X100411428Y-50707857D01*
X100182857Y-49507857D02*
X99497142Y-49507857D01*
X99840000Y-50707857D02*
X99840000Y-49507857D01*
X98868571Y-49507857D02*
X98754285Y-49507857D01*
X98640000Y-49565000D01*
X98582857Y-49622142D01*
X98525714Y-49736428D01*
X98468571Y-49965000D01*
X98468571Y-50250714D01*
X98525714Y-50479285D01*
X98582857Y-50593571D01*
X98640000Y-50650714D01*
X98754285Y-50707857D01*
X98868571Y-50707857D01*
X98982857Y-50650714D01*
X99040000Y-50593571D01*
X99097142Y-50479285D01*
X99154285Y-50250714D01*
X99154285Y-49965000D01*
X99097142Y-49736428D01*
X99040000Y-49622142D01*
X98982857Y-49565000D01*
X98868571Y-49507857D01*
X97325714Y-50707857D02*
X98011428Y-50707857D01*
X97668571Y-50707857D02*
X97668571Y-49507857D01*
X97782857Y-49679285D01*
X97897142Y-49793571D01*
X98011428Y-49850714D01*
X96868571Y-50365000D02*
X96297142Y-50365000D01*
X96982857Y-50707857D02*
X96582857Y-49507857D01*
X96182857Y-50707857D01*
X95725714Y-50650714D02*
X95725714Y-50707857D01*
X95782857Y-50822142D01*
X95840000Y-50879285D01*
X94354285Y-49622142D02*
X94297142Y-49565000D01*
X94182857Y-49507857D01*
X93897142Y-49507857D01*
X93782857Y-49565000D01*
X93725714Y-49622142D01*
X93668571Y-49736428D01*
X93668571Y-49850714D01*
X93725714Y-50022142D01*
X94411428Y-50707857D01*
X93668571Y-50707857D01*
X92925714Y-49507857D02*
X92811428Y-49507857D01*
X92697142Y-49565000D01*
X92640000Y-49622142D01*
X92582857Y-49736428D01*
X92525714Y-49965000D01*
X92525714Y-50250714D01*
X92582857Y-50479285D01*
X92640000Y-50593571D01*
X92697142Y-50650714D01*
X92811428Y-50707857D01*
X92925714Y-50707857D01*
X93040000Y-50650714D01*
X93097142Y-50593571D01*
X93154285Y-50479285D01*
X93211428Y-50250714D01*
X93211428Y-49965000D01*
X93154285Y-49736428D01*
X93097142Y-49622142D01*
X93040000Y-49565000D01*
X92925714Y-49507857D01*
X91382857Y-50707857D02*
X92068571Y-50707857D01*
X91725714Y-50707857D02*
X91725714Y-49507857D01*
X91840000Y-49679285D01*
X91954285Y-49793571D01*
X92068571Y-49850714D01*
X90811428Y-50707857D02*
X90582857Y-50707857D01*
X90468571Y-50650714D01*
X90411428Y-50593571D01*
X90297142Y-50422142D01*
X90240000Y-50193571D01*
X90240000Y-49736428D01*
X90297142Y-49622142D01*
X90354285Y-49565000D01*
X90468571Y-49507857D01*
X90697142Y-49507857D01*
X90811428Y-49565000D01*
X90868571Y-49622142D01*
X90925714Y-49736428D01*
X90925714Y-50022142D01*
X90868571Y-50136428D01*
X90811428Y-50193571D01*
X90697142Y-50250714D01*
X90468571Y-50250714D01*
X90354285Y-50193571D01*
X90297142Y-50136428D01*
X90240000Y-50022142D01*
X89668571Y-50650714D02*
X89668571Y-50707857D01*
X89725714Y-50822142D01*
X89782857Y-50879285D01*
X87554285Y-50707857D02*
X87954285Y-50136428D01*
X88240000Y-50707857D02*
X88240000Y-49507857D01*
X87782857Y-49507857D01*
X87668571Y-49565000D01*
X87611428Y-49622142D01*
X87554285Y-49736428D01*
X87554285Y-49907857D01*
X87611428Y-50022142D01*
X87668571Y-50079285D01*
X87782857Y-50136428D01*
X88240000Y-50136428D01*
X86868571Y-50707857D02*
X86982857Y-50650714D01*
X87040000Y-50593571D01*
X87097142Y-50479285D01*
X87097142Y-50136428D01*
X87040000Y-50022142D01*
X86982857Y-49965000D01*
X86868571Y-49907857D01*
X86697142Y-49907857D01*
X86582857Y-49965000D01*
X86525714Y-50022142D01*
X86468571Y-50136428D01*
X86468571Y-50479285D01*
X86525714Y-50593571D01*
X86582857Y-50650714D01*
X86697142Y-50707857D01*
X86868571Y-50707857D01*
X85954285Y-50707857D02*
X85954285Y-49907857D01*
X85954285Y-50022142D02*
X85897142Y-49965000D01*
X85782857Y-49907857D01*
X85611428Y-49907857D01*
X85497142Y-49965000D01*
X85440000Y-50079285D01*
X85440000Y-50707857D01*
X85440000Y-50079285D02*
X85382857Y-49965000D01*
X85268571Y-49907857D01*
X85097142Y-49907857D01*
X84982857Y-49965000D01*
X84925714Y-50079285D01*
X84925714Y-50707857D01*
X83840000Y-50707857D02*
X83840000Y-50079285D01*
X83897142Y-49965000D01*
X84011428Y-49907857D01*
X84240000Y-49907857D01*
X84354285Y-49965000D01*
X83840000Y-50650714D02*
X83954285Y-50707857D01*
X84240000Y-50707857D01*
X84354285Y-50650714D01*
X84411428Y-50536428D01*
X84411428Y-50422142D01*
X84354285Y-50307857D01*
X84240000Y-50250714D01*
X83954285Y-50250714D01*
X83840000Y-50193571D01*
X83268571Y-49907857D02*
X83268571Y-50707857D01*
X83268571Y-50022142D02*
X83211428Y-49965000D01*
X83097142Y-49907857D01*
X82925714Y-49907857D01*
X82811428Y-49965000D01*
X82754285Y-50079285D01*
X82754285Y-50707857D01*
X81268571Y-50707857D02*
X81268571Y-49507857D01*
X80982857Y-49507857D01*
X80811428Y-49565000D01*
X80697142Y-49679285D01*
X80640000Y-49793571D01*
X80582857Y-50022142D01*
X80582857Y-50193571D01*
X80640000Y-50422142D01*
X80697142Y-50536428D01*
X80811428Y-50650714D01*
X80982857Y-50707857D01*
X81268571Y-50707857D01*
X80182857Y-49907857D02*
X79897142Y-50707857D01*
X79611428Y-49907857D01*
X78982857Y-50707857D02*
X79097142Y-50650714D01*
X79154285Y-50593571D01*
X79211428Y-50479285D01*
X79211428Y-50136428D01*
X79154285Y-50022142D01*
X79097142Y-49965000D01*
X78982857Y-49907857D01*
X78811428Y-49907857D01*
X78697142Y-49965000D01*
X78640000Y-50022142D01*
X78582857Y-50136428D01*
X78582857Y-50479285D01*
X78640000Y-50593571D01*
X78697142Y-50650714D01*
X78811428Y-50707857D01*
X78982857Y-50707857D01*
X78068571Y-50707857D02*
X78068571Y-49907857D01*
X78068571Y-50136428D02*
X78011428Y-50022142D01*
X77954285Y-49965000D01*
X77840000Y-49907857D01*
X77725714Y-49907857D01*
X76811428Y-50707857D02*
X76811428Y-50079285D01*
X76868571Y-49965000D01*
X76982857Y-49907857D01*
X77211428Y-49907857D01*
X77325714Y-49965000D01*
X76811428Y-50650714D02*
X76925714Y-50707857D01*
X77211428Y-50707857D01*
X77325714Y-50650714D01*
X77382857Y-50536428D01*
X77382857Y-50422142D01*
X77325714Y-50307857D01*
X77211428Y-50250714D01*
X76925714Y-50250714D01*
X76811428Y-50193571D01*
X76240000Y-50707857D02*
X76240000Y-49507857D01*
X76125714Y-50250714D02*
X75782857Y-50707857D01*
X75782857Y-49907857D02*
X76240000Y-50365000D01*
D11*
X76275000Y-74215000D03*
X79375000Y-69215000D03*
X73175000Y-69215000D03*
D12*
X95250000Y-57150000D03*
X92710000Y-57150000D03*
X90170000Y-57150000D03*
X90170000Y-82550000D03*
X92710000Y-82550000D03*
X95250000Y-82550000D03*
D13*
X111760000Y-53340000D03*
X71120000Y-83820000D03*
X71120000Y-53340000D03*
X111760000Y-83820000D03*
D12*
X102870000Y-66040000D03*
X105410000Y-66040000D03*
X102870000Y-71120000D03*
X105410000Y-71120000D03*
X82550000Y-83820000D03*
X82550000Y-86360000D03*
X80010000Y-83820000D03*
X80010000Y-86360000D03*
X77470000Y-83820000D03*
X77470000Y-86360000D03*
D14*
X92710000Y-61587000D03*
X83185000Y-73660000D03*
X81280000Y-60960000D03*
X83185000Y-72390000D03*
X103505000Y-62865000D03*
X103505000Y-61595000D03*
X105410000Y-63500000D03*
X99060000Y-77470000D03*
X99060000Y-76200000D03*
X99060000Y-74930000D03*
D15*
X92710000Y-61587000D02*
X92710000Y-57150000D01*
X92710000Y-57150000D02*
X92710000Y-58412000D01*
D16*
X83185000Y-72390000D02*
X83185000Y-73660000D01*
X83185000Y-72390000D02*
X98425000Y-72390000D01*
X98425000Y-72390000D02*
X101600000Y-69215000D01*
X101600000Y-69215000D02*
X102870000Y-69215000D01*
X102870000Y-69215000D02*
X102870000Y-70485000D01*
X102870000Y-69215000D02*
X102870000Y-67390001D01*
X102870000Y-67390001D02*
X102870000Y-66040000D01*
X83185000Y-62865000D02*
X81280000Y-60960000D01*
X83185000Y-72390000D02*
X83185000Y-62865000D01*
G36*
X74820286Y-51817000D02*
G01*
X79274647Y-51817000D01*
X79097488Y-51980763D01*
X78916487Y-52204679D01*
X78769707Y-52452379D01*
X78660221Y-52718672D01*
X78590322Y-52997981D01*
X78561475Y-53284456D01*
X78574286Y-53572093D01*
X78628483Y-53854869D01*
X78722935Y-54126859D01*
X78855659Y-54382365D01*
X79023878Y-54616036D01*
X79224067Y-54822976D01*
X79452032Y-54998849D01*
X79702997Y-55139973D01*
X79971706Y-55243389D01*
X80252529Y-55306933D01*
X80539584Y-55329272D01*
X80826857Y-55309941D01*
X81108330Y-55249341D01*
X81378107Y-55148744D01*
X81630537Y-55010256D01*
X81860331Y-54836780D01*
X82062676Y-54631948D01*
X82233333Y-54400051D01*
X82368726Y-54145948D01*
X82466020Y-53874962D01*
X82523517Y-53591088D01*
X82534455Y-53199467D01*
X82492894Y-52912827D01*
X82410879Y-52636832D01*
X82289881Y-52375568D01*
X82132435Y-52134507D01*
X81941840Y-51918700D01*
X81821708Y-51817000D01*
X108059715Y-51817000D01*
X108059715Y-49021000D01*
X116079000Y-49021000D01*
X116079000Y-88139000D01*
X66801000Y-88139000D01*
X66801000Y-86488000D01*
X76066163Y-86488000D01*
X76066163Y-87138588D01*
X76146795Y-87439512D01*
X76294185Y-87615165D01*
X76487814Y-87726956D01*
X76696976Y-87763837D01*
X77342000Y-87763837D01*
X77342000Y-86488000D01*
X76066163Y-86488000D01*
X66801000Y-86488000D01*
X66801000Y-83948000D01*
X76066163Y-83948000D01*
X76066163Y-84598588D01*
X76146795Y-84899512D01*
X76294185Y-85075165D01*
X76324146Y-85092463D01*
X76214835Y-85184185D01*
X76103044Y-85377814D01*
X76066163Y-85586976D01*
X76066163Y-86232000D01*
X77598000Y-86232000D01*
X77598000Y-87763837D01*
X78248588Y-87763837D01*
X78549512Y-87683205D01*
X78725165Y-87535815D01*
X78742463Y-87505854D01*
X78834185Y-87615165D01*
X79027814Y-87726956D01*
X79236976Y-87763837D01*
X80788588Y-87763837D01*
X81089512Y-87683205D01*
X81265165Y-87535815D01*
X81282463Y-87505854D01*
X81374185Y-87615165D01*
X81567814Y-87726956D01*
X81776976Y-87763837D01*
X82422000Y-87763837D01*
X82422000Y-86488000D01*
X82678000Y-86488000D01*
X82678000Y-87763837D01*
X83328588Y-87763837D01*
X83629512Y-87683205D01*
X83805165Y-87535815D01*
X83916956Y-87342186D01*
X83953837Y-87133024D01*
X83953837Y-86488000D01*
X82678000Y-86488000D01*
X82422000Y-86488000D01*
X82422000Y-86232000D01*
X83953837Y-86232000D01*
X83953837Y-85581412D01*
X83873205Y-85280489D01*
X83725815Y-85104835D01*
X83695854Y-85087537D01*
X83805165Y-84995815D01*
X83916956Y-84802186D01*
X83953837Y-84593024D01*
X83953837Y-83948000D01*
X82422000Y-83948000D01*
X82422000Y-82416163D01*
X82678000Y-82416163D01*
X82678000Y-83692000D01*
X83953837Y-83692000D01*
X83953837Y-83041412D01*
X83873205Y-82740489D01*
X83725815Y-82564835D01*
X83532186Y-82453044D01*
X83323024Y-82416163D01*
X82678000Y-82416163D01*
X82422000Y-82416163D01*
X81771412Y-82416163D01*
X81470489Y-82496795D01*
X81294835Y-82644185D01*
X81277537Y-82674146D01*
X81185815Y-82564835D01*
X80992186Y-82453044D01*
X80783024Y-82416163D01*
X79231412Y-82416163D01*
X78930489Y-82496795D01*
X78754835Y-82644185D01*
X78737537Y-82674146D01*
X78645815Y-82564835D01*
X78452186Y-82453044D01*
X78243024Y-82416163D01*
X77598000Y-82416163D01*
X77598000Y-83948000D01*
X76066163Y-83948000D01*
X66801000Y-83948000D01*
X66801000Y-83046976D01*
X76066163Y-83046976D01*
X76066163Y-83692000D01*
X77342000Y-83692000D01*
X77342000Y-82416163D01*
X76691412Y-82416163D01*
X76390489Y-82496795D01*
X76214835Y-82644185D01*
X76103044Y-82837814D01*
X76066163Y-83046976D01*
X66801000Y-83046976D01*
X66801000Y-81776976D01*
X88766163Y-81776976D01*
X88766163Y-83328588D01*
X88846795Y-83629512D01*
X88994185Y-83805165D01*
X89187814Y-83916956D01*
X89396976Y-83953837D01*
X90948588Y-83953837D01*
X91249512Y-83873205D01*
X91425165Y-83725815D01*
X91442463Y-83695854D01*
X91534185Y-83805165D01*
X91727814Y-83916956D01*
X91936976Y-83953837D01*
X93488588Y-83953837D01*
X93789512Y-83873205D01*
X93965165Y-83725815D01*
X93982463Y-83695854D01*
X94074185Y-83805165D01*
X94267814Y-83916956D01*
X94476976Y-83953837D01*
X96028588Y-83953837D01*
X96329512Y-83873205D01*
X96505165Y-83725815D01*
X96616956Y-83532186D01*
X96653837Y-83323024D01*
X96653837Y-81771412D01*
X96573205Y-81470489D01*
X96425815Y-81294835D01*
X96232186Y-81183044D01*
X96023024Y-81146163D01*
X94471412Y-81146163D01*
X94170489Y-81226795D01*
X93994835Y-81374185D01*
X93977537Y-81404146D01*
X93885815Y-81294835D01*
X93692186Y-81183044D01*
X93483024Y-81146163D01*
X91931412Y-81146163D01*
X91630489Y-81226795D01*
X91454835Y-81374185D01*
X91437537Y-81404146D01*
X91345815Y-81294835D01*
X91152186Y-81183044D01*
X90943024Y-81146163D01*
X89391412Y-81146163D01*
X89090489Y-81226795D01*
X88914835Y-81374185D01*
X88803044Y-81567814D01*
X88766163Y-81776976D01*
X66801000Y-81776976D01*
X66801000Y-74343000D01*
X73728163Y-74343000D01*
X73728163Y-76136588D01*
X73808795Y-76437512D01*
X73956185Y-76613165D01*
X74149814Y-76724956D01*
X74358976Y-76761837D01*
X76147000Y-76761837D01*
X76147000Y-74343000D01*
X76403000Y-74343000D01*
X76403000Y-76761837D01*
X78196588Y-76761837D01*
X78497512Y-76681205D01*
X78673165Y-76533815D01*
X78784956Y-76340186D01*
X78821837Y-76131024D01*
X78821837Y-74343000D01*
X76403000Y-74343000D01*
X76147000Y-74343000D01*
X73728163Y-74343000D01*
X66801000Y-74343000D01*
X66801000Y-69343000D01*
X70628163Y-69343000D01*
X70628163Y-71136588D01*
X70708795Y-71437512D01*
X70856185Y-71613165D01*
X71049814Y-71724956D01*
X71258976Y-71761837D01*
X73047000Y-71761837D01*
X73047000Y-69343000D01*
X73303000Y-69343000D01*
X73303000Y-71761837D01*
X74036946Y-71761837D01*
X73876835Y-71896185D01*
X73765044Y-72089814D01*
X73728163Y-72298976D01*
X73728163Y-74087000D01*
X76147000Y-74087000D01*
X76147000Y-71668163D01*
X76403000Y-71668163D01*
X76403000Y-74087000D01*
X78821837Y-74087000D01*
X78821837Y-72293412D01*
X78741205Y-71992489D01*
X78593815Y-71816835D01*
X78498555Y-71761837D01*
X81296588Y-71761837D01*
X81597512Y-71681205D01*
X81773165Y-71533815D01*
X81801000Y-71485603D01*
X81801000Y-72276120D01*
X81795012Y-72312288D01*
X81801000Y-72426533D01*
X81801000Y-73735099D01*
X81825317Y-73958946D01*
X81921230Y-74243944D01*
X82076106Y-74501698D01*
X82282715Y-74720182D01*
X82531423Y-74889203D01*
X82810622Y-75000874D01*
X83107289Y-75049988D01*
X83407580Y-75034250D01*
X83697488Y-74954396D01*
X83963485Y-74814151D01*
X84193162Y-74620059D01*
X84375802Y-74381175D01*
X84441886Y-74239456D01*
X109136475Y-74239456D01*
X109149286Y-74527093D01*
X109203483Y-74809869D01*
X109297935Y-75081859D01*
X109430659Y-75337365D01*
X109598878Y-75571036D01*
X109799067Y-75777976D01*
X110027032Y-75953849D01*
X110277997Y-76094973D01*
X110546706Y-76198389D01*
X110827529Y-76261933D01*
X111114584Y-76284272D01*
X111401857Y-76264941D01*
X111683330Y-76204341D01*
X111953107Y-76103744D01*
X112205537Y-75965256D01*
X112435331Y-75791780D01*
X112637676Y-75586948D01*
X112808333Y-75355051D01*
X112943726Y-75100948D01*
X113041020Y-74829962D01*
X113098517Y-74546088D01*
X113109455Y-74154467D01*
X113067894Y-73867827D01*
X112985879Y-73591832D01*
X112864881Y-73330568D01*
X112707435Y-73089507D01*
X112516840Y-72873700D01*
X112297089Y-72687666D01*
X112052783Y-72535303D01*
X111789042Y-72419803D01*
X111511391Y-72343586D01*
X111225644Y-72308248D01*
X110937790Y-72314528D01*
X110653858Y-72362297D01*
X110379795Y-72450553D01*
X110121343Y-72577447D01*
X109883917Y-72740321D01*
X109672488Y-72935763D01*
X109491487Y-73159679D01*
X109344707Y-73407379D01*
X109235221Y-73673672D01*
X109165322Y-73952981D01*
X109136475Y-74239456D01*
X84441886Y-74239456D01*
X84504395Y-74105407D01*
X84559259Y-73774000D01*
X98366822Y-73774000D01*
X98459013Y-73781741D01*
X98591223Y-73764101D01*
X98723946Y-73749683D01*
X98740146Y-73744230D01*
X98757075Y-73741972D01*
X98882418Y-73696351D01*
X99008945Y-73653769D01*
X99023594Y-73644967D01*
X99043001Y-73637904D01*
X99082959Y-73609297D01*
X99266698Y-73498895D01*
X99358723Y-73411870D01*
X99364625Y-73407646D01*
X99389538Y-73382732D01*
X99485182Y-73292286D01*
X99496206Y-73276064D01*
X101466163Y-71306108D01*
X101466163Y-71898588D01*
X101546795Y-72199512D01*
X101694185Y-72375165D01*
X101887814Y-72486956D01*
X102096976Y-72523837D01*
X103648588Y-72523837D01*
X103949512Y-72443205D01*
X104125165Y-72295815D01*
X104142463Y-72265854D01*
X104234185Y-72375165D01*
X104427814Y-72486956D01*
X104636976Y-72523837D01*
X106188588Y-72523837D01*
X106489512Y-72443205D01*
X106665165Y-72295815D01*
X106776956Y-72102186D01*
X106813837Y-71893024D01*
X106813837Y-70341412D01*
X106733205Y-70040489D01*
X106585815Y-69864835D01*
X106392186Y-69753044D01*
X106183024Y-69716163D01*
X104631412Y-69716163D01*
X104330489Y-69796795D01*
X104254000Y-69860976D01*
X104254000Y-69328880D01*
X104259988Y-69292712D01*
X104254000Y-69178467D01*
X104254000Y-67306605D01*
X104427814Y-67406956D01*
X104636976Y-67443837D01*
X106188588Y-67443837D01*
X106489512Y-67363205D01*
X106665165Y-67215815D01*
X106776956Y-67022186D01*
X106813837Y-66813024D01*
X106813837Y-65261412D01*
X106733205Y-64960489D01*
X106585815Y-64784835D01*
X106392186Y-64673044D01*
X106183024Y-64636163D01*
X104631412Y-64636163D01*
X104330489Y-64716795D01*
X104154835Y-64864185D01*
X104137537Y-64894146D01*
X104045815Y-64784835D01*
X103852186Y-64673044D01*
X103643024Y-64636163D01*
X102091412Y-64636163D01*
X101790489Y-64716795D01*
X101614835Y-64864185D01*
X101503044Y-65057814D01*
X101466163Y-65266976D01*
X101466163Y-66818588D01*
X101486000Y-66892622D01*
X101486000Y-67833931D01*
X101433771Y-67840899D01*
X101301052Y-67855318D01*
X101284857Y-67860768D01*
X101267925Y-67863027D01*
X101142582Y-67908649D01*
X101016054Y-67951231D01*
X101001408Y-67960032D01*
X100981997Y-67967096D01*
X100942037Y-67995706D01*
X100758302Y-68106105D01*
X100666278Y-68193129D01*
X100660373Y-68197355D01*
X100635444Y-68222285D01*
X100539818Y-68312714D01*
X100528796Y-68328933D01*
X97851730Y-71006000D01*
X84569000Y-71006000D01*
X84569000Y-62923177D01*
X84576741Y-62830986D01*
X84573869Y-62809456D01*
X109136475Y-62809456D01*
X109149286Y-63097093D01*
X109203483Y-63379869D01*
X109297935Y-63651859D01*
X109430659Y-63907365D01*
X109598878Y-64141036D01*
X109799067Y-64347976D01*
X110027032Y-64523849D01*
X110277997Y-64664973D01*
X110546706Y-64768389D01*
X110827529Y-64831933D01*
X111114584Y-64854272D01*
X111401857Y-64834941D01*
X111683330Y-64774341D01*
X111953107Y-64673744D01*
X112205537Y-64535256D01*
X112435331Y-64361780D01*
X112637676Y-64156948D01*
X112808333Y-63925051D01*
X112943726Y-63670948D01*
X113041020Y-63399962D01*
X113098517Y-63116088D01*
X113109455Y-62724467D01*
X113067894Y-62437827D01*
X112985879Y-62161832D01*
X112864881Y-61900568D01*
X112707435Y-61659507D01*
X112516840Y-61443700D01*
X112297089Y-61257666D01*
X112052783Y-61105303D01*
X111789042Y-60989803D01*
X111511391Y-60913586D01*
X111225644Y-60878248D01*
X110937790Y-60884528D01*
X110653858Y-60932297D01*
X110379795Y-61020553D01*
X110121343Y-61147447D01*
X109883917Y-61310321D01*
X109672488Y-61505763D01*
X109491487Y-61729679D01*
X109344707Y-61977379D01*
X109235221Y-62243672D01*
X109165322Y-62522981D01*
X109136475Y-62809456D01*
X84573869Y-62809456D01*
X84559101Y-62698774D01*
X84544683Y-62566054D01*
X84539230Y-62549854D01*
X84536972Y-62532925D01*
X84491353Y-62407589D01*
X84448769Y-62281054D01*
X84439968Y-62266408D01*
X84432904Y-62246997D01*
X84404294Y-62207037D01*
X84293895Y-62023302D01*
X84206871Y-61931278D01*
X84202645Y-61925373D01*
X84177715Y-61900444D01*
X84087286Y-61804818D01*
X84071067Y-61793796D01*
X82205532Y-59928261D01*
X82030054Y-59787174D01*
X81760709Y-59653469D01*
X81468937Y-59580723D01*
X81168351Y-59572326D01*
X80872972Y-59628673D01*
X80596585Y-59747133D01*
X80352082Y-59922180D01*
X80150872Y-60145647D01*
X80002341Y-60407108D01*
X79913420Y-60694365D01*
X79888259Y-60994013D01*
X79928028Y-61292076D01*
X80032097Y-61578002D01*
X80262360Y-61899630D01*
X81801001Y-63438272D01*
X81801001Y-66944575D01*
X81693815Y-66816835D01*
X81500186Y-66705044D01*
X81291024Y-66668163D01*
X77453412Y-66668163D01*
X77152489Y-66748795D01*
X76976835Y-66896185D01*
X76865044Y-67089814D01*
X76828163Y-67298976D01*
X76828163Y-71136588D01*
X76908795Y-71437512D01*
X77056185Y-71613165D01*
X77151445Y-71668163D01*
X76403000Y-71668163D01*
X76147000Y-71668163D01*
X75413055Y-71668163D01*
X75573165Y-71533815D01*
X75684956Y-71340186D01*
X75721837Y-71131024D01*
X75721837Y-69343000D01*
X73303000Y-69343000D01*
X73047000Y-69343000D01*
X70628163Y-69343000D01*
X66801000Y-69343000D01*
X66801000Y-67298976D01*
X70628163Y-67298976D01*
X70628163Y-69087000D01*
X73047000Y-69087000D01*
X73047000Y-66668163D01*
X73303000Y-66668163D01*
X73303000Y-69087000D01*
X75721837Y-69087000D01*
X75721837Y-67293412D01*
X75641205Y-66992489D01*
X75493815Y-66816835D01*
X75300186Y-66705044D01*
X75091024Y-66668163D01*
X73303000Y-66668163D01*
X73047000Y-66668163D01*
X71253412Y-66668163D01*
X70952489Y-66748795D01*
X70776835Y-66896185D01*
X70665044Y-67089814D01*
X70628163Y-67298976D01*
X66801000Y-67298976D01*
X66801000Y-56376976D01*
X88766163Y-56376976D01*
X88766163Y-57928588D01*
X88846795Y-58229512D01*
X88994185Y-58405165D01*
X89187814Y-58516956D01*
X89396976Y-58553837D01*
X90948588Y-58553837D01*
X91249512Y-58473205D01*
X91425165Y-58325815D01*
X91442463Y-58295854D01*
X91534185Y-58405165D01*
X91727814Y-58516956D01*
X91826001Y-58534269D01*
X91826000Y-61050133D01*
X91746466Y-61187891D01*
X91676000Y-61450872D01*
X91676000Y-61723128D01*
X91746466Y-61986109D01*
X91882594Y-62221891D01*
X92075109Y-62414406D01*
X92310891Y-62550534D01*
X92573872Y-62621000D01*
X92846128Y-62621000D01*
X93109109Y-62550534D01*
X93344891Y-62414406D01*
X93537406Y-62221891D01*
X93673534Y-61986109D01*
X93744000Y-61723128D01*
X93744000Y-61450872D01*
X93673534Y-61187891D01*
X93594000Y-61050133D01*
X93594000Y-58525592D01*
X93789512Y-58473205D01*
X93965165Y-58325815D01*
X93982463Y-58295854D01*
X94074185Y-58405165D01*
X94267814Y-58516956D01*
X94476976Y-58553837D01*
X96028588Y-58553837D01*
X96329512Y-58473205D01*
X96505165Y-58325815D01*
X96616956Y-58132186D01*
X96653837Y-57923024D01*
X96653837Y-56371412D01*
X96573205Y-56070489D01*
X96425815Y-55894835D01*
X96232186Y-55783044D01*
X96023024Y-55746163D01*
X94471412Y-55746163D01*
X94170489Y-55826795D01*
X93994835Y-55974185D01*
X93977537Y-56004146D01*
X93885815Y-55894835D01*
X93692186Y-55783044D01*
X93483024Y-55746163D01*
X91931412Y-55746163D01*
X91630489Y-55826795D01*
X91454835Y-55974185D01*
X91437537Y-56004146D01*
X91345815Y-55894835D01*
X91152186Y-55783044D01*
X90943024Y-55746163D01*
X89391412Y-55746163D01*
X89090489Y-55826795D01*
X88914835Y-55974185D01*
X88803044Y-56167814D01*
X88766163Y-56376976D01*
X66801000Y-56376976D01*
X66801000Y-49021000D01*
X74820286Y-49021000D01*
X74820286Y-51817000D01*
G37*
D17*
X74820286Y-51817000D02*
X79274647Y-51817000D01*
X79097488Y-51980763D01*
X78916487Y-52204679D01*
X78769707Y-52452379D01*
X78660221Y-52718672D01*
X78590322Y-52997981D01*
X78561475Y-53284456D01*
X78574286Y-53572093D01*
X78628483Y-53854869D01*
X78722935Y-54126859D01*
X78855659Y-54382365D01*
X79023878Y-54616036D01*
X79224067Y-54822976D01*
X79452032Y-54998849D01*
X79702997Y-55139973D01*
X79971706Y-55243389D01*
X80252529Y-55306933D01*
X80539584Y-55329272D01*
X80826857Y-55309941D01*
X81108330Y-55249341D01*
X81378107Y-55148744D01*
X81630537Y-55010256D01*
X81860331Y-54836780D01*
X82062676Y-54631948D01*
X82233333Y-54400051D01*
X82368726Y-54145948D01*
X82466020Y-53874962D01*
X82523517Y-53591088D01*
X82534455Y-53199467D01*
X82492894Y-52912827D01*
X82410879Y-52636832D01*
X82289881Y-52375568D01*
X82132435Y-52134507D01*
X81941840Y-51918700D01*
X81821708Y-51817000D01*
X108059715Y-51817000D01*
X108059715Y-49021000D01*
X116079000Y-49021000D01*
X116079000Y-88139000D01*
X66801000Y-88139000D01*
X66801000Y-86488000D01*
X76066163Y-86488000D01*
X76066163Y-87138588D01*
X76146795Y-87439512D01*
X76294185Y-87615165D01*
X76487814Y-87726956D01*
X76696976Y-87763837D01*
X77342000Y-87763837D01*
X77342000Y-86488000D01*
X76066163Y-86488000D01*
X66801000Y-86488000D01*
X66801000Y-83948000D01*
X76066163Y-83948000D01*
X76066163Y-84598588D01*
X76146795Y-84899512D01*
X76294185Y-85075165D01*
X76324146Y-85092463D01*
X76214835Y-85184185D01*
X76103044Y-85377814D01*
X76066163Y-85586976D01*
X76066163Y-86232000D01*
X77598000Y-86232000D01*
X77598000Y-87763837D01*
X78248588Y-87763837D01*
X78549512Y-87683205D01*
X78725165Y-87535815D01*
X78742463Y-87505854D01*
X78834185Y-87615165D01*
X79027814Y-87726956D01*
X79236976Y-87763837D01*
X80788588Y-87763837D01*
X81089512Y-87683205D01*
X81265165Y-87535815D01*
X81282463Y-87505854D01*
X81374185Y-87615165D01*
X81567814Y-87726956D01*
X81776976Y-87763837D01*
X82422000Y-87763837D01*
X82422000Y-86488000D01*
X82678000Y-86488000D01*
X82678000Y-87763837D01*
X83328588Y-87763837D01*
X83629512Y-87683205D01*
X83805165Y-87535815D01*
X83916956Y-87342186D01*
X83953837Y-87133024D01*
X83953837Y-86488000D01*
X82678000Y-86488000D01*
X82422000Y-86488000D01*
X82422000Y-86232000D01*
X83953837Y-86232000D01*
X83953837Y-85581412D01*
X83873205Y-85280489D01*
X83725815Y-85104835D01*
X83695854Y-85087537D01*
X83805165Y-84995815D01*
X83916956Y-84802186D01*
X83953837Y-84593024D01*
X83953837Y-83948000D01*
X82422000Y-83948000D01*
X82422000Y-82416163D01*
X82678000Y-82416163D01*
X82678000Y-83692000D01*
X83953837Y-83692000D01*
X83953837Y-83041412D01*
X83873205Y-82740489D01*
X83725815Y-82564835D01*
X83532186Y-82453044D01*
X83323024Y-82416163D01*
X82678000Y-82416163D01*
X82422000Y-82416163D01*
X81771412Y-82416163D01*
X81470489Y-82496795D01*
X81294835Y-82644185D01*
X81277537Y-82674146D01*
X81185815Y-82564835D01*
X80992186Y-82453044D01*
X80783024Y-82416163D01*
X79231412Y-82416163D01*
X78930489Y-82496795D01*
X78754835Y-82644185D01*
X78737537Y-82674146D01*
X78645815Y-82564835D01*
X78452186Y-82453044D01*
X78243024Y-82416163D01*
X77598000Y-82416163D01*
X77598000Y-83948000D01*
X76066163Y-83948000D01*
X66801000Y-83948000D01*
X66801000Y-83046976D01*
X76066163Y-83046976D01*
X76066163Y-83692000D01*
X77342000Y-83692000D01*
X77342000Y-82416163D01*
X76691412Y-82416163D01*
X76390489Y-82496795D01*
X76214835Y-82644185D01*
X76103044Y-82837814D01*
X76066163Y-83046976D01*
X66801000Y-83046976D01*
X66801000Y-81776976D01*
X88766163Y-81776976D01*
X88766163Y-83328588D01*
X88846795Y-83629512D01*
X88994185Y-83805165D01*
X89187814Y-83916956D01*
X89396976Y-83953837D01*
X90948588Y-83953837D01*
X91249512Y-83873205D01*
X91425165Y-83725815D01*
X91442463Y-83695854D01*
X91534185Y-83805165D01*
X91727814Y-83916956D01*
X91936976Y-83953837D01*
X93488588Y-83953837D01*
X93789512Y-83873205D01*
X93965165Y-83725815D01*
X93982463Y-83695854D01*
X94074185Y-83805165D01*
X94267814Y-83916956D01*
X94476976Y-83953837D01*
X96028588Y-83953837D01*
X96329512Y-83873205D01*
X96505165Y-83725815D01*
X96616956Y-83532186D01*
X96653837Y-83323024D01*
X96653837Y-81771412D01*
X96573205Y-81470489D01*
X96425815Y-81294835D01*
X96232186Y-81183044D01*
X96023024Y-81146163D01*
X94471412Y-81146163D01*
X94170489Y-81226795D01*
X93994835Y-81374185D01*
X93977537Y-81404146D01*
X93885815Y-81294835D01*
X93692186Y-81183044D01*
X93483024Y-81146163D01*
X91931412Y-81146163D01*
X91630489Y-81226795D01*
X91454835Y-81374185D01*
X91437537Y-81404146D01*
X91345815Y-81294835D01*
X91152186Y-81183044D01*
X90943024Y-81146163D01*
X89391412Y-81146163D01*
X89090489Y-81226795D01*
X88914835Y-81374185D01*
X88803044Y-81567814D01*
X88766163Y-81776976D01*
X66801000Y-81776976D01*
X66801000Y-74343000D01*
X73728163Y-74343000D01*
X73728163Y-76136588D01*
X73808795Y-76437512D01*
X73956185Y-76613165D01*
X74149814Y-76724956D01*
X74358976Y-76761837D01*
X76147000Y-76761837D01*
X76147000Y-74343000D01*
X76403000Y-74343000D01*
X76403000Y-76761837D01*
X78196588Y-76761837D01*
X78497512Y-76681205D01*
X78673165Y-76533815D01*
X78784956Y-76340186D01*
X78821837Y-76131024D01*
X78821837Y-74343000D01*
X76403000Y-74343000D01*
X76147000Y-74343000D01*
X73728163Y-74343000D01*
X66801000Y-74343000D01*
X66801000Y-69343000D01*
X70628163Y-69343000D01*
X70628163Y-71136588D01*
X70708795Y-71437512D01*
X70856185Y-71613165D01*
X71049814Y-71724956D01*
X71258976Y-71761837D01*
X73047000Y-71761837D01*
X73047000Y-69343000D01*
X73303000Y-69343000D01*
X73303000Y-71761837D01*
X74036946Y-71761837D01*
X73876835Y-71896185D01*
X73765044Y-72089814D01*
X73728163Y-72298976D01*
X73728163Y-74087000D01*
X76147000Y-74087000D01*
X76147000Y-71668163D01*
X76403000Y-71668163D01*
X76403000Y-74087000D01*
X78821837Y-74087000D01*
X78821837Y-72293412D01*
X78741205Y-71992489D01*
X78593815Y-71816835D01*
X78498555Y-71761837D01*
X81296588Y-71761837D01*
X81597512Y-71681205D01*
X81773165Y-71533815D01*
X81801000Y-71485603D01*
X81801000Y-72276120D01*
X81795012Y-72312288D01*
X81801000Y-72426533D01*
X81801000Y-73735099D01*
X81825317Y-73958946D01*
X81921230Y-74243944D01*
X82076106Y-74501698D01*
X82282715Y-74720182D01*
X82531423Y-74889203D01*
X82810622Y-75000874D01*
X83107289Y-75049988D01*
X83407580Y-75034250D01*
X83697488Y-74954396D01*
X83963485Y-74814151D01*
X84193162Y-74620059D01*
X84375802Y-74381175D01*
X84441886Y-74239456D01*
X109136475Y-74239456D01*
X109149286Y-74527093D01*
X109203483Y-74809869D01*
X109297935Y-75081859D01*
X109430659Y-75337365D01*
X109598878Y-75571036D01*
X109799067Y-75777976D01*
X110027032Y-75953849D01*
X110277997Y-76094973D01*
X110546706Y-76198389D01*
X110827529Y-76261933D01*
X111114584Y-76284272D01*
X111401857Y-76264941D01*
X111683330Y-76204341D01*
X111953107Y-76103744D01*
X112205537Y-75965256D01*
X112435331Y-75791780D01*
X112637676Y-75586948D01*
X112808333Y-75355051D01*
X112943726Y-75100948D01*
X113041020Y-74829962D01*
X113098517Y-74546088D01*
X113109455Y-74154467D01*
X113067894Y-73867827D01*
X112985879Y-73591832D01*
X112864881Y-73330568D01*
X112707435Y-73089507D01*
X112516840Y-72873700D01*
X112297089Y-72687666D01*
X112052783Y-72535303D01*
X111789042Y-72419803D01*
X111511391Y-72343586D01*
X111225644Y-72308248D01*
X110937790Y-72314528D01*
X110653858Y-72362297D01*
X110379795Y-72450553D01*
X110121343Y-72577447D01*
X109883917Y-72740321D01*
X109672488Y-72935763D01*
X109491487Y-73159679D01*
X109344707Y-73407379D01*
X109235221Y-73673672D01*
X109165322Y-73952981D01*
X109136475Y-74239456D01*
X84441886Y-74239456D01*
X84504395Y-74105407D01*
X84559259Y-73774000D01*
X98366822Y-73774000D01*
X98459013Y-73781741D01*
X98591223Y-73764101D01*
X98723946Y-73749683D01*
X98740146Y-73744230D01*
X98757075Y-73741972D01*
X98882418Y-73696351D01*
X99008945Y-73653769D01*
X99023594Y-73644967D01*
X99043001Y-73637904D01*
X99082959Y-73609297D01*
X99266698Y-73498895D01*
X99358723Y-73411870D01*
X99364625Y-73407646D01*
X99389538Y-73382732D01*
X99485182Y-73292286D01*
X99496206Y-73276064D01*
X101466163Y-71306108D01*
X101466163Y-71898588D01*
X101546795Y-72199512D01*
X101694185Y-72375165D01*
X101887814Y-72486956D01*
X102096976Y-72523837D01*
X103648588Y-72523837D01*
X103949512Y-72443205D01*
X104125165Y-72295815D01*
X104142463Y-72265854D01*
X104234185Y-72375165D01*
X104427814Y-72486956D01*
X104636976Y-72523837D01*
X106188588Y-72523837D01*
X106489512Y-72443205D01*
X106665165Y-72295815D01*
X106776956Y-72102186D01*
X106813837Y-71893024D01*
X106813837Y-70341412D01*
X106733205Y-70040489D01*
X106585815Y-69864835D01*
X106392186Y-69753044D01*
X106183024Y-69716163D01*
X104631412Y-69716163D01*
X104330489Y-69796795D01*
X104254000Y-69860976D01*
X104254000Y-69328880D01*
X104259988Y-69292712D01*
X104254000Y-69178467D01*
X104254000Y-67306605D01*
X104427814Y-67406956D01*
X104636976Y-67443837D01*
X106188588Y-67443837D01*
X106489512Y-67363205D01*
X106665165Y-67215815D01*
X106776956Y-67022186D01*
X106813837Y-66813024D01*
X106813837Y-65261412D01*
X106733205Y-64960489D01*
X106585815Y-64784835D01*
X106392186Y-64673044D01*
X106183024Y-64636163D01*
X104631412Y-64636163D01*
X104330489Y-64716795D01*
X104154835Y-64864185D01*
X104137537Y-64894146D01*
X104045815Y-64784835D01*
X103852186Y-64673044D01*
X103643024Y-64636163D01*
X102091412Y-64636163D01*
X101790489Y-64716795D01*
X101614835Y-64864185D01*
X101503044Y-65057814D01*
X101466163Y-65266976D01*
X101466163Y-66818588D01*
X101486000Y-66892622D01*
X101486000Y-67833931D01*
X101433771Y-67840899D01*
X101301052Y-67855318D01*
X101284857Y-67860768D01*
X101267925Y-67863027D01*
X101142582Y-67908649D01*
X101016054Y-67951231D01*
X101001408Y-67960032D01*
X100981997Y-67967096D01*
X100942037Y-67995706D01*
X100758302Y-68106105D01*
X100666278Y-68193129D01*
X100660373Y-68197355D01*
X100635444Y-68222285D01*
X100539818Y-68312714D01*
X100528796Y-68328933D01*
X97851730Y-71006000D01*
X84569000Y-71006000D01*
X84569000Y-62923177D01*
X84576741Y-62830986D01*
X84573869Y-62809456D01*
X109136475Y-62809456D01*
X109149286Y-63097093D01*
X109203483Y-63379869D01*
X109297935Y-63651859D01*
X109430659Y-63907365D01*
X109598878Y-64141036D01*
X109799067Y-64347976D01*
X110027032Y-64523849D01*
X110277997Y-64664973D01*
X110546706Y-64768389D01*
X110827529Y-64831933D01*
X111114584Y-64854272D01*
X111401857Y-64834941D01*
X111683330Y-64774341D01*
X111953107Y-64673744D01*
X112205537Y-64535256D01*
X112435331Y-64361780D01*
X112637676Y-64156948D01*
X112808333Y-63925051D01*
X112943726Y-63670948D01*
X113041020Y-63399962D01*
X113098517Y-63116088D01*
X113109455Y-62724467D01*
X113067894Y-62437827D01*
X112985879Y-62161832D01*
X112864881Y-61900568D01*
X112707435Y-61659507D01*
X112516840Y-61443700D01*
X112297089Y-61257666D01*
X112052783Y-61105303D01*
X111789042Y-60989803D01*
X111511391Y-60913586D01*
X111225644Y-60878248D01*
X110937790Y-60884528D01*
X110653858Y-60932297D01*
X110379795Y-61020553D01*
X110121343Y-61147447D01*
X109883917Y-61310321D01*
X109672488Y-61505763D01*
X109491487Y-61729679D01*
X109344707Y-61977379D01*
X109235221Y-62243672D01*
X109165322Y-62522981D01*
X109136475Y-62809456D01*
X84573869Y-62809456D01*
X84559101Y-62698774D01*
X84544683Y-62566054D01*
X84539230Y-62549854D01*
X84536972Y-62532925D01*
X84491353Y-62407589D01*
X84448769Y-62281054D01*
X84439968Y-62266408D01*
X84432904Y-62246997D01*
X84404294Y-62207037D01*
X84293895Y-62023302D01*
X84206871Y-61931278D01*
X84202645Y-61925373D01*
X84177715Y-61900444D01*
X84087286Y-61804818D01*
X84071067Y-61793796D01*
X82205532Y-59928261D01*
X82030054Y-59787174D01*
X81760709Y-59653469D01*
X81468937Y-59580723D01*
X81168351Y-59572326D01*
X80872972Y-59628673D01*
X80596585Y-59747133D01*
X80352082Y-59922180D01*
X80150872Y-60145647D01*
X80002341Y-60407108D01*
X79913420Y-60694365D01*
X79888259Y-60994013D01*
X79928028Y-61292076D01*
X80032097Y-61578002D01*
X80262360Y-61899630D01*
X81801001Y-63438272D01*
X81801001Y-66944575D01*
X81693815Y-66816835D01*
X81500186Y-66705044D01*
X81291024Y-66668163D01*
X77453412Y-66668163D01*
X77152489Y-66748795D01*
X76976835Y-66896185D01*
X76865044Y-67089814D01*
X76828163Y-67298976D01*
X76828163Y-71136588D01*
X76908795Y-71437512D01*
X77056185Y-71613165D01*
X77151445Y-71668163D01*
X76403000Y-71668163D01*
X76147000Y-71668163D01*
X75413055Y-71668163D01*
X75573165Y-71533815D01*
X75684956Y-71340186D01*
X75721837Y-71131024D01*
X75721837Y-69343000D01*
X73303000Y-69343000D01*
X73047000Y-69343000D01*
X70628163Y-69343000D01*
X66801000Y-69343000D01*
X66801000Y-67298976D01*
X70628163Y-67298976D01*
X70628163Y-69087000D01*
X73047000Y-69087000D01*
X73047000Y-66668163D01*
X73303000Y-66668163D01*
X73303000Y-69087000D01*
X75721837Y-69087000D01*
X75721837Y-67293412D01*
X75641205Y-66992489D01*
X75493815Y-66816835D01*
X75300186Y-66705044D01*
X75091024Y-66668163D01*
X73303000Y-66668163D01*
X73047000Y-66668163D01*
X71253412Y-66668163D01*
X70952489Y-66748795D01*
X70776835Y-66896185D01*
X70665044Y-67089814D01*
X70628163Y-67298976D01*
X66801000Y-67298976D01*
X66801000Y-56376976D01*
X88766163Y-56376976D01*
X88766163Y-57928588D01*
X88846795Y-58229512D01*
X88994185Y-58405165D01*
X89187814Y-58516956D01*
X89396976Y-58553837D01*
X90948588Y-58553837D01*
X91249512Y-58473205D01*
X91425165Y-58325815D01*
X91442463Y-58295854D01*
X91534185Y-58405165D01*
X91727814Y-58516956D01*
X91826001Y-58534269D01*
X91826000Y-61050133D01*
X91746466Y-61187891D01*
X91676000Y-61450872D01*
X91676000Y-61723128D01*
X91746466Y-61986109D01*
X91882594Y-62221891D01*
X92075109Y-62414406D01*
X92310891Y-62550534D01*
X92573872Y-62621000D01*
X92846128Y-62621000D01*
X93109109Y-62550534D01*
X93344891Y-62414406D01*
X93537406Y-62221891D01*
X93673534Y-61986109D01*
X93744000Y-61723128D01*
X93744000Y-61450872D01*
X93673534Y-61187891D01*
X93594000Y-61050133D01*
X93594000Y-58525592D01*
X93789512Y-58473205D01*
X93965165Y-58325815D01*
X93982463Y-58295854D01*
X94074185Y-58405165D01*
X94267814Y-58516956D01*
X94476976Y-58553837D01*
X96028588Y-58553837D01*
X96329512Y-58473205D01*
X96505165Y-58325815D01*
X96616956Y-58132186D01*
X96653837Y-57923024D01*
X96653837Y-56371412D01*
X96573205Y-56070489D01*
X96425815Y-55894835D01*
X96232186Y-55783044D01*
X96023024Y-55746163D01*
X94471412Y-55746163D01*
X94170489Y-55826795D01*
X93994835Y-55974185D01*
X93977537Y-56004146D01*
X93885815Y-55894835D01*
X93692186Y-55783044D01*
X93483024Y-55746163D01*
X91931412Y-55746163D01*
X91630489Y-55826795D01*
X91454835Y-55974185D01*
X91437537Y-56004146D01*
X91345815Y-55894835D01*
X91152186Y-55783044D01*
X90943024Y-55746163D01*
X89391412Y-55746163D01*
X89090489Y-55826795D01*
X88914835Y-55974185D01*
X88803044Y-56167814D01*
X88766163Y-56376976D01*
X66801000Y-56376976D01*
X66801000Y-49021000D01*
X74820286Y-49021000D01*
X74820286Y-51817000D01*
M02*
