G04 #@! TF.GenerationSoftware,KiCad,Pcbnew,5.99.0-unknown-d20d310~100~ubuntu19.10.1*
G04 #@! TF.CreationDate,2019-12-12T13:35:59+01:00*
G04 #@! TF.ProjectId,DEWHEAT,44455748-4541-4542-9e6b-696361645f70,rev?*
G04 #@! TF.SameCoordinates,Original*
G04 #@! TF.FileFunction,Paste,Top*
G04 #@! TF.FilePolarity,Positive*
%FSLAX46Y46*%
G04 Gerber Fmt 4.6, Leading zero omitted, Abs format (unit mm)*
G04 Created by KiCad (PCBNEW 5.99.0-unknown-d20d310~100~ubuntu19.10.1) date 2019-12-12 13:35:59*
%MOMM*%
%LPD*%
G04 APERTURE LIST*
%ADD10R,3.500000X2.300000*%
%ADD11R,0.889000X1.397000*%
%ADD12R,1.397000X0.889000*%
%ADD13R,2.000000X3.500000*%
%ADD14R,7.000000X7.000000*%
%ADD15R,3.330000X3.810000*%
%ADD16R,1.500000X1.050000*%
%ADD17R,1.050000X1.500000*%
G04 APERTURE END LIST*
D10*
X70325000Y-60325000D03*
X75725000Y-60325000D03*
D11*
X85725000Y-72263000D03*
X87630000Y-72263000D03*
G36*
X87837403Y-62601418D02*
G01*
X87886066Y-62633934D01*
X87918582Y-62682597D01*
X87930000Y-62740000D01*
X87930000Y-64390000D01*
X87918582Y-64447403D01*
X87886066Y-64496066D01*
X87837403Y-64528582D01*
X87780000Y-64540000D01*
X87480000Y-64540000D01*
X87422597Y-64528582D01*
X87373934Y-64496066D01*
X87341418Y-64447403D01*
X87330000Y-64390000D01*
X87330000Y-62740000D01*
X87341418Y-62682597D01*
X87373934Y-62633934D01*
X87422597Y-62601418D01*
X87480000Y-62590000D01*
X87780000Y-62590000D01*
X87837403Y-62601418D01*
G37*
G36*
X89107403Y-62601418D02*
G01*
X89156066Y-62633934D01*
X89188582Y-62682597D01*
X89200000Y-62740000D01*
X89200000Y-64390000D01*
X89188582Y-64447403D01*
X89156066Y-64496066D01*
X89107403Y-64528582D01*
X89050000Y-64540000D01*
X88750000Y-64540000D01*
X88692597Y-64528582D01*
X88643934Y-64496066D01*
X88611418Y-64447403D01*
X88600000Y-64390000D01*
X88600000Y-62740000D01*
X88611418Y-62682597D01*
X88643934Y-62633934D01*
X88692597Y-62601418D01*
X88750000Y-62590000D01*
X89050000Y-62590000D01*
X89107403Y-62601418D01*
G37*
G36*
X90377403Y-62601418D02*
G01*
X90426066Y-62633934D01*
X90458582Y-62682597D01*
X90470000Y-62740000D01*
X90470000Y-64390000D01*
X90458582Y-64447403D01*
X90426066Y-64496066D01*
X90377403Y-64528582D01*
X90320000Y-64540000D01*
X90020000Y-64540000D01*
X89962597Y-64528582D01*
X89913934Y-64496066D01*
X89881418Y-64447403D01*
X89870000Y-64390000D01*
X89870000Y-62740000D01*
X89881418Y-62682597D01*
X89913934Y-62633934D01*
X89962597Y-62601418D01*
X90020000Y-62590000D01*
X90320000Y-62590000D01*
X90377403Y-62601418D01*
G37*
G36*
X91647403Y-62601418D02*
G01*
X91696066Y-62633934D01*
X91728582Y-62682597D01*
X91740000Y-62740000D01*
X91740000Y-64390000D01*
X91728582Y-64447403D01*
X91696066Y-64496066D01*
X91647403Y-64528582D01*
X91590000Y-64540000D01*
X91290000Y-64540000D01*
X91232597Y-64528582D01*
X91183934Y-64496066D01*
X91151418Y-64447403D01*
X91140000Y-64390000D01*
X91140000Y-62740000D01*
X91151418Y-62682597D01*
X91183934Y-62633934D01*
X91232597Y-62601418D01*
X91290000Y-62590000D01*
X91590000Y-62590000D01*
X91647403Y-62601418D01*
G37*
G36*
X92917403Y-62601418D02*
G01*
X92966066Y-62633934D01*
X92998582Y-62682597D01*
X93010000Y-62740000D01*
X93010000Y-64390000D01*
X92998582Y-64447403D01*
X92966066Y-64496066D01*
X92917403Y-64528582D01*
X92860000Y-64540000D01*
X92560000Y-64540000D01*
X92502597Y-64528582D01*
X92453934Y-64496066D01*
X92421418Y-64447403D01*
X92410000Y-64390000D01*
X92410000Y-62740000D01*
X92421418Y-62682597D01*
X92453934Y-62633934D01*
X92502597Y-62601418D01*
X92560000Y-62590000D01*
X92860000Y-62590000D01*
X92917403Y-62601418D01*
G37*
G36*
X94187403Y-62601418D02*
G01*
X94236066Y-62633934D01*
X94268582Y-62682597D01*
X94280000Y-62740000D01*
X94280000Y-64390000D01*
X94268582Y-64447403D01*
X94236066Y-64496066D01*
X94187403Y-64528582D01*
X94130000Y-64540000D01*
X93830000Y-64540000D01*
X93772597Y-64528582D01*
X93723934Y-64496066D01*
X93691418Y-64447403D01*
X93680000Y-64390000D01*
X93680000Y-62740000D01*
X93691418Y-62682597D01*
X93723934Y-62633934D01*
X93772597Y-62601418D01*
X93830000Y-62590000D01*
X94130000Y-62590000D01*
X94187403Y-62601418D01*
G37*
G36*
X95457403Y-62601418D02*
G01*
X95506066Y-62633934D01*
X95538582Y-62682597D01*
X95550000Y-62740000D01*
X95550000Y-64390000D01*
X95538582Y-64447403D01*
X95506066Y-64496066D01*
X95457403Y-64528582D01*
X95400000Y-64540000D01*
X95100000Y-64540000D01*
X95042597Y-64528582D01*
X94993934Y-64496066D01*
X94961418Y-64447403D01*
X94950000Y-64390000D01*
X94950000Y-62740000D01*
X94961418Y-62682597D01*
X94993934Y-62633934D01*
X95042597Y-62601418D01*
X95100000Y-62590000D01*
X95400000Y-62590000D01*
X95457403Y-62601418D01*
G37*
G36*
X95457403Y-67551418D02*
G01*
X95506066Y-67583934D01*
X95538582Y-67632597D01*
X95550000Y-67690000D01*
X95550000Y-69340000D01*
X95538582Y-69397403D01*
X95506066Y-69446066D01*
X95457403Y-69478582D01*
X95400000Y-69490000D01*
X95100000Y-69490000D01*
X95042597Y-69478582D01*
X94993934Y-69446066D01*
X94961418Y-69397403D01*
X94950000Y-69340000D01*
X94950000Y-67690000D01*
X94961418Y-67632597D01*
X94993934Y-67583934D01*
X95042597Y-67551418D01*
X95100000Y-67540000D01*
X95400000Y-67540000D01*
X95457403Y-67551418D01*
G37*
G36*
X94187403Y-67551418D02*
G01*
X94236066Y-67583934D01*
X94268582Y-67632597D01*
X94280000Y-67690000D01*
X94280000Y-69340000D01*
X94268582Y-69397403D01*
X94236066Y-69446066D01*
X94187403Y-69478582D01*
X94130000Y-69490000D01*
X93830000Y-69490000D01*
X93772597Y-69478582D01*
X93723934Y-69446066D01*
X93691418Y-69397403D01*
X93680000Y-69340000D01*
X93680000Y-67690000D01*
X93691418Y-67632597D01*
X93723934Y-67583934D01*
X93772597Y-67551418D01*
X93830000Y-67540000D01*
X94130000Y-67540000D01*
X94187403Y-67551418D01*
G37*
G36*
X92917403Y-67551418D02*
G01*
X92966066Y-67583934D01*
X92998582Y-67632597D01*
X93010000Y-67690000D01*
X93010000Y-69340000D01*
X92998582Y-69397403D01*
X92966066Y-69446066D01*
X92917403Y-69478582D01*
X92860000Y-69490000D01*
X92560000Y-69490000D01*
X92502597Y-69478582D01*
X92453934Y-69446066D01*
X92421418Y-69397403D01*
X92410000Y-69340000D01*
X92410000Y-67690000D01*
X92421418Y-67632597D01*
X92453934Y-67583934D01*
X92502597Y-67551418D01*
X92560000Y-67540000D01*
X92860000Y-67540000D01*
X92917403Y-67551418D01*
G37*
G36*
X91647403Y-67551418D02*
G01*
X91696066Y-67583934D01*
X91728582Y-67632597D01*
X91740000Y-67690000D01*
X91740000Y-69340000D01*
X91728582Y-69397403D01*
X91696066Y-69446066D01*
X91647403Y-69478582D01*
X91590000Y-69490000D01*
X91290000Y-69490000D01*
X91232597Y-69478582D01*
X91183934Y-69446066D01*
X91151418Y-69397403D01*
X91140000Y-69340000D01*
X91140000Y-67690000D01*
X91151418Y-67632597D01*
X91183934Y-67583934D01*
X91232597Y-67551418D01*
X91290000Y-67540000D01*
X91590000Y-67540000D01*
X91647403Y-67551418D01*
G37*
G36*
X90377403Y-67551418D02*
G01*
X90426066Y-67583934D01*
X90458582Y-67632597D01*
X90470000Y-67690000D01*
X90470000Y-69340000D01*
X90458582Y-69397403D01*
X90426066Y-69446066D01*
X90377403Y-69478582D01*
X90320000Y-69490000D01*
X90020000Y-69490000D01*
X89962597Y-69478582D01*
X89913934Y-69446066D01*
X89881418Y-69397403D01*
X89870000Y-69340000D01*
X89870000Y-67690000D01*
X89881418Y-67632597D01*
X89913934Y-67583934D01*
X89962597Y-67551418D01*
X90020000Y-67540000D01*
X90320000Y-67540000D01*
X90377403Y-67551418D01*
G37*
G36*
X89107403Y-67551418D02*
G01*
X89156066Y-67583934D01*
X89188582Y-67632597D01*
X89200000Y-67690000D01*
X89200000Y-69340000D01*
X89188582Y-69397403D01*
X89156066Y-69446066D01*
X89107403Y-69478582D01*
X89050000Y-69490000D01*
X88750000Y-69490000D01*
X88692597Y-69478582D01*
X88643934Y-69446066D01*
X88611418Y-69397403D01*
X88600000Y-69340000D01*
X88600000Y-67690000D01*
X88611418Y-67632597D01*
X88643934Y-67583934D01*
X88692597Y-67551418D01*
X88750000Y-67540000D01*
X89050000Y-67540000D01*
X89107403Y-67551418D01*
G37*
G36*
X87837403Y-67551418D02*
G01*
X87886066Y-67583934D01*
X87918582Y-67632597D01*
X87930000Y-67690000D01*
X87930000Y-69340000D01*
X87918582Y-69397403D01*
X87886066Y-69446066D01*
X87837403Y-69478582D01*
X87780000Y-69490000D01*
X87480000Y-69490000D01*
X87422597Y-69478582D01*
X87373934Y-69446066D01*
X87341418Y-69397403D01*
X87330000Y-69340000D01*
X87330000Y-67690000D01*
X87341418Y-67632597D01*
X87373934Y-67583934D01*
X87422597Y-67551418D01*
X87480000Y-67540000D01*
X87780000Y-67540000D01*
X87837403Y-67551418D01*
G37*
X108902500Y-67310000D03*
X110807500Y-67310000D03*
X108902500Y-69850000D03*
X110807500Y-69850000D03*
D12*
X100965000Y-63500000D03*
X100965000Y-65405000D03*
X98425000Y-70485000D03*
X98425000Y-68580000D03*
D11*
X80645000Y-58420000D03*
X82550000Y-58420000D03*
X80645000Y-79375000D03*
X78740000Y-79375000D03*
D13*
X100570000Y-60850000D03*
X105150000Y-60850000D03*
D14*
X102870000Y-53450000D03*
D13*
X105270000Y-76420000D03*
X100690000Y-76420000D03*
D14*
X102970000Y-83820000D03*
D15*
X82550000Y-79375000D03*
X76730000Y-79375000D03*
D16*
X111125000Y-60865000D03*
X111125000Y-64865000D03*
X111125000Y-76295000D03*
X111125000Y-72295000D03*
D17*
X78550000Y-53340000D03*
X82550000Y-53340000D03*
D11*
X87630000Y-55245000D03*
X85725000Y-55245000D03*
D12*
X86995000Y-79375000D03*
X86995000Y-77470000D03*
D11*
X91440000Y-54610000D03*
X93345000Y-54610000D03*
D12*
X90170000Y-77470000D03*
X90170000Y-79375000D03*
D11*
X95567500Y-59690000D03*
X97472500Y-59690000D03*
D12*
X84455000Y-66675000D03*
X84455000Y-68580000D03*
D11*
X85725000Y-59055000D03*
X87630000Y-59055000D03*
M02*
