G04 #@! TF.GenerationSoftware,KiCad,Pcbnew,5.99.0-unknown-d20d310~100~ubuntu19.10.1*
G04 #@! TF.CreationDate,2019-12-12T13:36:00+01:00*
G04 #@! TF.ProjectId,DEWHEAT,44455748-4541-4542-9e6b-696361645f70,rev?*
G04 #@! TF.SameCoordinates,Original*
G04 #@! TF.FileFunction,Soldermask,Top*
G04 #@! TF.FilePolarity,Negative*
%FSLAX46Y46*%
G04 Gerber Fmt 4.6, Leading zero omitted, Abs format (unit mm)*
G04 Created by KiCad (PCBNEW 5.99.0-unknown-d20d310~100~ubuntu19.10.1) date 2019-12-12 13:36:00*
%MOMM*%
%LPD*%
G04 APERTURE LIST*
G04 APERTURE END LIST*
G36*
X106489899Y-80271959D02*
G01*
X106506769Y-80283231D01*
X106518041Y-80300101D01*
X106524448Y-80332312D01*
X106524448Y-87307688D01*
X106521999Y-87320000D01*
X106518041Y-87339899D01*
X106506769Y-87356769D01*
X106489899Y-87368041D01*
X106470000Y-87371999D01*
X106457688Y-87374448D01*
X99482312Y-87374448D01*
X99450101Y-87368041D01*
X99433231Y-87356769D01*
X99421959Y-87339899D01*
X99415552Y-87307688D01*
X99415552Y-80332312D01*
X99421959Y-80300101D01*
X99433231Y-80283231D01*
X99450101Y-80271959D01*
X99482312Y-80265552D01*
X106457688Y-80265552D01*
X106489899Y-80271959D01*
G37*
G36*
X83331899Y-85549959D02*
G01*
X83348769Y-85561231D01*
X83360041Y-85578101D01*
X83366448Y-85610312D01*
X83366448Y-87109688D01*
X83363999Y-87122000D01*
X83360041Y-87141899D01*
X83348769Y-87158769D01*
X83331899Y-87170041D01*
X83312000Y-87173999D01*
X83299688Y-87176448D01*
X81800312Y-87176448D01*
X81768101Y-87170041D01*
X81751231Y-87158769D01*
X81739959Y-87141899D01*
X81733552Y-87109688D01*
X81733552Y-85610312D01*
X81739959Y-85578101D01*
X81751231Y-85561231D01*
X81768101Y-85549959D01*
X81800312Y-85543552D01*
X83299688Y-85543552D01*
X83331899Y-85549959D01*
G37*
G36*
X80791899Y-85549959D02*
G01*
X80808769Y-85561231D01*
X80820041Y-85578101D01*
X80826448Y-85610312D01*
X80826448Y-87109688D01*
X80823999Y-87122000D01*
X80820041Y-87141899D01*
X80808769Y-87158769D01*
X80791899Y-87170041D01*
X80772000Y-87173999D01*
X80759688Y-87176448D01*
X79260312Y-87176448D01*
X79228101Y-87170041D01*
X79211231Y-87158769D01*
X79199959Y-87141899D01*
X79193552Y-87109688D01*
X79193552Y-85610312D01*
X79199959Y-85578101D01*
X79211231Y-85561231D01*
X79228101Y-85549959D01*
X79260312Y-85543552D01*
X80759688Y-85543552D01*
X80791899Y-85549959D01*
G37*
G36*
X78251899Y-85549959D02*
G01*
X78268769Y-85561231D01*
X78280041Y-85578101D01*
X78286448Y-85610312D01*
X78286448Y-87109688D01*
X78283999Y-87122000D01*
X78280041Y-87141899D01*
X78268769Y-87158769D01*
X78251899Y-87170041D01*
X78232000Y-87173999D01*
X78219688Y-87176448D01*
X76720312Y-87176448D01*
X76688101Y-87170041D01*
X76671231Y-87158769D01*
X76659959Y-87141899D01*
X76653552Y-87109688D01*
X76653552Y-85610312D01*
X76659959Y-85578101D01*
X76671231Y-85561231D01*
X76688101Y-85549959D01*
X76720312Y-85543552D01*
X78219688Y-85543552D01*
X78251899Y-85549959D01*
G37*
G36*
X111918774Y-80769990D02*
G01*
X111951873Y-80770221D01*
X112087095Y-80786346D01*
X112227522Y-80799991D01*
X112260424Y-80807014D01*
X112290643Y-80810618D01*
X112425734Y-80842303D01*
X112566392Y-80872329D01*
X112595739Y-80882177D01*
X112622779Y-80888519D01*
X112755898Y-80935921D01*
X112894894Y-80982563D01*
X112920523Y-80994541D01*
X112944174Y-81002963D01*
X113073459Y-81066019D01*
X113208806Y-81129276D01*
X113230627Y-81142674D01*
X113250804Y-81152515D01*
X113374365Y-81230930D01*
X113504091Y-81310582D01*
X113522157Y-81324722D01*
X113538858Y-81335321D01*
X113654802Y-81428542D01*
X113776954Y-81524150D01*
X113791397Y-81538367D01*
X113804729Y-81549087D01*
X113911184Y-81656288D01*
X114023886Y-81767233D01*
X114034952Y-81780922D01*
X114045130Y-81791172D01*
X114140415Y-81911391D01*
X114241713Y-82036708D01*
X114249718Y-82049298D01*
X114257041Y-82058537D01*
X114339503Y-82190503D01*
X114427635Y-82329109D01*
X114432990Y-82340113D01*
X114437826Y-82347852D01*
X114505862Y-82489855D01*
X114579261Y-82640678D01*
X114582446Y-82649696D01*
X114585236Y-82655520D01*
X114637375Y-82805244D01*
X114694641Y-82967408D01*
X114696186Y-82974127D01*
X114697431Y-82977702D01*
X114732285Y-83131111D01*
X114772293Y-83305099D01*
X114772768Y-83309301D01*
X114773015Y-83310388D01*
X114788768Y-83450833D01*
X114811218Y-83649410D01*
X114810480Y-83681942D01*
X114804970Y-84076575D01*
X114800861Y-84105809D01*
X114800339Y-84128826D01*
X114777279Y-84273604D01*
X114757612Y-84413538D01*
X114750706Y-84440434D01*
X114745835Y-84471017D01*
X114707270Y-84609607D01*
X114672767Y-84743988D01*
X114661960Y-84772438D01*
X114652944Y-84804838D01*
X114599986Y-84935584D01*
X114551621Y-85062907D01*
X114536491Y-85092346D01*
X114522861Y-85125998D01*
X114456749Y-85247509D01*
X114395675Y-85366346D01*
X114375886Y-85396131D01*
X114357258Y-85430368D01*
X114279397Y-85541359D01*
X114206886Y-85650496D01*
X114182184Y-85679934D01*
X114158263Y-85714034D01*
X114070132Y-85813473D01*
X113987589Y-85911844D01*
X113957838Y-85940176D01*
X113928436Y-85973350D01*
X113831632Y-86060360D01*
X113740524Y-86147121D01*
X113705680Y-86173569D01*
X113670731Y-86204982D01*
X113566925Y-86278889D01*
X113468790Y-86353378D01*
X113428926Y-86377141D01*
X113388461Y-86405952D01*
X113279312Y-86466330D01*
X113175742Y-86528070D01*
X113131054Y-86548341D01*
X113085255Y-86573676D01*
X112972490Y-86620269D01*
X112865058Y-86669003D01*
X112815853Y-86684991D01*
X112765011Y-86705998D01*
X112650276Y-86738789D01*
X112540594Y-86774427D01*
X112487318Y-86785363D01*
X112431846Y-86801217D01*
X112316793Y-86820367D01*
X112206407Y-86843026D01*
X112149592Y-86848197D01*
X112090044Y-86858108D01*
X111976246Y-86863972D01*
X111866645Y-86873947D01*
X111806955Y-86872697D01*
X111743999Y-86875941D01*
X111632945Y-86869052D01*
X111525558Y-86866802D01*
X111463750Y-86858555D01*
X111398159Y-86854486D01*
X111291251Y-86835539D01*
X111187398Y-86821682D01*
X111124308Y-86805952D01*
X111056972Y-86794018D01*
X110955471Y-86763856D01*
X110856370Y-86739147D01*
X110792941Y-86715558D01*
X110724823Y-86695316D01*
X110629871Y-86654913D01*
X110536610Y-86620230D01*
X110473822Y-86588513D01*
X110405982Y-86559647D01*
X110318551Y-86510080D01*
X110232101Y-86466411D01*
X110171024Y-86426443D01*
X110104549Y-86388757D01*
X110025445Y-86331179D01*
X109946619Y-86279597D01*
X109888335Y-86231380D01*
X109824399Y-86184843D01*
X109754307Y-86120503D01*
X109683763Y-86062144D01*
X109629374Y-86005822D01*
X109569133Y-85950525D01*
X109508518Y-85880672D01*
X109446765Y-85816725D01*
X109397377Y-85752593D01*
X109342034Y-85688816D01*
X109291237Y-85614768D01*
X109238613Y-85546434D01*
X109195309Y-85474930D01*
X109146021Y-85403082D01*
X109105183Y-85326115D01*
X109061878Y-85254610D01*
X109025702Y-85176317D01*
X108983614Y-85096995D01*
X108952736Y-85018406D01*
X108918783Y-84944924D01*
X108890719Y-84860560D01*
X108856902Y-84774490D01*
X108835810Y-84695497D01*
X108811092Y-84621193D01*
X108792056Y-84531635D01*
X108767512Y-84439715D01*
X108755891Y-84361488D01*
X108740163Y-84287495D01*
X108730971Y-84193746D01*
X108716594Y-84096972D01*
X108713994Y-84020606D01*
X108706872Y-83947970D01*
X108708224Y-83851127D01*
X108704804Y-83750668D01*
X108710653Y-83677168D01*
X108711635Y-83606832D01*
X108724105Y-83508120D01*
X108732291Y-83405256D01*
X108745911Y-83335512D01*
X108754393Y-83268371D01*
X108778408Y-83169105D01*
X108798704Y-83065175D01*
X108819327Y-82999967D01*
X108834614Y-82936777D01*
X108870447Y-82838326D01*
X108903189Y-82734799D01*
X108929973Y-82674783D01*
X108951300Y-82616187D01*
X108999059Y-82519975D01*
X109044401Y-82418375D01*
X109076438Y-82364096D01*
X109102989Y-82310608D01*
X109162616Y-82218085D01*
X109220526Y-82119970D01*
X109256896Y-82071793D01*
X109287801Y-82023838D01*
X109359030Y-81936502D01*
X109429299Y-81843421D01*
X109469039Y-81801617D01*
X109503422Y-81759459D01*
X109585836Y-81678754D01*
X109668036Y-81592284D01*
X109710205Y-81556963D01*
X109747171Y-81520763D01*
X109840137Y-81448130D01*
X109933668Y-81369787D01*
X109977331Y-81340942D01*
X110016003Y-81310728D01*
X110118721Y-81247536D01*
X110222780Y-81178791D01*
X110267050Y-81156283D01*
X110306588Y-81131959D01*
X110418086Y-81079492D01*
X110531654Y-81021751D01*
X110575679Y-81005334D01*
X110615271Y-80986704D01*
X110734391Y-80946152D01*
X110856321Y-80900686D01*
X110899335Y-80890001D01*
X110938231Y-80876760D01*
X111063659Y-80849183D01*
X111192606Y-80817152D01*
X111233905Y-80811752D01*
X111271435Y-80803500D01*
X111401743Y-80789804D01*
X111536185Y-80772224D01*
X111575159Y-80771578D01*
X111610722Y-80767840D01*
X111744331Y-80768772D01*
X111882642Y-80766479D01*
X111918774Y-80769990D01*
G37*
G36*
X71278774Y-80769990D02*
G01*
X71311873Y-80770221D01*
X71447095Y-80786346D01*
X71587522Y-80799991D01*
X71620424Y-80807014D01*
X71650643Y-80810618D01*
X71785734Y-80842303D01*
X71926392Y-80872329D01*
X71955739Y-80882177D01*
X71982779Y-80888519D01*
X72115898Y-80935921D01*
X72254894Y-80982563D01*
X72280523Y-80994541D01*
X72304174Y-81002963D01*
X72433459Y-81066019D01*
X72568806Y-81129276D01*
X72590627Y-81142674D01*
X72610804Y-81152515D01*
X72734365Y-81230930D01*
X72864091Y-81310582D01*
X72882157Y-81324722D01*
X72898858Y-81335321D01*
X73014802Y-81428542D01*
X73136954Y-81524150D01*
X73151397Y-81538367D01*
X73164729Y-81549087D01*
X73271184Y-81656288D01*
X73383886Y-81767233D01*
X73394952Y-81780922D01*
X73405130Y-81791172D01*
X73500415Y-81911391D01*
X73601713Y-82036708D01*
X73609718Y-82049298D01*
X73617041Y-82058537D01*
X73699503Y-82190503D01*
X73787635Y-82329109D01*
X73792990Y-82340113D01*
X73797826Y-82347852D01*
X73865862Y-82489855D01*
X73939261Y-82640678D01*
X73942446Y-82649696D01*
X73945236Y-82655520D01*
X73997375Y-82805244D01*
X74054641Y-82967408D01*
X74056186Y-82974127D01*
X74057431Y-82977702D01*
X74092285Y-83131111D01*
X74132293Y-83305099D01*
X74132768Y-83309301D01*
X74133015Y-83310388D01*
X74148768Y-83450833D01*
X74171218Y-83649410D01*
X74170480Y-83681942D01*
X74164970Y-84076575D01*
X74160861Y-84105809D01*
X74160339Y-84128826D01*
X74137279Y-84273604D01*
X74117612Y-84413538D01*
X74110706Y-84440434D01*
X74105835Y-84471017D01*
X74067270Y-84609607D01*
X74032767Y-84743988D01*
X74021960Y-84772438D01*
X74012944Y-84804838D01*
X73959986Y-84935584D01*
X73911621Y-85062907D01*
X73896491Y-85092346D01*
X73882861Y-85125998D01*
X73816749Y-85247509D01*
X73755675Y-85366346D01*
X73735886Y-85396131D01*
X73717258Y-85430368D01*
X73639397Y-85541359D01*
X73566886Y-85650496D01*
X73542184Y-85679934D01*
X73518263Y-85714034D01*
X73430132Y-85813473D01*
X73347589Y-85911844D01*
X73317838Y-85940176D01*
X73288436Y-85973350D01*
X73191632Y-86060360D01*
X73100524Y-86147121D01*
X73065680Y-86173569D01*
X73030731Y-86204982D01*
X72926925Y-86278889D01*
X72828790Y-86353378D01*
X72788926Y-86377141D01*
X72748461Y-86405952D01*
X72639312Y-86466330D01*
X72535742Y-86528070D01*
X72491054Y-86548341D01*
X72445255Y-86573676D01*
X72332490Y-86620269D01*
X72225058Y-86669003D01*
X72175853Y-86684991D01*
X72125011Y-86705998D01*
X72010276Y-86738789D01*
X71900594Y-86774427D01*
X71847318Y-86785363D01*
X71791846Y-86801217D01*
X71676793Y-86820367D01*
X71566407Y-86843026D01*
X71509592Y-86848197D01*
X71450044Y-86858108D01*
X71336246Y-86863972D01*
X71226645Y-86873947D01*
X71166955Y-86872697D01*
X71103999Y-86875941D01*
X70992945Y-86869052D01*
X70885558Y-86866802D01*
X70823750Y-86858555D01*
X70758159Y-86854486D01*
X70651251Y-86835539D01*
X70547398Y-86821682D01*
X70484308Y-86805952D01*
X70416972Y-86794018D01*
X70315471Y-86763856D01*
X70216370Y-86739147D01*
X70152941Y-86715558D01*
X70084823Y-86695316D01*
X69989871Y-86654913D01*
X69896610Y-86620230D01*
X69833822Y-86588513D01*
X69765982Y-86559647D01*
X69678551Y-86510080D01*
X69592101Y-86466411D01*
X69531024Y-86426443D01*
X69464549Y-86388757D01*
X69385445Y-86331179D01*
X69306619Y-86279597D01*
X69248335Y-86231380D01*
X69184399Y-86184843D01*
X69114307Y-86120503D01*
X69043763Y-86062144D01*
X68989374Y-86005822D01*
X68929133Y-85950525D01*
X68868518Y-85880672D01*
X68806765Y-85816725D01*
X68757377Y-85752593D01*
X68702034Y-85688816D01*
X68651237Y-85614768D01*
X68598613Y-85546434D01*
X68555309Y-85474930D01*
X68506021Y-85403082D01*
X68465183Y-85326115D01*
X68421878Y-85254610D01*
X68385702Y-85176317D01*
X68343614Y-85096995D01*
X68312736Y-85018406D01*
X68278783Y-84944924D01*
X68250719Y-84860560D01*
X68216902Y-84774490D01*
X68195810Y-84695497D01*
X68171092Y-84621193D01*
X68152056Y-84531635D01*
X68127512Y-84439715D01*
X68115891Y-84361488D01*
X68100163Y-84287495D01*
X68090971Y-84193746D01*
X68076594Y-84096972D01*
X68073994Y-84020606D01*
X68066872Y-83947970D01*
X68068224Y-83851127D01*
X68064804Y-83750668D01*
X68070653Y-83677168D01*
X68071635Y-83606832D01*
X68084105Y-83508120D01*
X68092291Y-83405256D01*
X68105911Y-83335512D01*
X68114393Y-83268371D01*
X68138408Y-83169105D01*
X68158704Y-83065175D01*
X68179327Y-82999967D01*
X68194614Y-82936777D01*
X68230447Y-82838326D01*
X68263189Y-82734799D01*
X68289973Y-82674783D01*
X68311300Y-82616187D01*
X68359059Y-82519975D01*
X68404401Y-82418375D01*
X68436438Y-82364096D01*
X68462989Y-82310608D01*
X68522616Y-82218085D01*
X68580526Y-82119970D01*
X68616896Y-82071793D01*
X68647801Y-82023838D01*
X68719030Y-81936502D01*
X68789299Y-81843421D01*
X68829039Y-81801617D01*
X68863422Y-81759459D01*
X68945836Y-81678754D01*
X69028036Y-81592284D01*
X69070205Y-81556963D01*
X69107171Y-81520763D01*
X69200137Y-81448130D01*
X69293668Y-81369787D01*
X69337331Y-81340942D01*
X69376003Y-81310728D01*
X69478721Y-81247536D01*
X69582780Y-81178791D01*
X69627050Y-81156283D01*
X69666588Y-81131959D01*
X69778086Y-81079492D01*
X69891654Y-81021751D01*
X69935679Y-81005334D01*
X69975271Y-80986704D01*
X70094391Y-80946152D01*
X70216321Y-80900686D01*
X70259335Y-80890001D01*
X70298231Y-80876760D01*
X70423659Y-80849183D01*
X70552606Y-80817152D01*
X70593905Y-80811752D01*
X70631435Y-80803500D01*
X70761743Y-80789804D01*
X70896185Y-80772224D01*
X70935159Y-80771578D01*
X70970722Y-80767840D01*
X71104331Y-80768772D01*
X71242642Y-80766479D01*
X71278774Y-80769990D01*
G37*
G36*
X83331899Y-83009959D02*
G01*
X83348769Y-83021231D01*
X83360041Y-83038101D01*
X83366448Y-83070312D01*
X83366448Y-84569688D01*
X83363999Y-84582000D01*
X83360041Y-84601899D01*
X83348769Y-84618769D01*
X83331899Y-84630041D01*
X83312000Y-84633999D01*
X83299688Y-84636448D01*
X81800312Y-84636448D01*
X81768101Y-84630041D01*
X81751231Y-84618769D01*
X81739959Y-84601899D01*
X81733552Y-84569688D01*
X81733552Y-83070312D01*
X81739959Y-83038101D01*
X81751231Y-83021231D01*
X81768101Y-83009959D01*
X81800312Y-83003552D01*
X83299688Y-83003552D01*
X83331899Y-83009959D01*
G37*
G36*
X80791899Y-83009959D02*
G01*
X80808769Y-83021231D01*
X80820041Y-83038101D01*
X80826448Y-83070312D01*
X80826448Y-84569688D01*
X80823999Y-84582000D01*
X80820041Y-84601899D01*
X80808769Y-84618769D01*
X80791899Y-84630041D01*
X80772000Y-84633999D01*
X80759688Y-84636448D01*
X79260312Y-84636448D01*
X79228101Y-84630041D01*
X79211231Y-84618769D01*
X79199959Y-84601899D01*
X79193552Y-84569688D01*
X79193552Y-83070312D01*
X79199959Y-83038101D01*
X79211231Y-83021231D01*
X79228101Y-83009959D01*
X79260312Y-83003552D01*
X80759688Y-83003552D01*
X80791899Y-83009959D01*
G37*
G36*
X78251899Y-83009959D02*
G01*
X78268769Y-83021231D01*
X78280041Y-83038101D01*
X78286448Y-83070312D01*
X78286448Y-84569688D01*
X78283999Y-84582000D01*
X78280041Y-84601899D01*
X78268769Y-84618769D01*
X78251899Y-84630041D01*
X78232000Y-84633999D01*
X78219688Y-84636448D01*
X76720312Y-84636448D01*
X76688101Y-84630041D01*
X76671231Y-84618769D01*
X76659959Y-84601899D01*
X76653552Y-84569688D01*
X76653552Y-83070312D01*
X76659959Y-83038101D01*
X76671231Y-83021231D01*
X76688101Y-83009959D01*
X76720312Y-83003552D01*
X78219688Y-83003552D01*
X78251899Y-83009959D01*
G37*
G36*
X96031899Y-81739959D02*
G01*
X96048769Y-81751231D01*
X96060041Y-81768101D01*
X96066448Y-81800312D01*
X96066448Y-83299688D01*
X96063999Y-83312000D01*
X96060041Y-83331899D01*
X96048769Y-83348769D01*
X96031899Y-83360041D01*
X96012000Y-83363999D01*
X95999688Y-83366448D01*
X94500312Y-83366448D01*
X94468101Y-83360041D01*
X94451231Y-83348769D01*
X94439959Y-83331899D01*
X94433552Y-83299688D01*
X94433552Y-81800312D01*
X94439959Y-81768101D01*
X94451231Y-81751231D01*
X94468101Y-81739959D01*
X94500312Y-81733552D01*
X95999688Y-81733552D01*
X96031899Y-81739959D01*
G37*
G36*
X90951899Y-81739959D02*
G01*
X90968769Y-81751231D01*
X90980041Y-81768101D01*
X90986448Y-81800312D01*
X90986448Y-83299688D01*
X90983999Y-83312000D01*
X90980041Y-83331899D01*
X90968769Y-83348769D01*
X90951899Y-83360041D01*
X90932000Y-83363999D01*
X90919688Y-83366448D01*
X89420312Y-83366448D01*
X89388101Y-83360041D01*
X89371231Y-83348769D01*
X89359959Y-83331899D01*
X89353552Y-83299688D01*
X89353552Y-81800312D01*
X89359959Y-81768101D01*
X89371231Y-81751231D01*
X89388101Y-81739959D01*
X89420312Y-81733552D01*
X90919688Y-81733552D01*
X90951899Y-81739959D01*
G37*
G36*
X93491899Y-81739959D02*
G01*
X93508769Y-81751231D01*
X93520041Y-81768101D01*
X93526448Y-81800312D01*
X93526448Y-83299688D01*
X93523999Y-83312000D01*
X93520041Y-83331899D01*
X93508769Y-83348769D01*
X93491899Y-83360041D01*
X93472000Y-83363999D01*
X93459688Y-83366448D01*
X91960312Y-83366448D01*
X91928101Y-83360041D01*
X91911231Y-83348769D01*
X91899959Y-83331899D01*
X91893552Y-83299688D01*
X91893552Y-81800312D01*
X91899959Y-81768101D01*
X91911231Y-81751231D01*
X91928101Y-81739959D01*
X91960312Y-81733552D01*
X93459688Y-81733552D01*
X93491899Y-81739959D01*
G37*
G36*
X84234899Y-77421959D02*
G01*
X84251769Y-77433231D01*
X84263041Y-77450101D01*
X84269448Y-77482312D01*
X84269448Y-81267688D01*
X84266999Y-81280000D01*
X84263041Y-81299899D01*
X84251769Y-81316769D01*
X84234899Y-81328041D01*
X84215000Y-81331999D01*
X84202688Y-81334448D01*
X80897312Y-81334448D01*
X80865101Y-81328041D01*
X80848231Y-81316769D01*
X80836959Y-81299899D01*
X80830552Y-81267688D01*
X80830552Y-80252947D01*
X80810709Y-80185367D01*
X80757479Y-80139244D01*
X80705553Y-80127948D01*
X80212812Y-80127948D01*
X80180601Y-80121541D01*
X80163731Y-80110269D01*
X80152459Y-80093399D01*
X80146052Y-80061188D01*
X80146052Y-78688812D01*
X80152459Y-78656601D01*
X80163731Y-78639731D01*
X80180601Y-78628459D01*
X80212812Y-78622052D01*
X80705553Y-78622052D01*
X80773133Y-78602209D01*
X80819256Y-78548979D01*
X80830552Y-78497053D01*
X80830552Y-77482312D01*
X80836959Y-77450101D01*
X80848231Y-77433231D01*
X80865101Y-77421959D01*
X80897312Y-77415552D01*
X84202688Y-77415552D01*
X84234899Y-77421959D01*
G37*
G36*
X78414899Y-77421959D02*
G01*
X78431769Y-77433231D01*
X78443041Y-77450101D01*
X78449448Y-77482312D01*
X78449448Y-78497053D01*
X78469291Y-78564633D01*
X78522521Y-78610756D01*
X78574447Y-78622052D01*
X79172188Y-78622052D01*
X79204399Y-78628459D01*
X79221269Y-78639731D01*
X79232541Y-78656601D01*
X79238948Y-78688812D01*
X79238948Y-80061188D01*
X79236499Y-80073500D01*
X79232541Y-80093399D01*
X79221269Y-80110269D01*
X79204399Y-80121541D01*
X79184500Y-80125499D01*
X79172188Y-80127948D01*
X78574447Y-80127948D01*
X78506867Y-80147791D01*
X78460744Y-80201021D01*
X78449448Y-80252947D01*
X78449448Y-81267688D01*
X78446999Y-81280000D01*
X78443041Y-81299899D01*
X78431769Y-81316769D01*
X78414899Y-81328041D01*
X78395000Y-81331999D01*
X78382688Y-81334448D01*
X75077312Y-81334448D01*
X75045101Y-81328041D01*
X75028231Y-81316769D01*
X75016959Y-81299899D01*
X75010552Y-81267688D01*
X75010552Y-77482312D01*
X75016959Y-77450101D01*
X75028231Y-77433231D01*
X75045101Y-77421959D01*
X75077312Y-77415552D01*
X78382688Y-77415552D01*
X78414899Y-77421959D01*
G37*
G36*
X87713399Y-78882459D02*
G01*
X87730269Y-78893731D01*
X87741541Y-78910601D01*
X87747948Y-78942812D01*
X87747948Y-79807188D01*
X87745499Y-79819500D01*
X87741541Y-79839399D01*
X87730269Y-79856269D01*
X87713399Y-79867541D01*
X87693500Y-79871499D01*
X87681188Y-79873948D01*
X86308812Y-79873948D01*
X86276601Y-79867541D01*
X86259731Y-79856269D01*
X86248459Y-79839399D01*
X86242052Y-79807188D01*
X86242052Y-78942812D01*
X86248459Y-78910601D01*
X86259731Y-78893731D01*
X86276601Y-78882459D01*
X86308812Y-78876052D01*
X87681188Y-78876052D01*
X87713399Y-78882459D01*
G37*
G36*
X90888399Y-78882459D02*
G01*
X90905269Y-78893731D01*
X90916541Y-78910601D01*
X90922948Y-78942812D01*
X90922948Y-79807188D01*
X90920499Y-79819500D01*
X90916541Y-79839399D01*
X90905269Y-79856269D01*
X90888399Y-79867541D01*
X90868500Y-79871499D01*
X90856188Y-79873948D01*
X89483812Y-79873948D01*
X89451601Y-79867541D01*
X89434731Y-79856269D01*
X89423459Y-79839399D01*
X89417052Y-79807188D01*
X89417052Y-78942812D01*
X89423459Y-78910601D01*
X89434731Y-78893731D01*
X89451601Y-78882459D01*
X89483812Y-78876052D01*
X90856188Y-78876052D01*
X90888399Y-78882459D01*
G37*
G36*
X106289899Y-74621959D02*
G01*
X106306769Y-74633231D01*
X106318041Y-74650101D01*
X106324448Y-74682312D01*
X106324448Y-78157688D01*
X106321999Y-78170000D01*
X106318041Y-78189899D01*
X106306769Y-78206769D01*
X106289899Y-78218041D01*
X106270000Y-78221999D01*
X106257688Y-78224448D01*
X104282312Y-78224448D01*
X104250101Y-78218041D01*
X104233231Y-78206769D01*
X104221959Y-78189899D01*
X104215552Y-78157688D01*
X104215552Y-74682312D01*
X104221959Y-74650101D01*
X104233231Y-74633231D01*
X104250101Y-74621959D01*
X104282312Y-74615552D01*
X106257688Y-74615552D01*
X106289899Y-74621959D01*
G37*
G36*
X101709899Y-74621959D02*
G01*
X101726769Y-74633231D01*
X101738041Y-74650101D01*
X101744448Y-74682312D01*
X101744448Y-78157688D01*
X101741999Y-78170000D01*
X101738041Y-78189899D01*
X101726769Y-78206769D01*
X101709899Y-78218041D01*
X101690000Y-78221999D01*
X101677688Y-78224448D01*
X99702312Y-78224448D01*
X99670101Y-78218041D01*
X99653231Y-78206769D01*
X99641959Y-78189899D01*
X99635552Y-78157688D01*
X99635552Y-74682312D01*
X99641959Y-74650101D01*
X99653231Y-74633231D01*
X99670101Y-74621959D01*
X99702312Y-74615552D01*
X101677688Y-74615552D01*
X101709899Y-74621959D01*
G37*
G36*
X90888399Y-76977459D02*
G01*
X90905269Y-76988731D01*
X90916541Y-77005601D01*
X90922948Y-77037812D01*
X90922948Y-77902188D01*
X90920499Y-77914500D01*
X90916541Y-77934399D01*
X90905269Y-77951269D01*
X90888399Y-77962541D01*
X90868500Y-77966499D01*
X90856188Y-77968948D01*
X89483812Y-77968948D01*
X89451601Y-77962541D01*
X89434731Y-77951269D01*
X89423459Y-77934399D01*
X89417052Y-77902188D01*
X89417052Y-77037812D01*
X89423459Y-77005601D01*
X89434731Y-76988731D01*
X89451601Y-76977459D01*
X89483812Y-76971052D01*
X90856188Y-76971052D01*
X90888399Y-76977459D01*
G37*
G36*
X87713399Y-76977459D02*
G01*
X87730269Y-76988731D01*
X87741541Y-77005601D01*
X87747948Y-77037812D01*
X87747948Y-77902188D01*
X87745499Y-77914500D01*
X87741541Y-77934399D01*
X87730269Y-77951269D01*
X87713399Y-77962541D01*
X87693500Y-77966499D01*
X87681188Y-77968948D01*
X86308812Y-77968948D01*
X86276601Y-77962541D01*
X86259731Y-77951269D01*
X86248459Y-77934399D01*
X86242052Y-77902188D01*
X86242052Y-77037812D01*
X86248459Y-77005601D01*
X86259731Y-76988731D01*
X86276601Y-76977459D01*
X86308812Y-76971052D01*
X87681188Y-76971052D01*
X87713399Y-76977459D01*
G37*
G36*
X111894899Y-71721959D02*
G01*
X111911769Y-71733231D01*
X111923041Y-71750101D01*
X111929448Y-71782312D01*
X111929448Y-72807688D01*
X111923041Y-72839899D01*
X111911769Y-72856769D01*
X111889894Y-72871385D01*
X111834730Y-72900243D01*
X111799879Y-72961448D01*
X111803650Y-73031780D01*
X111850190Y-73092835D01*
X111894997Y-73123977D01*
X111965300Y-73167651D01*
X111992420Y-73191687D01*
X112017149Y-73208874D01*
X112076713Y-73266394D01*
X112143233Y-73325350D01*
X112162079Y-73348832D01*
X112179327Y-73365488D01*
X112232597Y-73436696D01*
X112292051Y-73510774D01*
X112303689Y-73531726D01*
X112314376Y-73546012D01*
X112358429Y-73630277D01*
X112407500Y-73718622D01*
X112413405Y-73735436D01*
X112418823Y-73745800D01*
X112450765Y-73841820D01*
X112486279Y-73942949D01*
X112488238Y-73954468D01*
X112489988Y-73959730D01*
X112507172Y-74065827D01*
X112526134Y-74177344D01*
X112523362Y-74441974D01*
X112502096Y-74552929D01*
X112482668Y-74658785D01*
X112480804Y-74664020D01*
X112478607Y-74675482D01*
X112441015Y-74775760D01*
X112407040Y-74871172D01*
X112401403Y-74881425D01*
X112395148Y-74898111D01*
X112344233Y-74985417D01*
X112298428Y-75068735D01*
X112287446Y-75082791D01*
X112275372Y-75103495D01*
X112214378Y-75176315D01*
X112159630Y-75246388D01*
X112142038Y-75262678D01*
X112122703Y-75285762D01*
X112054965Y-75343310D01*
X111994208Y-75399571D01*
X111969120Y-75416239D01*
X111941506Y-75439699D01*
X111870311Y-75481888D01*
X111850181Y-75495262D01*
X111804873Y-75549187D01*
X111795913Y-75619048D01*
X111826144Y-75682662D01*
X111894636Y-75721783D01*
X111911769Y-75733231D01*
X111923041Y-75750101D01*
X111929448Y-75782312D01*
X111929448Y-76807688D01*
X111926999Y-76820000D01*
X111923041Y-76839899D01*
X111911769Y-76856769D01*
X111894899Y-76868041D01*
X111875000Y-76871999D01*
X111862688Y-76874448D01*
X110387312Y-76874448D01*
X110355101Y-76868041D01*
X110338231Y-76856769D01*
X110326959Y-76839899D01*
X110320552Y-76807688D01*
X110320552Y-75782312D01*
X110326959Y-75750101D01*
X110338231Y-75733231D01*
X110355101Y-75721959D01*
X110356672Y-75721647D01*
X110419081Y-75689000D01*
X110453933Y-75627795D01*
X110450162Y-75557464D01*
X110401125Y-75497586D01*
X110371593Y-75482180D01*
X110339819Y-75458018D01*
X110310787Y-75440712D01*
X110250161Y-75389841D01*
X110182337Y-75338266D01*
X110159275Y-75313578D01*
X110138083Y-75295796D01*
X110082378Y-75231261D01*
X110020034Y-75164522D01*
X110004830Y-75141419D01*
X109990769Y-75125130D01*
X109942889Y-75047303D01*
X109889326Y-74965916D01*
X109880698Y-74946214D01*
X109872635Y-74933108D01*
X109835454Y-74842901D01*
X109793950Y-74748127D01*
X109790247Y-74733221D01*
X109786724Y-74724673D01*
X109763028Y-74623643D01*
X109736632Y-74517381D01*
X109735949Y-74508191D01*
X109735243Y-74505181D01*
X109727554Y-74395219D01*
X109719012Y-74280276D01*
X109729980Y-74165318D01*
X109739951Y-74055758D01*
X109740718Y-74052769D01*
X109741594Y-74043592D01*
X109770231Y-73937825D01*
X109796018Y-73837391D01*
X109799716Y-73828928D01*
X109803731Y-73814097D01*
X109847214Y-73720206D01*
X109886273Y-73630804D01*
X109894611Y-73617866D01*
X109903648Y-73598353D01*
X109958893Y-73518120D01*
X110008403Y-73441297D01*
X110022804Y-73425303D01*
X110038486Y-73402528D01*
X110102201Y-73337123D01*
X110159258Y-73273754D01*
X110180822Y-73256416D01*
X110204392Y-73232221D01*
X110273275Y-73182083D01*
X110334957Y-73132489D01*
X110364346Y-73115794D01*
X110396620Y-73092302D01*
X110403154Y-73089066D01*
X110442068Y-73048820D01*
X110455880Y-72979755D01*
X110430160Y-72914187D01*
X110355757Y-72868171D01*
X110355101Y-72868041D01*
X110338231Y-72856769D01*
X110326959Y-72839899D01*
X110323001Y-72820000D01*
X110320552Y-72807688D01*
X110320552Y-71782312D01*
X110326959Y-71750101D01*
X110338231Y-71733231D01*
X110355101Y-71721959D01*
X110387312Y-71715552D01*
X111862688Y-71715552D01*
X111894899Y-71721959D01*
G37*
G36*
X78199899Y-72261959D02*
G01*
X78216769Y-72273231D01*
X78228041Y-72290101D01*
X78234448Y-72322312D01*
X78234448Y-76107688D01*
X78231999Y-76120000D01*
X78228041Y-76139899D01*
X78216769Y-76156769D01*
X78199899Y-76168041D01*
X78180000Y-76171999D01*
X78167688Y-76174448D01*
X74382312Y-76174448D01*
X74350101Y-76168041D01*
X74333231Y-76156769D01*
X74321959Y-76139899D01*
X74315552Y-76107688D01*
X74315552Y-72322312D01*
X74321959Y-72290101D01*
X74333231Y-72273231D01*
X74350101Y-72261959D01*
X74382312Y-72255552D01*
X78167688Y-72255552D01*
X78199899Y-72261959D01*
G37*
G36*
X86189399Y-71516459D02*
G01*
X86206269Y-71527731D01*
X86217541Y-71544601D01*
X86223948Y-71576812D01*
X86223948Y-72949188D01*
X86221499Y-72961500D01*
X86217541Y-72981399D01*
X86206269Y-72998269D01*
X86189399Y-73009541D01*
X86169500Y-73013499D01*
X86157188Y-73015948D01*
X85292812Y-73015948D01*
X85260601Y-73009541D01*
X85243731Y-72998269D01*
X85232459Y-72981399D01*
X85226052Y-72949188D01*
X85226052Y-71576812D01*
X85232459Y-71544601D01*
X85243731Y-71527731D01*
X85260601Y-71516459D01*
X85292812Y-71510052D01*
X86157188Y-71510052D01*
X86189399Y-71516459D01*
G37*
G36*
X88094399Y-71516459D02*
G01*
X88111269Y-71527731D01*
X88122541Y-71544601D01*
X88128948Y-71576812D01*
X88128948Y-72949188D01*
X88126499Y-72961500D01*
X88122541Y-72981399D01*
X88111269Y-72998269D01*
X88094399Y-73009541D01*
X88074500Y-73013499D01*
X88062188Y-73015948D01*
X87197812Y-73015948D01*
X87165601Y-73009541D01*
X87148731Y-72998269D01*
X87137459Y-72981399D01*
X87131052Y-72949188D01*
X87131052Y-71576812D01*
X87137459Y-71544601D01*
X87148731Y-71527731D01*
X87165601Y-71516459D01*
X87197812Y-71510052D01*
X88062188Y-71510052D01*
X88094399Y-71516459D01*
G37*
G36*
X103651899Y-70309959D02*
G01*
X103668769Y-70321231D01*
X103680041Y-70338101D01*
X103686448Y-70370312D01*
X103686448Y-71869688D01*
X103683999Y-71882000D01*
X103680041Y-71901899D01*
X103668769Y-71918769D01*
X103651899Y-71930041D01*
X103632000Y-71933999D01*
X103619688Y-71936448D01*
X102120312Y-71936448D01*
X102088101Y-71930041D01*
X102071231Y-71918769D01*
X102059959Y-71901899D01*
X102053552Y-71869688D01*
X102053552Y-70370312D01*
X102059959Y-70338101D01*
X102071231Y-70321231D01*
X102088101Y-70309959D01*
X102120312Y-70303552D01*
X103619688Y-70303552D01*
X103651899Y-70309959D01*
G37*
G36*
X106191899Y-70309959D02*
G01*
X106208769Y-70321231D01*
X106220041Y-70338101D01*
X106226448Y-70370312D01*
X106226448Y-71869688D01*
X106223999Y-71882000D01*
X106220041Y-71901899D01*
X106208769Y-71918769D01*
X106191899Y-71930041D01*
X106172000Y-71933999D01*
X106159688Y-71936448D01*
X104660312Y-71936448D01*
X104628101Y-71930041D01*
X104611231Y-71918769D01*
X104599959Y-71901899D01*
X104593552Y-71869688D01*
X104593552Y-70370312D01*
X104599959Y-70338101D01*
X104611231Y-70321231D01*
X104628101Y-70309959D01*
X104660312Y-70303552D01*
X106159688Y-70303552D01*
X106191899Y-70309959D01*
G37*
G36*
X75099899Y-67261959D02*
G01*
X75116769Y-67273231D01*
X75128041Y-67290101D01*
X75134448Y-67322312D01*
X75134448Y-71107688D01*
X75131999Y-71120000D01*
X75128041Y-71139899D01*
X75116769Y-71156769D01*
X75099899Y-71168041D01*
X75080000Y-71171999D01*
X75067688Y-71174448D01*
X71282312Y-71174448D01*
X71250101Y-71168041D01*
X71233231Y-71156769D01*
X71221959Y-71139899D01*
X71215552Y-71107688D01*
X71215552Y-67322312D01*
X71221959Y-67290101D01*
X71233231Y-67273231D01*
X71250101Y-67261959D01*
X71282312Y-67255552D01*
X75067688Y-67255552D01*
X75099899Y-67261959D01*
G37*
G36*
X81299899Y-67261959D02*
G01*
X81316769Y-67273231D01*
X81328041Y-67290101D01*
X81334448Y-67322312D01*
X81334448Y-71107688D01*
X81331999Y-71120000D01*
X81328041Y-71139899D01*
X81316769Y-71156769D01*
X81299899Y-71168041D01*
X81280000Y-71171999D01*
X81267688Y-71174448D01*
X77482312Y-71174448D01*
X77450101Y-71168041D01*
X77433231Y-71156769D01*
X77421959Y-71139899D01*
X77415552Y-71107688D01*
X77415552Y-67322312D01*
X77421959Y-67290101D01*
X77433231Y-67273231D01*
X77450101Y-67261959D01*
X77482312Y-67255552D01*
X81267688Y-67255552D01*
X81299899Y-67261959D01*
G37*
G36*
X99143399Y-69992459D02*
G01*
X99160269Y-70003731D01*
X99171541Y-70020601D01*
X99177948Y-70052812D01*
X99177948Y-70917188D01*
X99175499Y-70929500D01*
X99171541Y-70949399D01*
X99160269Y-70966269D01*
X99143399Y-70977541D01*
X99123500Y-70981499D01*
X99111188Y-70983948D01*
X97738812Y-70983948D01*
X97706601Y-70977541D01*
X97689731Y-70966269D01*
X97678459Y-70949399D01*
X97672052Y-70917188D01*
X97672052Y-70052812D01*
X97678459Y-70020601D01*
X97689731Y-70003731D01*
X97706601Y-69992459D01*
X97738812Y-69986052D01*
X99111188Y-69986052D01*
X99143399Y-69992459D01*
G37*
G36*
X111271899Y-69103459D02*
G01*
X111288769Y-69114731D01*
X111300041Y-69131601D01*
X111306448Y-69163812D01*
X111306448Y-70536188D01*
X111303999Y-70548500D01*
X111300041Y-70568399D01*
X111288769Y-70585269D01*
X111271899Y-70596541D01*
X111252000Y-70600499D01*
X111239688Y-70602948D01*
X110375312Y-70602948D01*
X110343101Y-70596541D01*
X110326231Y-70585269D01*
X110314959Y-70568399D01*
X110308552Y-70536188D01*
X110308552Y-69163812D01*
X110314959Y-69131601D01*
X110326231Y-69114731D01*
X110343101Y-69103459D01*
X110375312Y-69097052D01*
X111239688Y-69097052D01*
X111271899Y-69103459D01*
G37*
G36*
X109366899Y-69103459D02*
G01*
X109383769Y-69114731D01*
X109395041Y-69131601D01*
X109401448Y-69163812D01*
X109401448Y-70536188D01*
X109398999Y-70548500D01*
X109395041Y-70568399D01*
X109383769Y-70585269D01*
X109366899Y-70596541D01*
X109347000Y-70600499D01*
X109334688Y-70602948D01*
X108470312Y-70602948D01*
X108438101Y-70596541D01*
X108421231Y-70585269D01*
X108409959Y-70568399D01*
X108403552Y-70536188D01*
X108403552Y-69163812D01*
X108409959Y-69131601D01*
X108421231Y-69114731D01*
X108438101Y-69103459D01*
X108470312Y-69097052D01*
X109334688Y-69097052D01*
X109366899Y-69103459D01*
G37*
G36*
X94126483Y-67488001D02*
G01*
X94127061Y-67488001D01*
X94131575Y-67488899D01*
X94197492Y-67500522D01*
X94201426Y-67502793D01*
X94205487Y-67503601D01*
X94222405Y-67514905D01*
X94258879Y-67535963D01*
X94265207Y-67543504D01*
X94271974Y-67548026D01*
X94283598Y-67565422D01*
X94300797Y-67585920D01*
X94303142Y-67594673D01*
X94316399Y-67614513D01*
X94331999Y-67692939D01*
X94331999Y-67702367D01*
X94333715Y-67708771D01*
X94333715Y-69326751D01*
X94331999Y-69336483D01*
X94331999Y-69337061D01*
X94331101Y-69341575D01*
X94319478Y-69407492D01*
X94317207Y-69411426D01*
X94316399Y-69415487D01*
X94305095Y-69432405D01*
X94284037Y-69468879D01*
X94276496Y-69475207D01*
X94271974Y-69481974D01*
X94254578Y-69493598D01*
X94234080Y-69510797D01*
X94225327Y-69513142D01*
X94205487Y-69526399D01*
X94127061Y-69541999D01*
X94117633Y-69541999D01*
X94111229Y-69543715D01*
X93843249Y-69543715D01*
X93833517Y-69541999D01*
X93832939Y-69541999D01*
X93828425Y-69541101D01*
X93762508Y-69529478D01*
X93758574Y-69527207D01*
X93754513Y-69526399D01*
X93737595Y-69515095D01*
X93701121Y-69494037D01*
X93694793Y-69486496D01*
X93688026Y-69481974D01*
X93676402Y-69464578D01*
X93659203Y-69444080D01*
X93656858Y-69435327D01*
X93643601Y-69415487D01*
X93628001Y-69337061D01*
X93628001Y-69327633D01*
X93626285Y-69321229D01*
X93626285Y-67703249D01*
X93628001Y-67693517D01*
X93628001Y-67692939D01*
X93628899Y-67688425D01*
X93640522Y-67622508D01*
X93642793Y-67618574D01*
X93643601Y-67614513D01*
X93654905Y-67597595D01*
X93675963Y-67561121D01*
X93683504Y-67554793D01*
X93688026Y-67548026D01*
X93705422Y-67536402D01*
X93725920Y-67519203D01*
X93734673Y-67516858D01*
X93754513Y-67503601D01*
X93832939Y-67488001D01*
X93842367Y-67488001D01*
X93848771Y-67486285D01*
X94116751Y-67486285D01*
X94126483Y-67488001D01*
G37*
G36*
X95396483Y-67488001D02*
G01*
X95397061Y-67488001D01*
X95401575Y-67488899D01*
X95467492Y-67500522D01*
X95471426Y-67502793D01*
X95475487Y-67503601D01*
X95492405Y-67514905D01*
X95528879Y-67535963D01*
X95535207Y-67543504D01*
X95541974Y-67548026D01*
X95553598Y-67565422D01*
X95570797Y-67585920D01*
X95573142Y-67594673D01*
X95586399Y-67614513D01*
X95601999Y-67692939D01*
X95601999Y-67702367D01*
X95603715Y-67708771D01*
X95603715Y-69326751D01*
X95601999Y-69336483D01*
X95601999Y-69337061D01*
X95601101Y-69341575D01*
X95589478Y-69407492D01*
X95587207Y-69411426D01*
X95586399Y-69415487D01*
X95575095Y-69432405D01*
X95554037Y-69468879D01*
X95546496Y-69475207D01*
X95541974Y-69481974D01*
X95524578Y-69493598D01*
X95504080Y-69510797D01*
X95495327Y-69513142D01*
X95475487Y-69526399D01*
X95397061Y-69541999D01*
X95387633Y-69541999D01*
X95381229Y-69543715D01*
X95113249Y-69543715D01*
X95103517Y-69541999D01*
X95102939Y-69541999D01*
X95098425Y-69541101D01*
X95032508Y-69529478D01*
X95028574Y-69527207D01*
X95024513Y-69526399D01*
X95007595Y-69515095D01*
X94971121Y-69494037D01*
X94964793Y-69486496D01*
X94958026Y-69481974D01*
X94946402Y-69464578D01*
X94929203Y-69444080D01*
X94926858Y-69435327D01*
X94913601Y-69415487D01*
X94898001Y-69337061D01*
X94898001Y-69327633D01*
X94896285Y-69321229D01*
X94896285Y-67703249D01*
X94898001Y-67693517D01*
X94898001Y-67692939D01*
X94898899Y-67688425D01*
X94910522Y-67622508D01*
X94912793Y-67618574D01*
X94913601Y-67614513D01*
X94924905Y-67597595D01*
X94945963Y-67561121D01*
X94953504Y-67554793D01*
X94958026Y-67548026D01*
X94975422Y-67536402D01*
X94995920Y-67519203D01*
X95004673Y-67516858D01*
X95024513Y-67503601D01*
X95102939Y-67488001D01*
X95112367Y-67488001D01*
X95118771Y-67486285D01*
X95386751Y-67486285D01*
X95396483Y-67488001D01*
G37*
G36*
X92856483Y-67488001D02*
G01*
X92857061Y-67488001D01*
X92861575Y-67488899D01*
X92927492Y-67500522D01*
X92931426Y-67502793D01*
X92935487Y-67503601D01*
X92952405Y-67514905D01*
X92988879Y-67535963D01*
X92995207Y-67543504D01*
X93001974Y-67548026D01*
X93013598Y-67565422D01*
X93030797Y-67585920D01*
X93033142Y-67594673D01*
X93046399Y-67614513D01*
X93061999Y-67692939D01*
X93061999Y-67702367D01*
X93063715Y-67708771D01*
X93063715Y-69326751D01*
X93061999Y-69336483D01*
X93061999Y-69337061D01*
X93061101Y-69341575D01*
X93049478Y-69407492D01*
X93047207Y-69411426D01*
X93046399Y-69415487D01*
X93035095Y-69432405D01*
X93014037Y-69468879D01*
X93006496Y-69475207D01*
X93001974Y-69481974D01*
X92984578Y-69493598D01*
X92964080Y-69510797D01*
X92955327Y-69513142D01*
X92935487Y-69526399D01*
X92857061Y-69541999D01*
X92847633Y-69541999D01*
X92841229Y-69543715D01*
X92573249Y-69543715D01*
X92563517Y-69541999D01*
X92562939Y-69541999D01*
X92558425Y-69541101D01*
X92492508Y-69529478D01*
X92488574Y-69527207D01*
X92484513Y-69526399D01*
X92467595Y-69515095D01*
X92431121Y-69494037D01*
X92424793Y-69486496D01*
X92418026Y-69481974D01*
X92406402Y-69464578D01*
X92389203Y-69444080D01*
X92386858Y-69435327D01*
X92373601Y-69415487D01*
X92358001Y-69337061D01*
X92358001Y-69327633D01*
X92356285Y-69321229D01*
X92356285Y-67703249D01*
X92358001Y-67693517D01*
X92358001Y-67692939D01*
X92358899Y-67688425D01*
X92370522Y-67622508D01*
X92372793Y-67618574D01*
X92373601Y-67614513D01*
X92384905Y-67597595D01*
X92405963Y-67561121D01*
X92413504Y-67554793D01*
X92418026Y-67548026D01*
X92435422Y-67536402D01*
X92455920Y-67519203D01*
X92464673Y-67516858D01*
X92484513Y-67503601D01*
X92562939Y-67488001D01*
X92572367Y-67488001D01*
X92578771Y-67486285D01*
X92846751Y-67486285D01*
X92856483Y-67488001D01*
G37*
G36*
X91586483Y-67488001D02*
G01*
X91587061Y-67488001D01*
X91591575Y-67488899D01*
X91657492Y-67500522D01*
X91661426Y-67502793D01*
X91665487Y-67503601D01*
X91682405Y-67514905D01*
X91718879Y-67535963D01*
X91725207Y-67543504D01*
X91731974Y-67548026D01*
X91743598Y-67565422D01*
X91760797Y-67585920D01*
X91763142Y-67594673D01*
X91776399Y-67614513D01*
X91791999Y-67692939D01*
X91791999Y-67702367D01*
X91793715Y-67708771D01*
X91793715Y-69326751D01*
X91791999Y-69336483D01*
X91791999Y-69337061D01*
X91791101Y-69341575D01*
X91779478Y-69407492D01*
X91777207Y-69411426D01*
X91776399Y-69415487D01*
X91765095Y-69432405D01*
X91744037Y-69468879D01*
X91736496Y-69475207D01*
X91731974Y-69481974D01*
X91714578Y-69493598D01*
X91694080Y-69510797D01*
X91685327Y-69513142D01*
X91665487Y-69526399D01*
X91587061Y-69541999D01*
X91577633Y-69541999D01*
X91571229Y-69543715D01*
X91303249Y-69543715D01*
X91293517Y-69541999D01*
X91292939Y-69541999D01*
X91288425Y-69541101D01*
X91222508Y-69529478D01*
X91218574Y-69527207D01*
X91214513Y-69526399D01*
X91197595Y-69515095D01*
X91161121Y-69494037D01*
X91154793Y-69486496D01*
X91148026Y-69481974D01*
X91136402Y-69464578D01*
X91119203Y-69444080D01*
X91116858Y-69435327D01*
X91103601Y-69415487D01*
X91088001Y-69337061D01*
X91088001Y-69327633D01*
X91086285Y-69321229D01*
X91086285Y-67703249D01*
X91088001Y-67693517D01*
X91088001Y-67692939D01*
X91088899Y-67688425D01*
X91100522Y-67622508D01*
X91102793Y-67618574D01*
X91103601Y-67614513D01*
X91114905Y-67597595D01*
X91135963Y-67561121D01*
X91143504Y-67554793D01*
X91148026Y-67548026D01*
X91165422Y-67536402D01*
X91185920Y-67519203D01*
X91194673Y-67516858D01*
X91214513Y-67503601D01*
X91292939Y-67488001D01*
X91302367Y-67488001D01*
X91308771Y-67486285D01*
X91576751Y-67486285D01*
X91586483Y-67488001D01*
G37*
G36*
X90316483Y-67488001D02*
G01*
X90317061Y-67488001D01*
X90321575Y-67488899D01*
X90387492Y-67500522D01*
X90391426Y-67502793D01*
X90395487Y-67503601D01*
X90412405Y-67514905D01*
X90448879Y-67535963D01*
X90455207Y-67543504D01*
X90461974Y-67548026D01*
X90473598Y-67565422D01*
X90490797Y-67585920D01*
X90493142Y-67594673D01*
X90506399Y-67614513D01*
X90521999Y-67692939D01*
X90521999Y-67702367D01*
X90523715Y-67708771D01*
X90523715Y-69326751D01*
X90521999Y-69336483D01*
X90521999Y-69337061D01*
X90521101Y-69341575D01*
X90509478Y-69407492D01*
X90507207Y-69411426D01*
X90506399Y-69415487D01*
X90495095Y-69432405D01*
X90474037Y-69468879D01*
X90466496Y-69475207D01*
X90461974Y-69481974D01*
X90444578Y-69493598D01*
X90424080Y-69510797D01*
X90415327Y-69513142D01*
X90395487Y-69526399D01*
X90317061Y-69541999D01*
X90307633Y-69541999D01*
X90301229Y-69543715D01*
X90033249Y-69543715D01*
X90023517Y-69541999D01*
X90022939Y-69541999D01*
X90018425Y-69541101D01*
X89952508Y-69529478D01*
X89948574Y-69527207D01*
X89944513Y-69526399D01*
X89927595Y-69515095D01*
X89891121Y-69494037D01*
X89884793Y-69486496D01*
X89878026Y-69481974D01*
X89866402Y-69464578D01*
X89849203Y-69444080D01*
X89846858Y-69435327D01*
X89833601Y-69415487D01*
X89818001Y-69337061D01*
X89818001Y-69327633D01*
X89816285Y-69321229D01*
X89816285Y-67703249D01*
X89818001Y-67693517D01*
X89818001Y-67692939D01*
X89818899Y-67688425D01*
X89830522Y-67622508D01*
X89832793Y-67618574D01*
X89833601Y-67614513D01*
X89844905Y-67597595D01*
X89865963Y-67561121D01*
X89873504Y-67554793D01*
X89878026Y-67548026D01*
X89895422Y-67536402D01*
X89915920Y-67519203D01*
X89924673Y-67516858D01*
X89944513Y-67503601D01*
X90022939Y-67488001D01*
X90032367Y-67488001D01*
X90038771Y-67486285D01*
X90306751Y-67486285D01*
X90316483Y-67488001D01*
G37*
G36*
X89046483Y-67488001D02*
G01*
X89047061Y-67488001D01*
X89051575Y-67488899D01*
X89117492Y-67500522D01*
X89121426Y-67502793D01*
X89125487Y-67503601D01*
X89142405Y-67514905D01*
X89178879Y-67535963D01*
X89185207Y-67543504D01*
X89191974Y-67548026D01*
X89203598Y-67565422D01*
X89220797Y-67585920D01*
X89223142Y-67594673D01*
X89236399Y-67614513D01*
X89251999Y-67692939D01*
X89251999Y-67702367D01*
X89253715Y-67708771D01*
X89253715Y-69326751D01*
X89251999Y-69336483D01*
X89251999Y-69337061D01*
X89251101Y-69341575D01*
X89239478Y-69407492D01*
X89237207Y-69411426D01*
X89236399Y-69415487D01*
X89225095Y-69432405D01*
X89204037Y-69468879D01*
X89196496Y-69475207D01*
X89191974Y-69481974D01*
X89174578Y-69493598D01*
X89154080Y-69510797D01*
X89145327Y-69513142D01*
X89125487Y-69526399D01*
X89047061Y-69541999D01*
X89037633Y-69541999D01*
X89031229Y-69543715D01*
X88763249Y-69543715D01*
X88753517Y-69541999D01*
X88752939Y-69541999D01*
X88748425Y-69541101D01*
X88682508Y-69529478D01*
X88678574Y-69527207D01*
X88674513Y-69526399D01*
X88657595Y-69515095D01*
X88621121Y-69494037D01*
X88614793Y-69486496D01*
X88608026Y-69481974D01*
X88596402Y-69464578D01*
X88579203Y-69444080D01*
X88576858Y-69435327D01*
X88563601Y-69415487D01*
X88548001Y-69337061D01*
X88548001Y-69327633D01*
X88546285Y-69321229D01*
X88546285Y-67703249D01*
X88548001Y-67693517D01*
X88548001Y-67692939D01*
X88548899Y-67688425D01*
X88560522Y-67622508D01*
X88562793Y-67618574D01*
X88563601Y-67614513D01*
X88574905Y-67597595D01*
X88595963Y-67561121D01*
X88603504Y-67554793D01*
X88608026Y-67548026D01*
X88625422Y-67536402D01*
X88645920Y-67519203D01*
X88654673Y-67516858D01*
X88674513Y-67503601D01*
X88752939Y-67488001D01*
X88762367Y-67488001D01*
X88768771Y-67486285D01*
X89036751Y-67486285D01*
X89046483Y-67488001D01*
G37*
G36*
X87776483Y-67488001D02*
G01*
X87777061Y-67488001D01*
X87781575Y-67488899D01*
X87847492Y-67500522D01*
X87851426Y-67502793D01*
X87855487Y-67503601D01*
X87872405Y-67514905D01*
X87908879Y-67535963D01*
X87915207Y-67543504D01*
X87921974Y-67548026D01*
X87933598Y-67565422D01*
X87950797Y-67585920D01*
X87953142Y-67594673D01*
X87966399Y-67614513D01*
X87981999Y-67692939D01*
X87981999Y-67702367D01*
X87983715Y-67708771D01*
X87983715Y-69326751D01*
X87981999Y-69336483D01*
X87981999Y-69337061D01*
X87981101Y-69341575D01*
X87969478Y-69407492D01*
X87967207Y-69411426D01*
X87966399Y-69415487D01*
X87955095Y-69432405D01*
X87934037Y-69468879D01*
X87926496Y-69475207D01*
X87921974Y-69481974D01*
X87904578Y-69493598D01*
X87884080Y-69510797D01*
X87875327Y-69513142D01*
X87855487Y-69526399D01*
X87777061Y-69541999D01*
X87767633Y-69541999D01*
X87761229Y-69543715D01*
X87493249Y-69543715D01*
X87483517Y-69541999D01*
X87482939Y-69541999D01*
X87478425Y-69541101D01*
X87412508Y-69529478D01*
X87408574Y-69527207D01*
X87404513Y-69526399D01*
X87387595Y-69515095D01*
X87351121Y-69494037D01*
X87344793Y-69486496D01*
X87338026Y-69481974D01*
X87326402Y-69464578D01*
X87309203Y-69444080D01*
X87306858Y-69435327D01*
X87293601Y-69415487D01*
X87278001Y-69337061D01*
X87278001Y-69327633D01*
X87276285Y-69321229D01*
X87276285Y-67703249D01*
X87278001Y-67693517D01*
X87278001Y-67692939D01*
X87278899Y-67688425D01*
X87290522Y-67622508D01*
X87292793Y-67618574D01*
X87293601Y-67614513D01*
X87304905Y-67597595D01*
X87325963Y-67561121D01*
X87333504Y-67554793D01*
X87338026Y-67548026D01*
X87355422Y-67536402D01*
X87375920Y-67519203D01*
X87384673Y-67516858D01*
X87404513Y-67503601D01*
X87482939Y-67488001D01*
X87492367Y-67488001D01*
X87498771Y-67486285D01*
X87766751Y-67486285D01*
X87776483Y-67488001D01*
G37*
G36*
X99143399Y-68087459D02*
G01*
X99160269Y-68098731D01*
X99171541Y-68115601D01*
X99177948Y-68147812D01*
X99177948Y-69012188D01*
X99175499Y-69024500D01*
X99171541Y-69044399D01*
X99160269Y-69061269D01*
X99143399Y-69072541D01*
X99123500Y-69076499D01*
X99111188Y-69078948D01*
X97738812Y-69078948D01*
X97706601Y-69072541D01*
X97689731Y-69061269D01*
X97678459Y-69044399D01*
X97672052Y-69012188D01*
X97672052Y-68147812D01*
X97678459Y-68115601D01*
X97689731Y-68098731D01*
X97706601Y-68087459D01*
X97738812Y-68081052D01*
X99111188Y-68081052D01*
X99143399Y-68087459D01*
G37*
G36*
X85173399Y-68087459D02*
G01*
X85190269Y-68098731D01*
X85201541Y-68115601D01*
X85207948Y-68147812D01*
X85207948Y-69012188D01*
X85205499Y-69024500D01*
X85201541Y-69044399D01*
X85190269Y-69061269D01*
X85173399Y-69072541D01*
X85153500Y-69076499D01*
X85141188Y-69078948D01*
X83768812Y-69078948D01*
X83736601Y-69072541D01*
X83719731Y-69061269D01*
X83708459Y-69044399D01*
X83702052Y-69012188D01*
X83702052Y-68147812D01*
X83708459Y-68115601D01*
X83719731Y-68098731D01*
X83736601Y-68087459D01*
X83768812Y-68081052D01*
X85141188Y-68081052D01*
X85173399Y-68087459D01*
G37*
G36*
X109366899Y-66563459D02*
G01*
X109383769Y-66574731D01*
X109395041Y-66591601D01*
X109401448Y-66623812D01*
X109401448Y-67996188D01*
X109398999Y-68008500D01*
X109395041Y-68028399D01*
X109383769Y-68045269D01*
X109366899Y-68056541D01*
X109347000Y-68060499D01*
X109334688Y-68062948D01*
X108470312Y-68062948D01*
X108438101Y-68056541D01*
X108421231Y-68045269D01*
X108409959Y-68028399D01*
X108403552Y-67996188D01*
X108403552Y-66623812D01*
X108409959Y-66591601D01*
X108421231Y-66574731D01*
X108438101Y-66563459D01*
X108470312Y-66557052D01*
X109334688Y-66557052D01*
X109366899Y-66563459D01*
G37*
G36*
X111271899Y-66563459D02*
G01*
X111288769Y-66574731D01*
X111300041Y-66591601D01*
X111306448Y-66623812D01*
X111306448Y-67996188D01*
X111303999Y-68008500D01*
X111300041Y-68028399D01*
X111288769Y-68045269D01*
X111271899Y-68056541D01*
X111252000Y-68060499D01*
X111239688Y-68062948D01*
X110375312Y-68062948D01*
X110343101Y-68056541D01*
X110326231Y-68045269D01*
X110314959Y-68028399D01*
X110308552Y-67996188D01*
X110308552Y-66623812D01*
X110314959Y-66591601D01*
X110326231Y-66574731D01*
X110343101Y-66563459D01*
X110375312Y-66557052D01*
X111239688Y-66557052D01*
X111271899Y-66563459D01*
G37*
G36*
X85173399Y-66182459D02*
G01*
X85190269Y-66193731D01*
X85201541Y-66210601D01*
X85207948Y-66242812D01*
X85207948Y-67107188D01*
X85205499Y-67119500D01*
X85201541Y-67139399D01*
X85190269Y-67156269D01*
X85173399Y-67167541D01*
X85153500Y-67171499D01*
X85141188Y-67173948D01*
X83768812Y-67173948D01*
X83736601Y-67167541D01*
X83719731Y-67156269D01*
X83708459Y-67139399D01*
X83702052Y-67107188D01*
X83702052Y-66242812D01*
X83708459Y-66210601D01*
X83719731Y-66193731D01*
X83736601Y-66182459D01*
X83768812Y-66176052D01*
X85141188Y-66176052D01*
X85173399Y-66182459D01*
G37*
G36*
X103651899Y-65229959D02*
G01*
X103668769Y-65241231D01*
X103680041Y-65258101D01*
X103686448Y-65290312D01*
X103686448Y-66789688D01*
X103683999Y-66802000D01*
X103680041Y-66821899D01*
X103668769Y-66838769D01*
X103651899Y-66850041D01*
X103632000Y-66853999D01*
X103619688Y-66856448D01*
X102120312Y-66856448D01*
X102088101Y-66850041D01*
X102071231Y-66838769D01*
X102059959Y-66821899D01*
X102053552Y-66789688D01*
X102053552Y-65290312D01*
X102059959Y-65258101D01*
X102071231Y-65241231D01*
X102088101Y-65229959D01*
X102120312Y-65223552D01*
X103619688Y-65223552D01*
X103651899Y-65229959D01*
G37*
G36*
X106191899Y-65229959D02*
G01*
X106208769Y-65241231D01*
X106220041Y-65258101D01*
X106226448Y-65290312D01*
X106226448Y-66789688D01*
X106223999Y-66802000D01*
X106220041Y-66821899D01*
X106208769Y-66838769D01*
X106191899Y-66850041D01*
X106172000Y-66853999D01*
X106159688Y-66856448D01*
X104660312Y-66856448D01*
X104628101Y-66850041D01*
X104611231Y-66838769D01*
X104599959Y-66821899D01*
X104593552Y-66789688D01*
X104593552Y-65290312D01*
X104599959Y-65258101D01*
X104611231Y-65241231D01*
X104628101Y-65229959D01*
X104660312Y-65223552D01*
X106159688Y-65223552D01*
X106191899Y-65229959D01*
G37*
G36*
X101683399Y-64912459D02*
G01*
X101700269Y-64923731D01*
X101711541Y-64940601D01*
X101717948Y-64972812D01*
X101717948Y-65837188D01*
X101715499Y-65849500D01*
X101711541Y-65869399D01*
X101700269Y-65886269D01*
X101683399Y-65897541D01*
X101663500Y-65901499D01*
X101651188Y-65903948D01*
X100278812Y-65903948D01*
X100246601Y-65897541D01*
X100229731Y-65886269D01*
X100218459Y-65869399D01*
X100212052Y-65837188D01*
X100212052Y-64972812D01*
X100218459Y-64940601D01*
X100229731Y-64923731D01*
X100246601Y-64912459D01*
X100278812Y-64906052D01*
X101651188Y-64906052D01*
X101683399Y-64912459D01*
G37*
G36*
X111894899Y-60291959D02*
G01*
X111911769Y-60303231D01*
X111923041Y-60320101D01*
X111929448Y-60352312D01*
X111929448Y-61377688D01*
X111923041Y-61409899D01*
X111911769Y-61426769D01*
X111889894Y-61441385D01*
X111834730Y-61470243D01*
X111799879Y-61531448D01*
X111803650Y-61601780D01*
X111850190Y-61662835D01*
X111894997Y-61693977D01*
X111965300Y-61737651D01*
X111992420Y-61761687D01*
X112017149Y-61778874D01*
X112076713Y-61836394D01*
X112143233Y-61895350D01*
X112162079Y-61918832D01*
X112179327Y-61935488D01*
X112232597Y-62006696D01*
X112292051Y-62080774D01*
X112303689Y-62101726D01*
X112314376Y-62116012D01*
X112358429Y-62200277D01*
X112407500Y-62288622D01*
X112413405Y-62305436D01*
X112418823Y-62315800D01*
X112450765Y-62411820D01*
X112486279Y-62512949D01*
X112488238Y-62524468D01*
X112489988Y-62529730D01*
X112507172Y-62635827D01*
X112526134Y-62747344D01*
X112523362Y-63011974D01*
X112502096Y-63122929D01*
X112482668Y-63228785D01*
X112480804Y-63234020D01*
X112478607Y-63245482D01*
X112441015Y-63345760D01*
X112407040Y-63441172D01*
X112401403Y-63451425D01*
X112395148Y-63468111D01*
X112344233Y-63555417D01*
X112298428Y-63638735D01*
X112287446Y-63652791D01*
X112275372Y-63673495D01*
X112214378Y-63746315D01*
X112159630Y-63816388D01*
X112142038Y-63832678D01*
X112122703Y-63855762D01*
X112054965Y-63913310D01*
X111994208Y-63969571D01*
X111969120Y-63986239D01*
X111941506Y-64009699D01*
X111870311Y-64051888D01*
X111850181Y-64065262D01*
X111804873Y-64119187D01*
X111795913Y-64189048D01*
X111826144Y-64252662D01*
X111894636Y-64291783D01*
X111911769Y-64303231D01*
X111923041Y-64320101D01*
X111929448Y-64352312D01*
X111929448Y-65377688D01*
X111926999Y-65390000D01*
X111923041Y-65409899D01*
X111911769Y-65426769D01*
X111894899Y-65438041D01*
X111875000Y-65441999D01*
X111862688Y-65444448D01*
X110387312Y-65444448D01*
X110355101Y-65438041D01*
X110338231Y-65426769D01*
X110326959Y-65409899D01*
X110320552Y-65377688D01*
X110320552Y-64352312D01*
X110326959Y-64320101D01*
X110338231Y-64303231D01*
X110355101Y-64291959D01*
X110356672Y-64291647D01*
X110419081Y-64259000D01*
X110453933Y-64197795D01*
X110450162Y-64127464D01*
X110401125Y-64067586D01*
X110371593Y-64052180D01*
X110339819Y-64028018D01*
X110310787Y-64010712D01*
X110250161Y-63959841D01*
X110182337Y-63908266D01*
X110159275Y-63883578D01*
X110138083Y-63865796D01*
X110082378Y-63801261D01*
X110020034Y-63734522D01*
X110004830Y-63711419D01*
X109990769Y-63695130D01*
X109942889Y-63617303D01*
X109889326Y-63535916D01*
X109880698Y-63516214D01*
X109872635Y-63503108D01*
X109835454Y-63412901D01*
X109793950Y-63318127D01*
X109790247Y-63303221D01*
X109786724Y-63294673D01*
X109763028Y-63193643D01*
X109736632Y-63087381D01*
X109735949Y-63078191D01*
X109735243Y-63075181D01*
X109727554Y-62965219D01*
X109719012Y-62850276D01*
X109729980Y-62735318D01*
X109739951Y-62625758D01*
X109740718Y-62622769D01*
X109741594Y-62613592D01*
X109770231Y-62507825D01*
X109796018Y-62407391D01*
X109799716Y-62398928D01*
X109803731Y-62384097D01*
X109847214Y-62290206D01*
X109886273Y-62200804D01*
X109894611Y-62187866D01*
X109903648Y-62168353D01*
X109958893Y-62088120D01*
X110008403Y-62011297D01*
X110022804Y-61995303D01*
X110038486Y-61972528D01*
X110102201Y-61907123D01*
X110159258Y-61843754D01*
X110180822Y-61826416D01*
X110204392Y-61802221D01*
X110273275Y-61752083D01*
X110334957Y-61702489D01*
X110364346Y-61685794D01*
X110396620Y-61662302D01*
X110403154Y-61659066D01*
X110442068Y-61618820D01*
X110455880Y-61549755D01*
X110430160Y-61484187D01*
X110355757Y-61438171D01*
X110355101Y-61438041D01*
X110338231Y-61426769D01*
X110326959Y-61409899D01*
X110323001Y-61390000D01*
X110320552Y-61377688D01*
X110320552Y-60352312D01*
X110326959Y-60320101D01*
X110338231Y-60303231D01*
X110355101Y-60291959D01*
X110387312Y-60285552D01*
X111862688Y-60285552D01*
X111894899Y-60291959D01*
G37*
G36*
X90316483Y-62538001D02*
G01*
X90317061Y-62538001D01*
X90321575Y-62538899D01*
X90387492Y-62550522D01*
X90391426Y-62552793D01*
X90395487Y-62553601D01*
X90412405Y-62564905D01*
X90448879Y-62585963D01*
X90455207Y-62593504D01*
X90461974Y-62598026D01*
X90473598Y-62615422D01*
X90490797Y-62635920D01*
X90493142Y-62644673D01*
X90506399Y-62664513D01*
X90521999Y-62742939D01*
X90521999Y-62752367D01*
X90523715Y-62758771D01*
X90523715Y-64376751D01*
X90521999Y-64386483D01*
X90521999Y-64387061D01*
X90521101Y-64391575D01*
X90509478Y-64457492D01*
X90507207Y-64461426D01*
X90506399Y-64465487D01*
X90495095Y-64482405D01*
X90474037Y-64518879D01*
X90466496Y-64525207D01*
X90461974Y-64531974D01*
X90444578Y-64543598D01*
X90424080Y-64560797D01*
X90415327Y-64563142D01*
X90395487Y-64576399D01*
X90317061Y-64591999D01*
X90307633Y-64591999D01*
X90301229Y-64593715D01*
X90033249Y-64593715D01*
X90023517Y-64591999D01*
X90022939Y-64591999D01*
X90018425Y-64591101D01*
X89952508Y-64579478D01*
X89948574Y-64577207D01*
X89944513Y-64576399D01*
X89927595Y-64565095D01*
X89891121Y-64544037D01*
X89884793Y-64536496D01*
X89878026Y-64531974D01*
X89866402Y-64514578D01*
X89849203Y-64494080D01*
X89846858Y-64485327D01*
X89833601Y-64465487D01*
X89818001Y-64387061D01*
X89818001Y-64377633D01*
X89816285Y-64371229D01*
X89816285Y-62753249D01*
X89818001Y-62743517D01*
X89818001Y-62742939D01*
X89818899Y-62738425D01*
X89830522Y-62672508D01*
X89832793Y-62668574D01*
X89833601Y-62664513D01*
X89844905Y-62647595D01*
X89865963Y-62611121D01*
X89873504Y-62604793D01*
X89878026Y-62598026D01*
X89895422Y-62586402D01*
X89915920Y-62569203D01*
X89924673Y-62566858D01*
X89944513Y-62553601D01*
X90022939Y-62538001D01*
X90032367Y-62538001D01*
X90038771Y-62536285D01*
X90306751Y-62536285D01*
X90316483Y-62538001D01*
G37*
G36*
X89046483Y-62538001D02*
G01*
X89047061Y-62538001D01*
X89051575Y-62538899D01*
X89117492Y-62550522D01*
X89121426Y-62552793D01*
X89125487Y-62553601D01*
X89142405Y-62564905D01*
X89178879Y-62585963D01*
X89185207Y-62593504D01*
X89191974Y-62598026D01*
X89203598Y-62615422D01*
X89220797Y-62635920D01*
X89223142Y-62644673D01*
X89236399Y-62664513D01*
X89251999Y-62742939D01*
X89251999Y-62752367D01*
X89253715Y-62758771D01*
X89253715Y-64376751D01*
X89251999Y-64386483D01*
X89251999Y-64387061D01*
X89251101Y-64391575D01*
X89239478Y-64457492D01*
X89237207Y-64461426D01*
X89236399Y-64465487D01*
X89225095Y-64482405D01*
X89204037Y-64518879D01*
X89196496Y-64525207D01*
X89191974Y-64531974D01*
X89174578Y-64543598D01*
X89154080Y-64560797D01*
X89145327Y-64563142D01*
X89125487Y-64576399D01*
X89047061Y-64591999D01*
X89037633Y-64591999D01*
X89031229Y-64593715D01*
X88763249Y-64593715D01*
X88753517Y-64591999D01*
X88752939Y-64591999D01*
X88748425Y-64591101D01*
X88682508Y-64579478D01*
X88678574Y-64577207D01*
X88674513Y-64576399D01*
X88657595Y-64565095D01*
X88621121Y-64544037D01*
X88614793Y-64536496D01*
X88608026Y-64531974D01*
X88596402Y-64514578D01*
X88579203Y-64494080D01*
X88576858Y-64485327D01*
X88563601Y-64465487D01*
X88548001Y-64387061D01*
X88548001Y-64377633D01*
X88546285Y-64371229D01*
X88546285Y-62753249D01*
X88548001Y-62743517D01*
X88548001Y-62742939D01*
X88548899Y-62738425D01*
X88560522Y-62672508D01*
X88562793Y-62668574D01*
X88563601Y-62664513D01*
X88574905Y-62647595D01*
X88595963Y-62611121D01*
X88603504Y-62604793D01*
X88608026Y-62598026D01*
X88625422Y-62586402D01*
X88645920Y-62569203D01*
X88654673Y-62566858D01*
X88674513Y-62553601D01*
X88752939Y-62538001D01*
X88762367Y-62538001D01*
X88768771Y-62536285D01*
X89036751Y-62536285D01*
X89046483Y-62538001D01*
G37*
G36*
X87776483Y-62538001D02*
G01*
X87777061Y-62538001D01*
X87781575Y-62538899D01*
X87847492Y-62550522D01*
X87851426Y-62552793D01*
X87855487Y-62553601D01*
X87872405Y-62564905D01*
X87908879Y-62585963D01*
X87915207Y-62593504D01*
X87921974Y-62598026D01*
X87933598Y-62615422D01*
X87950797Y-62635920D01*
X87953142Y-62644673D01*
X87966399Y-62664513D01*
X87981999Y-62742939D01*
X87981999Y-62752367D01*
X87983715Y-62758771D01*
X87983715Y-64376751D01*
X87981999Y-64386483D01*
X87981999Y-64387061D01*
X87981101Y-64391575D01*
X87969478Y-64457492D01*
X87967207Y-64461426D01*
X87966399Y-64465487D01*
X87955095Y-64482405D01*
X87934037Y-64518879D01*
X87926496Y-64525207D01*
X87921974Y-64531974D01*
X87904578Y-64543598D01*
X87884080Y-64560797D01*
X87875327Y-64563142D01*
X87855487Y-64576399D01*
X87777061Y-64591999D01*
X87767633Y-64591999D01*
X87761229Y-64593715D01*
X87493249Y-64593715D01*
X87483517Y-64591999D01*
X87482939Y-64591999D01*
X87478425Y-64591101D01*
X87412508Y-64579478D01*
X87408574Y-64577207D01*
X87404513Y-64576399D01*
X87387595Y-64565095D01*
X87351121Y-64544037D01*
X87344793Y-64536496D01*
X87338026Y-64531974D01*
X87326402Y-64514578D01*
X87309203Y-64494080D01*
X87306858Y-64485327D01*
X87293601Y-64465487D01*
X87278001Y-64387061D01*
X87278001Y-64377633D01*
X87276285Y-64371229D01*
X87276285Y-62753249D01*
X87278001Y-62743517D01*
X87278001Y-62742939D01*
X87278899Y-62738425D01*
X87290522Y-62672508D01*
X87292793Y-62668574D01*
X87293601Y-62664513D01*
X87304905Y-62647595D01*
X87325963Y-62611121D01*
X87333504Y-62604793D01*
X87338026Y-62598026D01*
X87355422Y-62586402D01*
X87375920Y-62569203D01*
X87384673Y-62566858D01*
X87404513Y-62553601D01*
X87482939Y-62538001D01*
X87492367Y-62538001D01*
X87498771Y-62536285D01*
X87766751Y-62536285D01*
X87776483Y-62538001D01*
G37*
G36*
X95396483Y-62538001D02*
G01*
X95397061Y-62538001D01*
X95401575Y-62538899D01*
X95467492Y-62550522D01*
X95471426Y-62552793D01*
X95475487Y-62553601D01*
X95492405Y-62564905D01*
X95528879Y-62585963D01*
X95535207Y-62593504D01*
X95541974Y-62598026D01*
X95553598Y-62615422D01*
X95570797Y-62635920D01*
X95573142Y-62644673D01*
X95586399Y-62664513D01*
X95601999Y-62742939D01*
X95601999Y-62752367D01*
X95603715Y-62758771D01*
X95603715Y-64376751D01*
X95601999Y-64386483D01*
X95601999Y-64387061D01*
X95601101Y-64391575D01*
X95589478Y-64457492D01*
X95587207Y-64461426D01*
X95586399Y-64465487D01*
X95575095Y-64482405D01*
X95554037Y-64518879D01*
X95546496Y-64525207D01*
X95541974Y-64531974D01*
X95524578Y-64543598D01*
X95504080Y-64560797D01*
X95495327Y-64563142D01*
X95475487Y-64576399D01*
X95397061Y-64591999D01*
X95387633Y-64591999D01*
X95381229Y-64593715D01*
X95113249Y-64593715D01*
X95103517Y-64591999D01*
X95102939Y-64591999D01*
X95098425Y-64591101D01*
X95032508Y-64579478D01*
X95028574Y-64577207D01*
X95024513Y-64576399D01*
X95007595Y-64565095D01*
X94971121Y-64544037D01*
X94964793Y-64536496D01*
X94958026Y-64531974D01*
X94946402Y-64514578D01*
X94929203Y-64494080D01*
X94926858Y-64485327D01*
X94913601Y-64465487D01*
X94898001Y-64387061D01*
X94898001Y-64377633D01*
X94896285Y-64371229D01*
X94896285Y-62753249D01*
X94898001Y-62743517D01*
X94898001Y-62742939D01*
X94898899Y-62738425D01*
X94910522Y-62672508D01*
X94912793Y-62668574D01*
X94913601Y-62664513D01*
X94924905Y-62647595D01*
X94945963Y-62611121D01*
X94953504Y-62604793D01*
X94958026Y-62598026D01*
X94975422Y-62586402D01*
X94995920Y-62569203D01*
X95004673Y-62566858D01*
X95024513Y-62553601D01*
X95102939Y-62538001D01*
X95112367Y-62538001D01*
X95118771Y-62536285D01*
X95386751Y-62536285D01*
X95396483Y-62538001D01*
G37*
G36*
X91586483Y-62538001D02*
G01*
X91587061Y-62538001D01*
X91591575Y-62538899D01*
X91657492Y-62550522D01*
X91661426Y-62552793D01*
X91665487Y-62553601D01*
X91682405Y-62564905D01*
X91718879Y-62585963D01*
X91725207Y-62593504D01*
X91731974Y-62598026D01*
X91743598Y-62615422D01*
X91760797Y-62635920D01*
X91763142Y-62644673D01*
X91776399Y-62664513D01*
X91791999Y-62742939D01*
X91791999Y-62752367D01*
X91793715Y-62758771D01*
X91793715Y-64376751D01*
X91791999Y-64386483D01*
X91791999Y-64387061D01*
X91791101Y-64391575D01*
X91779478Y-64457492D01*
X91777207Y-64461426D01*
X91776399Y-64465487D01*
X91765095Y-64482405D01*
X91744037Y-64518879D01*
X91736496Y-64525207D01*
X91731974Y-64531974D01*
X91714578Y-64543598D01*
X91694080Y-64560797D01*
X91685327Y-64563142D01*
X91665487Y-64576399D01*
X91587061Y-64591999D01*
X91577633Y-64591999D01*
X91571229Y-64593715D01*
X91303249Y-64593715D01*
X91293517Y-64591999D01*
X91292939Y-64591999D01*
X91288425Y-64591101D01*
X91222508Y-64579478D01*
X91218574Y-64577207D01*
X91214513Y-64576399D01*
X91197595Y-64565095D01*
X91161121Y-64544037D01*
X91154793Y-64536496D01*
X91148026Y-64531974D01*
X91136402Y-64514578D01*
X91119203Y-64494080D01*
X91116858Y-64485327D01*
X91103601Y-64465487D01*
X91088001Y-64387061D01*
X91088001Y-64377633D01*
X91086285Y-64371229D01*
X91086285Y-62753249D01*
X91088001Y-62743517D01*
X91088001Y-62742939D01*
X91088899Y-62738425D01*
X91100522Y-62672508D01*
X91102793Y-62668574D01*
X91103601Y-62664513D01*
X91114905Y-62647595D01*
X91135963Y-62611121D01*
X91143504Y-62604793D01*
X91148026Y-62598026D01*
X91165422Y-62586402D01*
X91185920Y-62569203D01*
X91194673Y-62566858D01*
X91214513Y-62553601D01*
X91292939Y-62538001D01*
X91302367Y-62538001D01*
X91308771Y-62536285D01*
X91576751Y-62536285D01*
X91586483Y-62538001D01*
G37*
G36*
X94126483Y-62538001D02*
G01*
X94127061Y-62538001D01*
X94131575Y-62538899D01*
X94197492Y-62550522D01*
X94201426Y-62552793D01*
X94205487Y-62553601D01*
X94222405Y-62564905D01*
X94258879Y-62585963D01*
X94265207Y-62593504D01*
X94271974Y-62598026D01*
X94283598Y-62615422D01*
X94300797Y-62635920D01*
X94303142Y-62644673D01*
X94316399Y-62664513D01*
X94331999Y-62742939D01*
X94331999Y-62752367D01*
X94333715Y-62758771D01*
X94333715Y-64376751D01*
X94331999Y-64386483D01*
X94331999Y-64387061D01*
X94331101Y-64391575D01*
X94319478Y-64457492D01*
X94317207Y-64461426D01*
X94316399Y-64465487D01*
X94305095Y-64482405D01*
X94284037Y-64518879D01*
X94276496Y-64525207D01*
X94271974Y-64531974D01*
X94254578Y-64543598D01*
X94234080Y-64560797D01*
X94225327Y-64563142D01*
X94205487Y-64576399D01*
X94127061Y-64591999D01*
X94117633Y-64591999D01*
X94111229Y-64593715D01*
X93843249Y-64593715D01*
X93833517Y-64591999D01*
X93832939Y-64591999D01*
X93828425Y-64591101D01*
X93762508Y-64579478D01*
X93758574Y-64577207D01*
X93754513Y-64576399D01*
X93737595Y-64565095D01*
X93701121Y-64544037D01*
X93694793Y-64536496D01*
X93688026Y-64531974D01*
X93676402Y-64514578D01*
X93659203Y-64494080D01*
X93656858Y-64485327D01*
X93643601Y-64465487D01*
X93628001Y-64387061D01*
X93628001Y-64377633D01*
X93626285Y-64371229D01*
X93626285Y-62753249D01*
X93628001Y-62743517D01*
X93628001Y-62742939D01*
X93628899Y-62738425D01*
X93640522Y-62672508D01*
X93642793Y-62668574D01*
X93643601Y-62664513D01*
X93654905Y-62647595D01*
X93675963Y-62611121D01*
X93683504Y-62604793D01*
X93688026Y-62598026D01*
X93705422Y-62586402D01*
X93725920Y-62569203D01*
X93734673Y-62566858D01*
X93754513Y-62553601D01*
X93832939Y-62538001D01*
X93842367Y-62538001D01*
X93848771Y-62536285D01*
X94116751Y-62536285D01*
X94126483Y-62538001D01*
G37*
G36*
X92856483Y-62538001D02*
G01*
X92857061Y-62538001D01*
X92861575Y-62538899D01*
X92927492Y-62550522D01*
X92931426Y-62552793D01*
X92935487Y-62553601D01*
X92952405Y-62564905D01*
X92988879Y-62585963D01*
X92995207Y-62593504D01*
X93001974Y-62598026D01*
X93013598Y-62615422D01*
X93030797Y-62635920D01*
X93033142Y-62644673D01*
X93046399Y-62664513D01*
X93061999Y-62742939D01*
X93061999Y-62752367D01*
X93063715Y-62758771D01*
X93063715Y-64376751D01*
X93061999Y-64386483D01*
X93061999Y-64387061D01*
X93061101Y-64391575D01*
X93049478Y-64457492D01*
X93047207Y-64461426D01*
X93046399Y-64465487D01*
X93035095Y-64482405D01*
X93014037Y-64518879D01*
X93006496Y-64525207D01*
X93001974Y-64531974D01*
X92984578Y-64543598D01*
X92964080Y-64560797D01*
X92955327Y-64563142D01*
X92935487Y-64576399D01*
X92857061Y-64591999D01*
X92847633Y-64591999D01*
X92841229Y-64593715D01*
X92573249Y-64593715D01*
X92563517Y-64591999D01*
X92562939Y-64591999D01*
X92558425Y-64591101D01*
X92492508Y-64579478D01*
X92488574Y-64577207D01*
X92484513Y-64576399D01*
X92467595Y-64565095D01*
X92431121Y-64544037D01*
X92424793Y-64536496D01*
X92418026Y-64531974D01*
X92406402Y-64514578D01*
X92389203Y-64494080D01*
X92386858Y-64485327D01*
X92373601Y-64465487D01*
X92358001Y-64387061D01*
X92358001Y-64377633D01*
X92356285Y-64371229D01*
X92356285Y-62753249D01*
X92358001Y-62743517D01*
X92358001Y-62742939D01*
X92358899Y-62738425D01*
X92370522Y-62672508D01*
X92372793Y-62668574D01*
X92373601Y-62664513D01*
X92384905Y-62647595D01*
X92405963Y-62611121D01*
X92413504Y-62604793D01*
X92418026Y-62598026D01*
X92435422Y-62586402D01*
X92455920Y-62569203D01*
X92464673Y-62566858D01*
X92484513Y-62553601D01*
X92562939Y-62538001D01*
X92572367Y-62538001D01*
X92578771Y-62536285D01*
X92846751Y-62536285D01*
X92856483Y-62538001D01*
G37*
G36*
X101683399Y-63007459D02*
G01*
X101700269Y-63018731D01*
X101711541Y-63035601D01*
X101717948Y-63067812D01*
X101717948Y-63932188D01*
X101715499Y-63944500D01*
X101711541Y-63964399D01*
X101700269Y-63981269D01*
X101683399Y-63992541D01*
X101663500Y-63996499D01*
X101651188Y-63998948D01*
X100278812Y-63998948D01*
X100246601Y-63992541D01*
X100229731Y-63981269D01*
X100218459Y-63964399D01*
X100212052Y-63932188D01*
X100212052Y-63067812D01*
X100218459Y-63035601D01*
X100229731Y-63018731D01*
X100246601Y-63007459D01*
X100278812Y-63001052D01*
X101651188Y-63001052D01*
X101683399Y-63007459D01*
G37*
G36*
X106169899Y-59051959D02*
G01*
X106186769Y-59063231D01*
X106198041Y-59080101D01*
X106204448Y-59112312D01*
X106204448Y-62587688D01*
X106198041Y-62619899D01*
X106186769Y-62636769D01*
X106169899Y-62648041D01*
X106150000Y-62651999D01*
X106137688Y-62654448D01*
X104162312Y-62654448D01*
X104130101Y-62648041D01*
X104113231Y-62636769D01*
X104101959Y-62619899D01*
X104095552Y-62587688D01*
X104095552Y-59112312D01*
X104101959Y-59080101D01*
X104113231Y-59063231D01*
X104130101Y-59051959D01*
X104162312Y-59045552D01*
X106137688Y-59045552D01*
X106169899Y-59051959D01*
G37*
G36*
X101589899Y-59051959D02*
G01*
X101606769Y-59063231D01*
X101618041Y-59080101D01*
X101624448Y-59112312D01*
X101624448Y-62587688D01*
X101618041Y-62619899D01*
X101606769Y-62636769D01*
X101589899Y-62648041D01*
X101570000Y-62651999D01*
X101557688Y-62654448D01*
X99582312Y-62654448D01*
X99550101Y-62648041D01*
X99533231Y-62636769D01*
X99521959Y-62619899D01*
X99515552Y-62587688D01*
X99515552Y-59112312D01*
X99521959Y-59080101D01*
X99533231Y-59063231D01*
X99550101Y-59051959D01*
X99582312Y-59045552D01*
X101557688Y-59045552D01*
X101589899Y-59051959D01*
G37*
G36*
X77494899Y-59126959D02*
G01*
X77511769Y-59138231D01*
X77523041Y-59155101D01*
X77529448Y-59187312D01*
X77529448Y-61462688D01*
X77526999Y-61475000D01*
X77523041Y-61494899D01*
X77511769Y-61511769D01*
X77494899Y-61523041D01*
X77475000Y-61526999D01*
X77462688Y-61529448D01*
X73987312Y-61529448D01*
X73955101Y-61523041D01*
X73938231Y-61511769D01*
X73926959Y-61494899D01*
X73920552Y-61462688D01*
X73920552Y-59187312D01*
X73926959Y-59155101D01*
X73938231Y-59138231D01*
X73955101Y-59126959D01*
X73987312Y-59120552D01*
X77462688Y-59120552D01*
X77494899Y-59126959D01*
G37*
G36*
X72094899Y-59126959D02*
G01*
X72111769Y-59138231D01*
X72123041Y-59155101D01*
X72129448Y-59187312D01*
X72129448Y-61462688D01*
X72126999Y-61475000D01*
X72123041Y-61494899D01*
X72111769Y-61511769D01*
X72094899Y-61523041D01*
X72075000Y-61526999D01*
X72062688Y-61529448D01*
X68587312Y-61529448D01*
X68555101Y-61523041D01*
X68538231Y-61511769D01*
X68526959Y-61494899D01*
X68520552Y-61462688D01*
X68520552Y-59187312D01*
X68526959Y-59155101D01*
X68538231Y-59138231D01*
X68555101Y-59126959D01*
X68587312Y-59120552D01*
X72062688Y-59120552D01*
X72094899Y-59126959D01*
G37*
G36*
X97936899Y-58943459D02*
G01*
X97953769Y-58954731D01*
X97965041Y-58971601D01*
X97971448Y-59003812D01*
X97971448Y-60376188D01*
X97968999Y-60388500D01*
X97965041Y-60408399D01*
X97953769Y-60425269D01*
X97936899Y-60436541D01*
X97917000Y-60440499D01*
X97904688Y-60442948D01*
X97040312Y-60442948D01*
X97008101Y-60436541D01*
X96991231Y-60425269D01*
X96979959Y-60408399D01*
X96973552Y-60376188D01*
X96973552Y-59003812D01*
X96979959Y-58971601D01*
X96991231Y-58954731D01*
X97008101Y-58943459D01*
X97040312Y-58937052D01*
X97904688Y-58937052D01*
X97936899Y-58943459D01*
G37*
G36*
X96031899Y-58943459D02*
G01*
X96048769Y-58954731D01*
X96060041Y-58971601D01*
X96066448Y-59003812D01*
X96066448Y-60376188D01*
X96063999Y-60388500D01*
X96060041Y-60408399D01*
X96048769Y-60425269D01*
X96031899Y-60436541D01*
X96012000Y-60440499D01*
X95999688Y-60442948D01*
X95135312Y-60442948D01*
X95103101Y-60436541D01*
X95086231Y-60425269D01*
X95074959Y-60408399D01*
X95068552Y-60376188D01*
X95068552Y-59003812D01*
X95074959Y-58971601D01*
X95086231Y-58954731D01*
X95103101Y-58943459D01*
X95135312Y-58937052D01*
X95999688Y-58937052D01*
X96031899Y-58943459D01*
G37*
G36*
X88094399Y-58308459D02*
G01*
X88111269Y-58319731D01*
X88122541Y-58336601D01*
X88128948Y-58368812D01*
X88128948Y-59741188D01*
X88126499Y-59753500D01*
X88122541Y-59773399D01*
X88111269Y-59790269D01*
X88094399Y-59801541D01*
X88074500Y-59805499D01*
X88062188Y-59807948D01*
X87197812Y-59807948D01*
X87165601Y-59801541D01*
X87148731Y-59790269D01*
X87137459Y-59773399D01*
X87131052Y-59741188D01*
X87131052Y-58368812D01*
X87137459Y-58336601D01*
X87148731Y-58319731D01*
X87165601Y-58308459D01*
X87197812Y-58302052D01*
X88062188Y-58302052D01*
X88094399Y-58308459D01*
G37*
G36*
X86189399Y-58308459D02*
G01*
X86206269Y-58319731D01*
X86217541Y-58336601D01*
X86223948Y-58368812D01*
X86223948Y-59741188D01*
X86221499Y-59753500D01*
X86217541Y-59773399D01*
X86206269Y-59790269D01*
X86189399Y-59801541D01*
X86169500Y-59805499D01*
X86157188Y-59807948D01*
X85292812Y-59807948D01*
X85260601Y-59801541D01*
X85243731Y-59790269D01*
X85232459Y-59773399D01*
X85226052Y-59741188D01*
X85226052Y-58368812D01*
X85232459Y-58336601D01*
X85243731Y-58319731D01*
X85260601Y-58308459D01*
X85292812Y-58302052D01*
X86157188Y-58302052D01*
X86189399Y-58308459D01*
G37*
G36*
X81109399Y-57673459D02*
G01*
X81126269Y-57684731D01*
X81137541Y-57701601D01*
X81143948Y-57733812D01*
X81143948Y-59106188D01*
X81141499Y-59118500D01*
X81137541Y-59138399D01*
X81126269Y-59155269D01*
X81109399Y-59166541D01*
X81089500Y-59170499D01*
X81077188Y-59172948D01*
X80212812Y-59172948D01*
X80180601Y-59166541D01*
X80163731Y-59155269D01*
X80152459Y-59138399D01*
X80146052Y-59106188D01*
X80146052Y-57733812D01*
X80152459Y-57701601D01*
X80163731Y-57684731D01*
X80180601Y-57673459D01*
X80212812Y-57667052D01*
X81077188Y-57667052D01*
X81109399Y-57673459D01*
G37*
G36*
X83014399Y-57673459D02*
G01*
X83031269Y-57684731D01*
X83042541Y-57701601D01*
X83048948Y-57733812D01*
X83048948Y-59106188D01*
X83046499Y-59118500D01*
X83042541Y-59138399D01*
X83031269Y-59155269D01*
X83014399Y-59166541D01*
X82994500Y-59170499D01*
X82982188Y-59172948D01*
X82117812Y-59172948D01*
X82085601Y-59166541D01*
X82068731Y-59155269D01*
X82057459Y-59138399D01*
X82051052Y-59106188D01*
X82051052Y-57733812D01*
X82057459Y-57701601D01*
X82068731Y-57684731D01*
X82085601Y-57673459D01*
X82117812Y-57667052D01*
X82982188Y-57667052D01*
X83014399Y-57673459D01*
G37*
G36*
X96031899Y-56339959D02*
G01*
X96048769Y-56351231D01*
X96060041Y-56368101D01*
X96066448Y-56400312D01*
X96066448Y-57899688D01*
X96063999Y-57912000D01*
X96060041Y-57931899D01*
X96048769Y-57948769D01*
X96031899Y-57960041D01*
X96012000Y-57963999D01*
X95999688Y-57966448D01*
X94500312Y-57966448D01*
X94468101Y-57960041D01*
X94451231Y-57948769D01*
X94439959Y-57931899D01*
X94433552Y-57899688D01*
X94433552Y-56400312D01*
X94439959Y-56368101D01*
X94451231Y-56351231D01*
X94468101Y-56339959D01*
X94500312Y-56333552D01*
X95999688Y-56333552D01*
X96031899Y-56339959D01*
G37*
G36*
X93491899Y-56339959D02*
G01*
X93508769Y-56351231D01*
X93520041Y-56368101D01*
X93526448Y-56400312D01*
X93526448Y-57899688D01*
X93523999Y-57912000D01*
X93520041Y-57931899D01*
X93508769Y-57948769D01*
X93491899Y-57960041D01*
X93472000Y-57963999D01*
X93459688Y-57966448D01*
X91960312Y-57966448D01*
X91928101Y-57960041D01*
X91911231Y-57948769D01*
X91899959Y-57931899D01*
X91893552Y-57899688D01*
X91893552Y-56400312D01*
X91899959Y-56368101D01*
X91911231Y-56351231D01*
X91928101Y-56339959D01*
X91960312Y-56333552D01*
X93459688Y-56333552D01*
X93491899Y-56339959D01*
G37*
G36*
X90951899Y-56339959D02*
G01*
X90968769Y-56351231D01*
X90980041Y-56368101D01*
X90986448Y-56400312D01*
X90986448Y-57899688D01*
X90983999Y-57912000D01*
X90980041Y-57931899D01*
X90968769Y-57948769D01*
X90951899Y-57960041D01*
X90932000Y-57963999D01*
X90919688Y-57966448D01*
X89420312Y-57966448D01*
X89388101Y-57960041D01*
X89371231Y-57948769D01*
X89359959Y-57931899D01*
X89353552Y-57899688D01*
X89353552Y-56400312D01*
X89359959Y-56368101D01*
X89371231Y-56351231D01*
X89388101Y-56339959D01*
X89420312Y-56333552D01*
X90919688Y-56333552D01*
X90951899Y-56339959D01*
G37*
G36*
X106389899Y-49901959D02*
G01*
X106406769Y-49913231D01*
X106418041Y-49930101D01*
X106424448Y-49962312D01*
X106424448Y-56937688D01*
X106421999Y-56950000D01*
X106418041Y-56969899D01*
X106406769Y-56986769D01*
X106389899Y-56998041D01*
X106370000Y-57001999D01*
X106357688Y-57004448D01*
X99382312Y-57004448D01*
X99350101Y-56998041D01*
X99333231Y-56986769D01*
X99321959Y-56969899D01*
X99315552Y-56937688D01*
X99315552Y-49962312D01*
X99321959Y-49930101D01*
X99333231Y-49913231D01*
X99350101Y-49901959D01*
X99382312Y-49895552D01*
X106357688Y-49895552D01*
X106389899Y-49901959D01*
G37*
G36*
X71278774Y-50289990D02*
G01*
X71311873Y-50290221D01*
X71447095Y-50306346D01*
X71587522Y-50319991D01*
X71620424Y-50327014D01*
X71650643Y-50330618D01*
X71785734Y-50362303D01*
X71926392Y-50392329D01*
X71955739Y-50402177D01*
X71982779Y-50408519D01*
X72115898Y-50455921D01*
X72254894Y-50502563D01*
X72280523Y-50514541D01*
X72304174Y-50522963D01*
X72433459Y-50586019D01*
X72568806Y-50649276D01*
X72590627Y-50662674D01*
X72610804Y-50672515D01*
X72734365Y-50750930D01*
X72864091Y-50830582D01*
X72882157Y-50844722D01*
X72898858Y-50855321D01*
X73014802Y-50948542D01*
X73136954Y-51044150D01*
X73151397Y-51058367D01*
X73164729Y-51069087D01*
X73271184Y-51176288D01*
X73383886Y-51287233D01*
X73394952Y-51300922D01*
X73405130Y-51311172D01*
X73500415Y-51431391D01*
X73601713Y-51556708D01*
X73609718Y-51569298D01*
X73617041Y-51578537D01*
X73699503Y-51710503D01*
X73787635Y-51849109D01*
X73792990Y-51860113D01*
X73797826Y-51867852D01*
X73865862Y-52009855D01*
X73939261Y-52160678D01*
X73942446Y-52169696D01*
X73945236Y-52175520D01*
X73997375Y-52325244D01*
X74054641Y-52487408D01*
X74056186Y-52494127D01*
X74057431Y-52497702D01*
X74092264Y-52651021D01*
X74132293Y-52825099D01*
X74132768Y-52829301D01*
X74133015Y-52830388D01*
X74148768Y-52970833D01*
X74171218Y-53169410D01*
X74170480Y-53201942D01*
X74164970Y-53596575D01*
X74160861Y-53625809D01*
X74160339Y-53648826D01*
X74137279Y-53793604D01*
X74117612Y-53933538D01*
X74110706Y-53960434D01*
X74105835Y-53991017D01*
X74067270Y-54129607D01*
X74032767Y-54263988D01*
X74021960Y-54292438D01*
X74012944Y-54324838D01*
X73959986Y-54455584D01*
X73911621Y-54582907D01*
X73896491Y-54612346D01*
X73882861Y-54645998D01*
X73816749Y-54767509D01*
X73755675Y-54886346D01*
X73735886Y-54916131D01*
X73717258Y-54950368D01*
X73639397Y-55061359D01*
X73566886Y-55170496D01*
X73542184Y-55199934D01*
X73518263Y-55234034D01*
X73430132Y-55333473D01*
X73347589Y-55431844D01*
X73317838Y-55460176D01*
X73288436Y-55493350D01*
X73191632Y-55580360D01*
X73100524Y-55667121D01*
X73065680Y-55693569D01*
X73030731Y-55724982D01*
X72926925Y-55798889D01*
X72828790Y-55873378D01*
X72788926Y-55897141D01*
X72748461Y-55925952D01*
X72639312Y-55986330D01*
X72535742Y-56048070D01*
X72491054Y-56068341D01*
X72445255Y-56093676D01*
X72332490Y-56140269D01*
X72225058Y-56189003D01*
X72175853Y-56204991D01*
X72125011Y-56225998D01*
X72010276Y-56258789D01*
X71900594Y-56294427D01*
X71847318Y-56305363D01*
X71791846Y-56321217D01*
X71676793Y-56340367D01*
X71566407Y-56363026D01*
X71509592Y-56368197D01*
X71450044Y-56378108D01*
X71336246Y-56383972D01*
X71226645Y-56393947D01*
X71166955Y-56392697D01*
X71103999Y-56395941D01*
X70992945Y-56389052D01*
X70885558Y-56386802D01*
X70823750Y-56378555D01*
X70758159Y-56374486D01*
X70651251Y-56355539D01*
X70547398Y-56341682D01*
X70484308Y-56325952D01*
X70416972Y-56314018D01*
X70315471Y-56283856D01*
X70216370Y-56259147D01*
X70152941Y-56235558D01*
X70084823Y-56215316D01*
X69989871Y-56174913D01*
X69896610Y-56140230D01*
X69833822Y-56108513D01*
X69765982Y-56079647D01*
X69678551Y-56030080D01*
X69592101Y-55986411D01*
X69531024Y-55946443D01*
X69464549Y-55908757D01*
X69385445Y-55851179D01*
X69306619Y-55799597D01*
X69248335Y-55751380D01*
X69184399Y-55704843D01*
X69114307Y-55640503D01*
X69043763Y-55582144D01*
X68989374Y-55525822D01*
X68929133Y-55470525D01*
X68868518Y-55400672D01*
X68806765Y-55336725D01*
X68757377Y-55272593D01*
X68702034Y-55208816D01*
X68651237Y-55134768D01*
X68598613Y-55066434D01*
X68555309Y-54994930D01*
X68506021Y-54923082D01*
X68465183Y-54846115D01*
X68421878Y-54774610D01*
X68385702Y-54696317D01*
X68343614Y-54616995D01*
X68312736Y-54538406D01*
X68278783Y-54464924D01*
X68250719Y-54380560D01*
X68216902Y-54294490D01*
X68195810Y-54215497D01*
X68171092Y-54141193D01*
X68152056Y-54051635D01*
X68127512Y-53959715D01*
X68115891Y-53881488D01*
X68100163Y-53807495D01*
X68090971Y-53713746D01*
X68076594Y-53616972D01*
X68073994Y-53540606D01*
X68066872Y-53467970D01*
X68068224Y-53371127D01*
X68064804Y-53270668D01*
X68070653Y-53197168D01*
X68071635Y-53126832D01*
X68084105Y-53028120D01*
X68092291Y-52925256D01*
X68105911Y-52855512D01*
X68114393Y-52788371D01*
X68138408Y-52689105D01*
X68158704Y-52585175D01*
X68179327Y-52519967D01*
X68194614Y-52456777D01*
X68230447Y-52358326D01*
X68263189Y-52254799D01*
X68289973Y-52194783D01*
X68311300Y-52136187D01*
X68359059Y-52039975D01*
X68404401Y-51938375D01*
X68436438Y-51884096D01*
X68462989Y-51830608D01*
X68522616Y-51738085D01*
X68580526Y-51639970D01*
X68616896Y-51591793D01*
X68647801Y-51543838D01*
X68719030Y-51456502D01*
X68789299Y-51363421D01*
X68829039Y-51321617D01*
X68863422Y-51279459D01*
X68945836Y-51198754D01*
X69028036Y-51112284D01*
X69070205Y-51076963D01*
X69107171Y-51040763D01*
X69200137Y-50968130D01*
X69293668Y-50889787D01*
X69337331Y-50860942D01*
X69376003Y-50830728D01*
X69478721Y-50767536D01*
X69582780Y-50698791D01*
X69627050Y-50676283D01*
X69666588Y-50651959D01*
X69778086Y-50599492D01*
X69891654Y-50541751D01*
X69935679Y-50525334D01*
X69975271Y-50506704D01*
X70094391Y-50466152D01*
X70216321Y-50420686D01*
X70259335Y-50410001D01*
X70298231Y-50396760D01*
X70423659Y-50369183D01*
X70552606Y-50337152D01*
X70593905Y-50331752D01*
X70631435Y-50323500D01*
X70761743Y-50309804D01*
X70896185Y-50292224D01*
X70935159Y-50291578D01*
X70970722Y-50287840D01*
X71104331Y-50288772D01*
X71242642Y-50286479D01*
X71278774Y-50289990D01*
G37*
G36*
X111918774Y-50289990D02*
G01*
X111951873Y-50290221D01*
X112087095Y-50306346D01*
X112227522Y-50319991D01*
X112260424Y-50327014D01*
X112290643Y-50330618D01*
X112425734Y-50362303D01*
X112566392Y-50392329D01*
X112595739Y-50402177D01*
X112622779Y-50408519D01*
X112755898Y-50455921D01*
X112894894Y-50502563D01*
X112920523Y-50514541D01*
X112944174Y-50522963D01*
X113073459Y-50586019D01*
X113208806Y-50649276D01*
X113230627Y-50662674D01*
X113250804Y-50672515D01*
X113374365Y-50750930D01*
X113504091Y-50830582D01*
X113522157Y-50844722D01*
X113538858Y-50855321D01*
X113654802Y-50948542D01*
X113776954Y-51044150D01*
X113791397Y-51058367D01*
X113804729Y-51069087D01*
X113911184Y-51176288D01*
X114023886Y-51287233D01*
X114034952Y-51300922D01*
X114045130Y-51311172D01*
X114140415Y-51431391D01*
X114241713Y-51556708D01*
X114249718Y-51569298D01*
X114257041Y-51578537D01*
X114339503Y-51710503D01*
X114427635Y-51849109D01*
X114432990Y-51860113D01*
X114437826Y-51867852D01*
X114505862Y-52009855D01*
X114579261Y-52160678D01*
X114582446Y-52169696D01*
X114585236Y-52175520D01*
X114637375Y-52325244D01*
X114694641Y-52487408D01*
X114696186Y-52494127D01*
X114697431Y-52497702D01*
X114732264Y-52651021D01*
X114772293Y-52825099D01*
X114772768Y-52829301D01*
X114773015Y-52830388D01*
X114788768Y-52970833D01*
X114811218Y-53169410D01*
X114810480Y-53201942D01*
X114804970Y-53596575D01*
X114800861Y-53625809D01*
X114800339Y-53648826D01*
X114777279Y-53793604D01*
X114757612Y-53933538D01*
X114750706Y-53960434D01*
X114745835Y-53991017D01*
X114707270Y-54129607D01*
X114672767Y-54263988D01*
X114661960Y-54292438D01*
X114652944Y-54324838D01*
X114599986Y-54455584D01*
X114551621Y-54582907D01*
X114536491Y-54612346D01*
X114522861Y-54645998D01*
X114456749Y-54767509D01*
X114395675Y-54886346D01*
X114375886Y-54916131D01*
X114357258Y-54950368D01*
X114279397Y-55061359D01*
X114206886Y-55170496D01*
X114182184Y-55199934D01*
X114158263Y-55234034D01*
X114070132Y-55333473D01*
X113987589Y-55431844D01*
X113957838Y-55460176D01*
X113928436Y-55493350D01*
X113831632Y-55580360D01*
X113740524Y-55667121D01*
X113705680Y-55693569D01*
X113670731Y-55724982D01*
X113566925Y-55798889D01*
X113468790Y-55873378D01*
X113428926Y-55897141D01*
X113388461Y-55925952D01*
X113279312Y-55986330D01*
X113175742Y-56048070D01*
X113131054Y-56068341D01*
X113085255Y-56093676D01*
X112972490Y-56140269D01*
X112865058Y-56189003D01*
X112815853Y-56204991D01*
X112765011Y-56225998D01*
X112650276Y-56258789D01*
X112540594Y-56294427D01*
X112487318Y-56305363D01*
X112431846Y-56321217D01*
X112316793Y-56340367D01*
X112206407Y-56363026D01*
X112149592Y-56368197D01*
X112090044Y-56378108D01*
X111976246Y-56383972D01*
X111866645Y-56393947D01*
X111806955Y-56392697D01*
X111743999Y-56395941D01*
X111632945Y-56389052D01*
X111525558Y-56386802D01*
X111463750Y-56378555D01*
X111398159Y-56374486D01*
X111291251Y-56355539D01*
X111187398Y-56341682D01*
X111124308Y-56325952D01*
X111056972Y-56314018D01*
X110955471Y-56283856D01*
X110856370Y-56259147D01*
X110792941Y-56235558D01*
X110724823Y-56215316D01*
X110629871Y-56174913D01*
X110536610Y-56140230D01*
X110473822Y-56108513D01*
X110405982Y-56079647D01*
X110318551Y-56030080D01*
X110232101Y-55986411D01*
X110171024Y-55946443D01*
X110104549Y-55908757D01*
X110025445Y-55851179D01*
X109946619Y-55799597D01*
X109888335Y-55751380D01*
X109824399Y-55704843D01*
X109754307Y-55640503D01*
X109683763Y-55582144D01*
X109629374Y-55525822D01*
X109569133Y-55470525D01*
X109508518Y-55400672D01*
X109446765Y-55336725D01*
X109397377Y-55272593D01*
X109342034Y-55208816D01*
X109291237Y-55134768D01*
X109238613Y-55066434D01*
X109195309Y-54994930D01*
X109146021Y-54923082D01*
X109105183Y-54846115D01*
X109061878Y-54774610D01*
X109025702Y-54696317D01*
X108983614Y-54616995D01*
X108952736Y-54538406D01*
X108918783Y-54464924D01*
X108890719Y-54380560D01*
X108856902Y-54294490D01*
X108835810Y-54215497D01*
X108811092Y-54141193D01*
X108792056Y-54051635D01*
X108767512Y-53959715D01*
X108755891Y-53881488D01*
X108740163Y-53807495D01*
X108730971Y-53713746D01*
X108716594Y-53616972D01*
X108713994Y-53540606D01*
X108706872Y-53467970D01*
X108708224Y-53371127D01*
X108704804Y-53270668D01*
X108710653Y-53197168D01*
X108711635Y-53126832D01*
X108724105Y-53028120D01*
X108732291Y-52925256D01*
X108745911Y-52855512D01*
X108754393Y-52788371D01*
X108778408Y-52689105D01*
X108798704Y-52585175D01*
X108819327Y-52519967D01*
X108834614Y-52456777D01*
X108870447Y-52358326D01*
X108903189Y-52254799D01*
X108929973Y-52194783D01*
X108951300Y-52136187D01*
X108999059Y-52039975D01*
X109044401Y-51938375D01*
X109076438Y-51884096D01*
X109102989Y-51830608D01*
X109162616Y-51738085D01*
X109220526Y-51639970D01*
X109256896Y-51591793D01*
X109287801Y-51543838D01*
X109359030Y-51456502D01*
X109429299Y-51363421D01*
X109469039Y-51321617D01*
X109503422Y-51279459D01*
X109585836Y-51198754D01*
X109668036Y-51112284D01*
X109710205Y-51076963D01*
X109747171Y-51040763D01*
X109840137Y-50968130D01*
X109933668Y-50889787D01*
X109977331Y-50860942D01*
X110016003Y-50830728D01*
X110118721Y-50767536D01*
X110222780Y-50698791D01*
X110267050Y-50676283D01*
X110306588Y-50651959D01*
X110418086Y-50599492D01*
X110531654Y-50541751D01*
X110575679Y-50525334D01*
X110615271Y-50506704D01*
X110734391Y-50466152D01*
X110856321Y-50420686D01*
X110899335Y-50410001D01*
X110938231Y-50396760D01*
X111063659Y-50369183D01*
X111192606Y-50337152D01*
X111233905Y-50331752D01*
X111271435Y-50323500D01*
X111401743Y-50309804D01*
X111536185Y-50292224D01*
X111575159Y-50291578D01*
X111610722Y-50287840D01*
X111744331Y-50288772D01*
X111882642Y-50286479D01*
X111918774Y-50289990D01*
G37*
G36*
X86189399Y-54498459D02*
G01*
X86206269Y-54509731D01*
X86217541Y-54526601D01*
X86223948Y-54558812D01*
X86223948Y-55931188D01*
X86221499Y-55943500D01*
X86217541Y-55963399D01*
X86206269Y-55980269D01*
X86189399Y-55991541D01*
X86169500Y-55995499D01*
X86157188Y-55997948D01*
X85292812Y-55997948D01*
X85260601Y-55991541D01*
X85243731Y-55980269D01*
X85232459Y-55963399D01*
X85226052Y-55931188D01*
X85226052Y-54558812D01*
X85232459Y-54526601D01*
X85243731Y-54509731D01*
X85260601Y-54498459D01*
X85292812Y-54492052D01*
X86157188Y-54492052D01*
X86189399Y-54498459D01*
G37*
G36*
X88094399Y-54498459D02*
G01*
X88111269Y-54509731D01*
X88122541Y-54526601D01*
X88128948Y-54558812D01*
X88128948Y-55931188D01*
X88126499Y-55943500D01*
X88122541Y-55963399D01*
X88111269Y-55980269D01*
X88094399Y-55991541D01*
X88074500Y-55995499D01*
X88062188Y-55997948D01*
X87197812Y-55997948D01*
X87165601Y-55991541D01*
X87148731Y-55980269D01*
X87137459Y-55963399D01*
X87131052Y-55931188D01*
X87131052Y-54558812D01*
X87137459Y-54526601D01*
X87148731Y-54509731D01*
X87165601Y-54498459D01*
X87197812Y-54492052D01*
X88062188Y-54492052D01*
X88094399Y-54498459D01*
G37*
G36*
X91904399Y-53863459D02*
G01*
X91921269Y-53874731D01*
X91932541Y-53891601D01*
X91938948Y-53923812D01*
X91938948Y-55296188D01*
X91936499Y-55308500D01*
X91932541Y-55328399D01*
X91921269Y-55345269D01*
X91904399Y-55356541D01*
X91884500Y-55360499D01*
X91872188Y-55362948D01*
X91007812Y-55362948D01*
X90975601Y-55356541D01*
X90958731Y-55345269D01*
X90947459Y-55328399D01*
X90941052Y-55296188D01*
X90941052Y-53923812D01*
X90947459Y-53891601D01*
X90958731Y-53874731D01*
X90975601Y-53863459D01*
X91007812Y-53857052D01*
X91872188Y-53857052D01*
X91904399Y-53863459D01*
G37*
G36*
X93809399Y-53863459D02*
G01*
X93826269Y-53874731D01*
X93837541Y-53891601D01*
X93843948Y-53923812D01*
X93843948Y-55296188D01*
X93841499Y-55308500D01*
X93837541Y-55328399D01*
X93826269Y-55345269D01*
X93809399Y-55356541D01*
X93789500Y-55360499D01*
X93777188Y-55362948D01*
X92912812Y-55362948D01*
X92880601Y-55356541D01*
X92863731Y-55345269D01*
X92852459Y-55328399D01*
X92846052Y-55296188D01*
X92846052Y-53923812D01*
X92852459Y-53891601D01*
X92863731Y-53874731D01*
X92880601Y-53863459D01*
X92912812Y-53857052D01*
X93777188Y-53857052D01*
X93809399Y-53863459D01*
G37*
G36*
X80559157Y-51937794D02*
G01*
X80613764Y-51935887D01*
X80671626Y-51943197D01*
X80735961Y-51946287D01*
X80789288Y-51958060D01*
X80837430Y-51964142D01*
X80899258Y-51982339D01*
X80968128Y-51997544D01*
X81013047Y-52015829D01*
X81053709Y-52027797D01*
X81117351Y-52058289D01*
X81188340Y-52087187D01*
X81224327Y-52109543D01*
X81257022Y-52125208D01*
X81319994Y-52168975D01*
X81390300Y-52212651D01*
X81417423Y-52236689D01*
X81442151Y-52253876D01*
X81501712Y-52311394D01*
X81568233Y-52370350D01*
X81587079Y-52393832D01*
X81604327Y-52410488D01*
X81657593Y-52481690D01*
X81717051Y-52555774D01*
X81728691Y-52576730D01*
X81739376Y-52591013D01*
X81744245Y-52600325D01*
X81793140Y-52651021D01*
X81861681Y-52667234D01*
X81928107Y-52643818D01*
X81962488Y-52590334D01*
X81963146Y-52590774D01*
X81988231Y-52553231D01*
X82005101Y-52541959D01*
X82037312Y-52535552D01*
X83062688Y-52535552D01*
X83094899Y-52541959D01*
X83111769Y-52553231D01*
X83123041Y-52570101D01*
X83129448Y-52602312D01*
X83129448Y-54077688D01*
X83126999Y-54090000D01*
X83123041Y-54109899D01*
X83111769Y-54126769D01*
X83094899Y-54138041D01*
X83075000Y-54141999D01*
X83062688Y-54144448D01*
X82037312Y-54144448D01*
X82005101Y-54138041D01*
X81988231Y-54126769D01*
X81976140Y-54108674D01*
X81944420Y-54048036D01*
X81883214Y-54013185D01*
X81812882Y-54016957D01*
X81744933Y-54074617D01*
X81723427Y-54113737D01*
X81712444Y-54127794D01*
X81700372Y-54148495D01*
X81639381Y-54221311D01*
X81584630Y-54291388D01*
X81567038Y-54307678D01*
X81547703Y-54330762D01*
X81479965Y-54388310D01*
X81419208Y-54444571D01*
X81394120Y-54461239D01*
X81366506Y-54484699D01*
X81295311Y-54526888D01*
X81231430Y-54569330D01*
X81198414Y-54584307D01*
X81161963Y-54605907D01*
X81090385Y-54633312D01*
X81026117Y-54662465D01*
X80985208Y-54673580D01*
X80939922Y-54690918D01*
X80870749Y-54704677D01*
X80808555Y-54721575D01*
X80760300Y-54726647D01*
X80706733Y-54737302D01*
X80642349Y-54739044D01*
X80584342Y-54745141D01*
X80529778Y-54742090D01*
X80469061Y-54743733D01*
X80411351Y-54735468D01*
X80359244Y-54732555D01*
X80299905Y-54719509D01*
X80233704Y-54710028D01*
X80184032Y-54694032D01*
X80139053Y-54684143D01*
X80076870Y-54659523D01*
X80007391Y-54637149D01*
X79966562Y-54615849D01*
X79929438Y-54601151D01*
X79866723Y-54563765D01*
X79796593Y-54527180D01*
X79764820Y-54503019D01*
X79735787Y-54485712D01*
X79675161Y-54434841D01*
X79607337Y-54383266D01*
X79584275Y-54358578D01*
X79563083Y-54340796D01*
X79507378Y-54276261D01*
X79445034Y-54209522D01*
X79429830Y-54186419D01*
X79415769Y-54170130D01*
X79367888Y-54092302D01*
X79349772Y-54064776D01*
X79300113Y-54020005D01*
X79230608Y-54008612D01*
X79165977Y-54036605D01*
X79123363Y-54108278D01*
X79123041Y-54109899D01*
X79111769Y-54126769D01*
X79094899Y-54138041D01*
X79075000Y-54141999D01*
X79062688Y-54144448D01*
X78037312Y-54144448D01*
X78005101Y-54138041D01*
X77988231Y-54126769D01*
X77976959Y-54109899D01*
X77970552Y-54077688D01*
X77970552Y-52602312D01*
X77976959Y-52570101D01*
X77988231Y-52553231D01*
X78005101Y-52541959D01*
X78037312Y-52535552D01*
X79062688Y-52535552D01*
X79075000Y-52538001D01*
X79094899Y-52541959D01*
X79111769Y-52553231D01*
X79123041Y-52570101D01*
X79123221Y-52571008D01*
X79155867Y-52633417D01*
X79217072Y-52668270D01*
X79287404Y-52664500D01*
X79345934Y-52618249D01*
X79383893Y-52563121D01*
X79433403Y-52486297D01*
X79447804Y-52470303D01*
X79463486Y-52447528D01*
X79527201Y-52382123D01*
X79584258Y-52318754D01*
X79605822Y-52301416D01*
X79629392Y-52277221D01*
X79698275Y-52227083D01*
X79759957Y-52177489D01*
X79789345Y-52160794D01*
X79821620Y-52137302D01*
X79892503Y-52102192D01*
X79955986Y-52066129D01*
X79993412Y-52052210D01*
X80034675Y-52031772D01*
X80104594Y-52010862D01*
X80167294Y-51987544D01*
X80212486Y-51978596D01*
X80262465Y-51963649D01*
X80328830Y-51955559D01*
X80388445Y-51943755D01*
X80440605Y-51941934D01*
X80498477Y-51934879D01*
X80559157Y-51937794D01*
G37*
M02*
