G04 #@! TF.GenerationSoftware,KiCad,Pcbnew,5.99.0-unknown-d20d310~100~ubuntu19.10.1*
G04 #@! TF.CreationDate,2019-12-12T13:35:59+01:00*
G04 #@! TF.ProjectId,DEWHEAT,44455748-4541-4542-9e6b-696361645f70,rev?*
G04 #@! TF.SameCoordinates,Original*
G04 #@! TF.FileFunction,Copper,L1,Top*
G04 #@! TF.FilePolarity,Positive*
%FSLAX46Y46*%
G04 Gerber Fmt 4.6, Leading zero omitted, Abs format (unit mm)*
G04 Created by KiCad (PCBNEW 5.99.0-unknown-d20d310~100~ubuntu19.10.1) date 2019-12-12 13:35:59*
%MOMM*%
%LPD*%
G04 APERTURE LIST*
%ADD10R,3.810000X3.810000*%
%ADD11R,3.500000X2.300000*%
%ADD12R,1.524000X1.524000*%
%ADD13C,6.000000*%
%ADD14R,0.889000X1.397000*%
%ADD15R,1.397000X0.889000*%
%ADD16R,2.000000X3.500000*%
%ADD17R,7.000000X7.000000*%
%ADD18R,3.330000X3.810000*%
%ADD19R,1.500000X1.050000*%
%ADD20R,1.050000X1.500000*%
%ADD21C,0.800000*%
%ADD22C,0.500000*%
%ADD23C,1.500000*%
%ADD24C,0.250000*%
%ADD25C,0.750000*%
%ADD26C,1.000000*%
%ADD27C,0.254000*%
G04 APERTURE END LIST*
D10*
X76275000Y-74215000D03*
X79375000Y-69215000D03*
X73175000Y-69215000D03*
D11*
X70325000Y-60325000D03*
X75725000Y-60325000D03*
D12*
X95250000Y-57150000D03*
X92710000Y-57150000D03*
X90170000Y-57150000D03*
X90170000Y-82550000D03*
X92710000Y-82550000D03*
X95250000Y-82550000D03*
D13*
X111760000Y-53340000D03*
X71120000Y-83820000D03*
X71120000Y-53340000D03*
X111760000Y-83820000D03*
D14*
X85725000Y-72263000D03*
X87630000Y-72263000D03*
G04 #@! TA.AperFunction,SMDPad,CuDef*
G36*
X87837403Y-62601418D02*
G01*
X87886066Y-62633934D01*
X87918582Y-62682597D01*
X87930000Y-62740000D01*
X87930000Y-64390000D01*
X87918582Y-64447403D01*
X87886066Y-64496066D01*
X87837403Y-64528582D01*
X87780000Y-64540000D01*
X87480000Y-64540000D01*
X87422597Y-64528582D01*
X87373934Y-64496066D01*
X87341418Y-64447403D01*
X87330000Y-64390000D01*
X87330000Y-62740000D01*
X87341418Y-62682597D01*
X87373934Y-62633934D01*
X87422597Y-62601418D01*
X87480000Y-62590000D01*
X87780000Y-62590000D01*
X87837403Y-62601418D01*
G37*
G04 #@! TD.AperFunction*
G04 #@! TA.AperFunction,SMDPad,CuDef*
G36*
X89107403Y-62601418D02*
G01*
X89156066Y-62633934D01*
X89188582Y-62682597D01*
X89200000Y-62740000D01*
X89200000Y-64390000D01*
X89188582Y-64447403D01*
X89156066Y-64496066D01*
X89107403Y-64528582D01*
X89050000Y-64540000D01*
X88750000Y-64540000D01*
X88692597Y-64528582D01*
X88643934Y-64496066D01*
X88611418Y-64447403D01*
X88600000Y-64390000D01*
X88600000Y-62740000D01*
X88611418Y-62682597D01*
X88643934Y-62633934D01*
X88692597Y-62601418D01*
X88750000Y-62590000D01*
X89050000Y-62590000D01*
X89107403Y-62601418D01*
G37*
G04 #@! TD.AperFunction*
G04 #@! TA.AperFunction,SMDPad,CuDef*
G36*
X90377403Y-62601418D02*
G01*
X90426066Y-62633934D01*
X90458582Y-62682597D01*
X90470000Y-62740000D01*
X90470000Y-64390000D01*
X90458582Y-64447403D01*
X90426066Y-64496066D01*
X90377403Y-64528582D01*
X90320000Y-64540000D01*
X90020000Y-64540000D01*
X89962597Y-64528582D01*
X89913934Y-64496066D01*
X89881418Y-64447403D01*
X89870000Y-64390000D01*
X89870000Y-62740000D01*
X89881418Y-62682597D01*
X89913934Y-62633934D01*
X89962597Y-62601418D01*
X90020000Y-62590000D01*
X90320000Y-62590000D01*
X90377403Y-62601418D01*
G37*
G04 #@! TD.AperFunction*
G04 #@! TA.AperFunction,SMDPad,CuDef*
G36*
X91647403Y-62601418D02*
G01*
X91696066Y-62633934D01*
X91728582Y-62682597D01*
X91740000Y-62740000D01*
X91740000Y-64390000D01*
X91728582Y-64447403D01*
X91696066Y-64496066D01*
X91647403Y-64528582D01*
X91590000Y-64540000D01*
X91290000Y-64540000D01*
X91232597Y-64528582D01*
X91183934Y-64496066D01*
X91151418Y-64447403D01*
X91140000Y-64390000D01*
X91140000Y-62740000D01*
X91151418Y-62682597D01*
X91183934Y-62633934D01*
X91232597Y-62601418D01*
X91290000Y-62590000D01*
X91590000Y-62590000D01*
X91647403Y-62601418D01*
G37*
G04 #@! TD.AperFunction*
G04 #@! TA.AperFunction,SMDPad,CuDef*
G36*
X92917403Y-62601418D02*
G01*
X92966066Y-62633934D01*
X92998582Y-62682597D01*
X93010000Y-62740000D01*
X93010000Y-64390000D01*
X92998582Y-64447403D01*
X92966066Y-64496066D01*
X92917403Y-64528582D01*
X92860000Y-64540000D01*
X92560000Y-64540000D01*
X92502597Y-64528582D01*
X92453934Y-64496066D01*
X92421418Y-64447403D01*
X92410000Y-64390000D01*
X92410000Y-62740000D01*
X92421418Y-62682597D01*
X92453934Y-62633934D01*
X92502597Y-62601418D01*
X92560000Y-62590000D01*
X92860000Y-62590000D01*
X92917403Y-62601418D01*
G37*
G04 #@! TD.AperFunction*
G04 #@! TA.AperFunction,SMDPad,CuDef*
G36*
X94187403Y-62601418D02*
G01*
X94236066Y-62633934D01*
X94268582Y-62682597D01*
X94280000Y-62740000D01*
X94280000Y-64390000D01*
X94268582Y-64447403D01*
X94236066Y-64496066D01*
X94187403Y-64528582D01*
X94130000Y-64540000D01*
X93830000Y-64540000D01*
X93772597Y-64528582D01*
X93723934Y-64496066D01*
X93691418Y-64447403D01*
X93680000Y-64390000D01*
X93680000Y-62740000D01*
X93691418Y-62682597D01*
X93723934Y-62633934D01*
X93772597Y-62601418D01*
X93830000Y-62590000D01*
X94130000Y-62590000D01*
X94187403Y-62601418D01*
G37*
G04 #@! TD.AperFunction*
G04 #@! TA.AperFunction,SMDPad,CuDef*
G36*
X95457403Y-62601418D02*
G01*
X95506066Y-62633934D01*
X95538582Y-62682597D01*
X95550000Y-62740000D01*
X95550000Y-64390000D01*
X95538582Y-64447403D01*
X95506066Y-64496066D01*
X95457403Y-64528582D01*
X95400000Y-64540000D01*
X95100000Y-64540000D01*
X95042597Y-64528582D01*
X94993934Y-64496066D01*
X94961418Y-64447403D01*
X94950000Y-64390000D01*
X94950000Y-62740000D01*
X94961418Y-62682597D01*
X94993934Y-62633934D01*
X95042597Y-62601418D01*
X95100000Y-62590000D01*
X95400000Y-62590000D01*
X95457403Y-62601418D01*
G37*
G04 #@! TD.AperFunction*
G04 #@! TA.AperFunction,SMDPad,CuDef*
G36*
X95457403Y-67551418D02*
G01*
X95506066Y-67583934D01*
X95538582Y-67632597D01*
X95550000Y-67690000D01*
X95550000Y-69340000D01*
X95538582Y-69397403D01*
X95506066Y-69446066D01*
X95457403Y-69478582D01*
X95400000Y-69490000D01*
X95100000Y-69490000D01*
X95042597Y-69478582D01*
X94993934Y-69446066D01*
X94961418Y-69397403D01*
X94950000Y-69340000D01*
X94950000Y-67690000D01*
X94961418Y-67632597D01*
X94993934Y-67583934D01*
X95042597Y-67551418D01*
X95100000Y-67540000D01*
X95400000Y-67540000D01*
X95457403Y-67551418D01*
G37*
G04 #@! TD.AperFunction*
G04 #@! TA.AperFunction,SMDPad,CuDef*
G36*
X94187403Y-67551418D02*
G01*
X94236066Y-67583934D01*
X94268582Y-67632597D01*
X94280000Y-67690000D01*
X94280000Y-69340000D01*
X94268582Y-69397403D01*
X94236066Y-69446066D01*
X94187403Y-69478582D01*
X94130000Y-69490000D01*
X93830000Y-69490000D01*
X93772597Y-69478582D01*
X93723934Y-69446066D01*
X93691418Y-69397403D01*
X93680000Y-69340000D01*
X93680000Y-67690000D01*
X93691418Y-67632597D01*
X93723934Y-67583934D01*
X93772597Y-67551418D01*
X93830000Y-67540000D01*
X94130000Y-67540000D01*
X94187403Y-67551418D01*
G37*
G04 #@! TD.AperFunction*
G04 #@! TA.AperFunction,SMDPad,CuDef*
G36*
X92917403Y-67551418D02*
G01*
X92966066Y-67583934D01*
X92998582Y-67632597D01*
X93010000Y-67690000D01*
X93010000Y-69340000D01*
X92998582Y-69397403D01*
X92966066Y-69446066D01*
X92917403Y-69478582D01*
X92860000Y-69490000D01*
X92560000Y-69490000D01*
X92502597Y-69478582D01*
X92453934Y-69446066D01*
X92421418Y-69397403D01*
X92410000Y-69340000D01*
X92410000Y-67690000D01*
X92421418Y-67632597D01*
X92453934Y-67583934D01*
X92502597Y-67551418D01*
X92560000Y-67540000D01*
X92860000Y-67540000D01*
X92917403Y-67551418D01*
G37*
G04 #@! TD.AperFunction*
G04 #@! TA.AperFunction,SMDPad,CuDef*
G36*
X91647403Y-67551418D02*
G01*
X91696066Y-67583934D01*
X91728582Y-67632597D01*
X91740000Y-67690000D01*
X91740000Y-69340000D01*
X91728582Y-69397403D01*
X91696066Y-69446066D01*
X91647403Y-69478582D01*
X91590000Y-69490000D01*
X91290000Y-69490000D01*
X91232597Y-69478582D01*
X91183934Y-69446066D01*
X91151418Y-69397403D01*
X91140000Y-69340000D01*
X91140000Y-67690000D01*
X91151418Y-67632597D01*
X91183934Y-67583934D01*
X91232597Y-67551418D01*
X91290000Y-67540000D01*
X91590000Y-67540000D01*
X91647403Y-67551418D01*
G37*
G04 #@! TD.AperFunction*
G04 #@! TA.AperFunction,SMDPad,CuDef*
G36*
X90377403Y-67551418D02*
G01*
X90426066Y-67583934D01*
X90458582Y-67632597D01*
X90470000Y-67690000D01*
X90470000Y-69340000D01*
X90458582Y-69397403D01*
X90426066Y-69446066D01*
X90377403Y-69478582D01*
X90320000Y-69490000D01*
X90020000Y-69490000D01*
X89962597Y-69478582D01*
X89913934Y-69446066D01*
X89881418Y-69397403D01*
X89870000Y-69340000D01*
X89870000Y-67690000D01*
X89881418Y-67632597D01*
X89913934Y-67583934D01*
X89962597Y-67551418D01*
X90020000Y-67540000D01*
X90320000Y-67540000D01*
X90377403Y-67551418D01*
G37*
G04 #@! TD.AperFunction*
G04 #@! TA.AperFunction,SMDPad,CuDef*
G36*
X89107403Y-67551418D02*
G01*
X89156066Y-67583934D01*
X89188582Y-67632597D01*
X89200000Y-67690000D01*
X89200000Y-69340000D01*
X89188582Y-69397403D01*
X89156066Y-69446066D01*
X89107403Y-69478582D01*
X89050000Y-69490000D01*
X88750000Y-69490000D01*
X88692597Y-69478582D01*
X88643934Y-69446066D01*
X88611418Y-69397403D01*
X88600000Y-69340000D01*
X88600000Y-67690000D01*
X88611418Y-67632597D01*
X88643934Y-67583934D01*
X88692597Y-67551418D01*
X88750000Y-67540000D01*
X89050000Y-67540000D01*
X89107403Y-67551418D01*
G37*
G04 #@! TD.AperFunction*
G04 #@! TA.AperFunction,SMDPad,CuDef*
G36*
X87837403Y-67551418D02*
G01*
X87886066Y-67583934D01*
X87918582Y-67632597D01*
X87930000Y-67690000D01*
X87930000Y-69340000D01*
X87918582Y-69397403D01*
X87886066Y-69446066D01*
X87837403Y-69478582D01*
X87780000Y-69490000D01*
X87480000Y-69490000D01*
X87422597Y-69478582D01*
X87373934Y-69446066D01*
X87341418Y-69397403D01*
X87330000Y-69340000D01*
X87330000Y-67690000D01*
X87341418Y-67632597D01*
X87373934Y-67583934D01*
X87422597Y-67551418D01*
X87480000Y-67540000D01*
X87780000Y-67540000D01*
X87837403Y-67551418D01*
G37*
G04 #@! TD.AperFunction*
X108902500Y-67310000D03*
X110807500Y-67310000D03*
X108902500Y-69850000D03*
X110807500Y-69850000D03*
D15*
X100965000Y-63500000D03*
X100965000Y-65405000D03*
X98425000Y-70485000D03*
X98425000Y-68580000D03*
D14*
X80645000Y-58420000D03*
X82550000Y-58420000D03*
X80645000Y-79375000D03*
X78740000Y-79375000D03*
D16*
X100570000Y-60850000D03*
X105150000Y-60850000D03*
D17*
X102870000Y-53450000D03*
D16*
X105270000Y-76420000D03*
X100690000Y-76420000D03*
D17*
X102970000Y-83820000D03*
D12*
X102870000Y-66040000D03*
X105410000Y-66040000D03*
X102870000Y-71120000D03*
X105410000Y-71120000D03*
X82550000Y-83820000D03*
X82550000Y-86360000D03*
X80010000Y-83820000D03*
X80010000Y-86360000D03*
X77470000Y-83820000D03*
X77470000Y-86360000D03*
D18*
X82550000Y-79375000D03*
X76730000Y-79375000D03*
D19*
X111125000Y-60865000D03*
X111125000Y-64865000D03*
X111125000Y-76295000D03*
X111125000Y-72295000D03*
D20*
X78550000Y-53340000D03*
X82550000Y-53340000D03*
D14*
X87630000Y-55245000D03*
X85725000Y-55245000D03*
D15*
X86995000Y-79375000D03*
X86995000Y-77470000D03*
D14*
X91440000Y-54610000D03*
X93345000Y-54610000D03*
D15*
X90170000Y-77470000D03*
X90170000Y-79375000D03*
D14*
X95567500Y-59690000D03*
X97472500Y-59690000D03*
D15*
X84455000Y-66675000D03*
X84455000Y-68580000D03*
D14*
X85725000Y-59055000D03*
X87630000Y-59055000D03*
D21*
X92710000Y-61587000D03*
X83185000Y-73660000D03*
X81280000Y-60960000D03*
X83185000Y-72390000D03*
X103505000Y-62865000D03*
X103505000Y-61595000D03*
X105410000Y-63500000D03*
X99060000Y-77470000D03*
X99060000Y-76200000D03*
X99060000Y-74930000D03*
D22*
X95250000Y-63565000D02*
X95250000Y-62590000D01*
X95250000Y-62590000D02*
X94247000Y-61587000D01*
X93275685Y-61587000D02*
X92710000Y-61587000D01*
X94247000Y-61587000D02*
X93275685Y-61587000D01*
D23*
X82920000Y-77470000D02*
X82920000Y-73395000D01*
D24*
X82920000Y-73395000D02*
X83185000Y-73660000D01*
D23*
X82920000Y-73395000D02*
X82920000Y-72655000D01*
D22*
X82550000Y-54610000D02*
X82550000Y-58420000D01*
X85725000Y-60960000D02*
X81280000Y-60960000D01*
X85725000Y-59055000D02*
X85725000Y-60960000D01*
X86360000Y-53340000D02*
X85725000Y-53975000D01*
X85725000Y-53975000D02*
X85725000Y-55245000D01*
X87630000Y-57150000D02*
X85725000Y-57150000D01*
X87630000Y-59055000D02*
X87630000Y-57150000D01*
X85725000Y-57150000D02*
X85725000Y-55245000D01*
D24*
X93980000Y-68515000D02*
X93980000Y-67540000D01*
D25*
X80645000Y-58420000D02*
X80645000Y-60325000D01*
D22*
X104870000Y-54590000D02*
X104775000Y-54685000D01*
X104870000Y-53340000D02*
X104870000Y-54590000D01*
X104775000Y-54685000D02*
X104775000Y-55245000D01*
X100870000Y-56420000D02*
X100965000Y-56515000D01*
X100870000Y-53340000D02*
X100870000Y-56420000D01*
X102870000Y-56515000D02*
X103505000Y-56515000D01*
X104140000Y-56515000D02*
X102870000Y-56515000D01*
X100965000Y-61100000D02*
X101215000Y-60850000D01*
X100965000Y-63500000D02*
X100965000Y-61100000D01*
X85653500Y-66675000D02*
X84455000Y-66675000D01*
X90170000Y-67540000D02*
X89305000Y-66675000D01*
X89305000Y-66675000D02*
X85653500Y-66675000D01*
X90170000Y-68515000D02*
X90170000Y-67540000D01*
X87630000Y-63565000D02*
X87630000Y-62230000D01*
X86360000Y-60960000D02*
X85725000Y-60960000D01*
X87630000Y-62230000D02*
X86360000Y-60960000D01*
X87630000Y-63565000D02*
X87630000Y-64770000D01*
X87630000Y-64770000D02*
X88265000Y-65405000D01*
X92075000Y-65405000D02*
X92710000Y-64770000D01*
X92710000Y-64770000D02*
X92710000Y-64265010D01*
X89535000Y-65405000D02*
X91440000Y-67310000D01*
X89535000Y-65405000D02*
X92075000Y-65405000D01*
X88265000Y-65405000D02*
X89535000Y-65405000D01*
X91440000Y-67310000D02*
X91440000Y-67814990D01*
X83312000Y-72263000D02*
X83185000Y-72390000D01*
X85725000Y-72263000D02*
X83312000Y-72263000D01*
X87630000Y-68515000D02*
X87630000Y-72263000D01*
X87630000Y-76835000D02*
X86995000Y-77470000D01*
X87630000Y-72263000D02*
X87630000Y-76835000D01*
X90170000Y-77470000D02*
X86995000Y-77470000D01*
X90170000Y-79375000D02*
X90170000Y-82550000D01*
X86995000Y-79375000D02*
X86995000Y-83185000D01*
X86995000Y-83185000D02*
X88265000Y-84455000D01*
X88265000Y-84455000D02*
X94615000Y-84455000D01*
X95315010Y-83754990D02*
X95315010Y-82550000D01*
X94615000Y-84455000D02*
X95315010Y-83754990D01*
X92710000Y-76835000D02*
X92710000Y-82550000D01*
X92075000Y-76200000D02*
X92710000Y-76835000D01*
X90170000Y-76200000D02*
X92075000Y-76200000D01*
X88900000Y-74930000D02*
X90170000Y-76200000D01*
X92985000Y-70485000D02*
X93980000Y-69490000D01*
X93980000Y-69490000D02*
X93980000Y-68515000D01*
X88900000Y-70485000D02*
X92985000Y-70485000D01*
X88900000Y-70485000D02*
X88900000Y-74930000D01*
X88900000Y-68515000D02*
X88900000Y-70485000D01*
X98425000Y-67635500D02*
X97464500Y-66675000D01*
X98425000Y-68580000D02*
X98425000Y-67635500D01*
X92710000Y-67540000D02*
X92710000Y-68515000D01*
X93575000Y-66675000D02*
X92710000Y-67540000D01*
X97464500Y-66675000D02*
X93575000Y-66675000D01*
X105270000Y-74170000D02*
X105270000Y-76420000D01*
X104760000Y-73660000D02*
X105270000Y-74170000D01*
X98425000Y-72390000D02*
X99695000Y-73660000D01*
X99695000Y-73660000D02*
X104760000Y-73660000D01*
X98425000Y-70485000D02*
X98425000Y-72390000D01*
D26*
X102970000Y-83820000D02*
X107950000Y-78840000D01*
X107950000Y-57785000D02*
X107950000Y-57150000D01*
D25*
X104250000Y-53450000D02*
X102870000Y-53450000D01*
D26*
X107950000Y-57150000D02*
X104250000Y-53450000D01*
X106922000Y-66040000D02*
X105410000Y-66040000D01*
X107950000Y-65012000D02*
X106922000Y-66040000D01*
X111074999Y-73710001D02*
X111125000Y-73710001D01*
D25*
X111442500Y-62642500D02*
X111125000Y-62325000D01*
X103505000Y-67945000D02*
X108585000Y-67945000D01*
X102870000Y-66040000D02*
X102870000Y-67310000D01*
X102870000Y-67310000D02*
X103505000Y-67945000D01*
X108902500Y-67310000D02*
X108902500Y-69850000D01*
D26*
X111125000Y-65294000D02*
X111125000Y-64915001D01*
X110807500Y-67310000D02*
X110807500Y-65611500D01*
X110807500Y-65611500D02*
X111125000Y-65294000D01*
X111125000Y-71866000D02*
X111125000Y-72244999D01*
X110807500Y-69850000D02*
X110807500Y-71548500D01*
X110807500Y-71548500D02*
X111125000Y-71866000D01*
X107950000Y-73660000D02*
X107950000Y-74930000D01*
X107950000Y-72390000D02*
X107950000Y-73660000D01*
X105410000Y-71120000D02*
X106680000Y-71120000D01*
X106680000Y-71120000D02*
X107950000Y-72390000D01*
X110140999Y-76345001D02*
X111125000Y-76345001D01*
X107950000Y-76200000D02*
X109995998Y-76200000D01*
X107950000Y-76200000D02*
X107950000Y-74930000D01*
X109995998Y-76200000D02*
X110140999Y-76345001D01*
X107950000Y-78840000D02*
X107950000Y-76200000D01*
D25*
X108045000Y-60865000D02*
X107950000Y-60960000D01*
X111125000Y-60865000D02*
X108045000Y-60865000D01*
D26*
X107950000Y-57785000D02*
X107950000Y-60960000D01*
X107950000Y-60960000D02*
X107950000Y-65012000D01*
D22*
X90170000Y-57150000D02*
X89535000Y-57150000D01*
X90170000Y-57150000D02*
X90170000Y-56515000D01*
X90170000Y-56515000D02*
X88900000Y-55245000D01*
X88900000Y-55245000D02*
X87630000Y-55245000D01*
X90170000Y-63565000D02*
X90170000Y-61595000D01*
X88900000Y-63565000D02*
X88900000Y-62230000D01*
X87630000Y-60960000D02*
X87630000Y-59055000D01*
X88900000Y-62230000D02*
X87630000Y-60960000D01*
X95567500Y-59690000D02*
X93345000Y-59690000D01*
X91440000Y-61595000D02*
X91440000Y-63565000D01*
X93345000Y-59690000D02*
X91440000Y-61595000D01*
X93980000Y-64540000D02*
X93980000Y-63565000D01*
X94845000Y-65405000D02*
X93980000Y-64540000D01*
X100965000Y-65405000D02*
X94845000Y-65405000D01*
X90170000Y-61595000D02*
X92710000Y-59055000D01*
X92710000Y-59055000D02*
X92710000Y-57150000D01*
X95250000Y-56515000D02*
X93345000Y-54610000D01*
X95250000Y-57150000D02*
X95250000Y-56515000D01*
X90495500Y-54610000D02*
X89225500Y-53340000D01*
X91440000Y-54610000D02*
X90495500Y-54610000D01*
X89225500Y-53340000D02*
X86360000Y-53340000D01*
X82550000Y-54610000D02*
X82550000Y-53340000D01*
X77630000Y-60960000D02*
X76995000Y-60325000D01*
X81280000Y-60960000D02*
X77630000Y-60960000D01*
D23*
X82920000Y-72655000D02*
X83185000Y-72390000D01*
X80645000Y-60325000D02*
X81280000Y-60960000D01*
X76995000Y-60325000D02*
X80645000Y-60325000D01*
D24*
X80645000Y-86360000D02*
X80645000Y-83820000D01*
D26*
X79375000Y-76730000D02*
X76730000Y-79375000D01*
X79375000Y-69215000D02*
X79375000Y-76730000D01*
X80010000Y-86360000D02*
X80010000Y-83820000D01*
X80010000Y-82655000D02*
X76730000Y-79375000D01*
X80010000Y-83820000D02*
X80010000Y-82655000D01*
G36*
X116079000Y-88139000D02*
G01*
X66801000Y-88139000D01*
X66801000Y-59163976D01*
X73333163Y-59163976D01*
X73333163Y-61491588D01*
X73413795Y-61792512D01*
X73561185Y-61968165D01*
X73754814Y-62079956D01*
X73963976Y-62116837D01*
X77491588Y-62116837D01*
X77792512Y-62036205D01*
X77968165Y-61888815D01*
X77994039Y-61844000D01*
X80206730Y-61844000D01*
X80354468Y-61991739D01*
X80529946Y-62132828D01*
X80799290Y-62266531D01*
X81091062Y-62339278D01*
X81391650Y-62347674D01*
X81687028Y-62291327D01*
X81963415Y-62172868D01*
X82207919Y-61997819D01*
X82346418Y-61844000D01*
X85712482Y-61844000D01*
X85846203Y-61844817D01*
X85849062Y-61844000D01*
X85993837Y-61844000D01*
X86715388Y-62565551D01*
X86690262Y-62732252D01*
X86690262Y-64400121D01*
X86742438Y-64675876D01*
X86744199Y-64678927D01*
X86739798Y-64698377D01*
X86746001Y-64798354D01*
X86746001Y-64833399D01*
X86749837Y-64860186D01*
X86755477Y-64951105D01*
X86767711Y-64984995D01*
X86772819Y-65020658D01*
X86810523Y-65103585D01*
X86841592Y-65189645D01*
X86862498Y-65217897D01*
X86877624Y-65251165D01*
X86944815Y-65329143D01*
X86961421Y-65351585D01*
X86981153Y-65371316D01*
X87042913Y-65442992D01*
X87071096Y-65461259D01*
X87400837Y-65791000D01*
X85612344Y-65791000D01*
X85567315Y-65737336D01*
X85373686Y-65625544D01*
X85164524Y-65588663D01*
X83739912Y-65588663D01*
X83438989Y-65669295D01*
X83263335Y-65816685D01*
X83151544Y-66010314D01*
X83114663Y-66219476D01*
X83114663Y-67136088D01*
X83195295Y-67437012D01*
X83342685Y-67612665D01*
X83536314Y-67724456D01*
X83745476Y-67761337D01*
X85170088Y-67761337D01*
X85471012Y-67680705D01*
X85616055Y-67559000D01*
X86708839Y-67559000D01*
X86690262Y-67682252D01*
X86690262Y-69350121D01*
X86742438Y-69625875D01*
X86746000Y-69632045D01*
X86746001Y-71105655D01*
X86692336Y-71150685D01*
X86675038Y-71180647D01*
X86583315Y-71071335D01*
X86389686Y-70959544D01*
X86180524Y-70922663D01*
X85263912Y-70922663D01*
X84962989Y-71003295D01*
X84787335Y-71150685D01*
X84675544Y-71344314D01*
X84669428Y-71379000D01*
X84130550Y-71379000D01*
X83999353Y-71260872D01*
X83737893Y-71112341D01*
X83450636Y-71023420D01*
X83150986Y-70998257D01*
X82852925Y-71038028D01*
X82566998Y-71142097D01*
X82245370Y-71372360D01*
X81982513Y-71635217D01*
X81911840Y-71694941D01*
X81830815Y-71800917D01*
X81747173Y-71904946D01*
X81739576Y-71920250D01*
X81729198Y-71933824D01*
X81672802Y-72054765D01*
X81613469Y-72174292D01*
X81609336Y-72190868D01*
X81600605Y-72209591D01*
X81592575Y-72258093D01*
X81540723Y-72466063D01*
X81537186Y-72592678D01*
X81536000Y-72599842D01*
X81536000Y-72635130D01*
X81532326Y-72766649D01*
X81536000Y-72785909D01*
X81536000Y-76828163D01*
X80868412Y-76828163D01*
X80567489Y-76908795D01*
X80486200Y-76977004D01*
X80493946Y-76915691D01*
X80515068Y-76801727D01*
X80509000Y-76696498D01*
X80509000Y-71761837D01*
X81296588Y-71761837D01*
X81597512Y-71681205D01*
X81773165Y-71533815D01*
X81884956Y-71340186D01*
X81921837Y-71131024D01*
X81921837Y-67293412D01*
X81841205Y-66992489D01*
X81693815Y-66816835D01*
X81500186Y-66705044D01*
X81291024Y-66668163D01*
X77453412Y-66668163D01*
X77152489Y-66748795D01*
X76976835Y-66896185D01*
X76865044Y-67089814D01*
X76828163Y-67298976D01*
X76828163Y-71136588D01*
X76908795Y-71437512D01*
X77056185Y-71613165D01*
X77249814Y-71724956D01*
X77458976Y-71761837D01*
X78241000Y-71761837D01*
X78241001Y-76260280D01*
X77673119Y-76828163D01*
X75048412Y-76828163D01*
X74747489Y-76908795D01*
X74571835Y-77056185D01*
X74460044Y-77249814D01*
X74423163Y-77458976D01*
X74423163Y-81296588D01*
X74503795Y-81597512D01*
X74651185Y-81773165D01*
X74844814Y-81884956D01*
X75053976Y-81921837D01*
X77673119Y-81921837D01*
X78634957Y-82883675D01*
X78606163Y-83046976D01*
X78606163Y-84598588D01*
X78686795Y-84899512D01*
X78834186Y-85075165D01*
X78864147Y-85092463D01*
X78754835Y-85184185D01*
X78643044Y-85377814D01*
X78606163Y-85586976D01*
X78606163Y-87138588D01*
X78686795Y-87439512D01*
X78834185Y-87615165D01*
X79027814Y-87726956D01*
X79236976Y-87763837D01*
X80788588Y-87763837D01*
X81089512Y-87683205D01*
X81265165Y-87535815D01*
X81376956Y-87342186D01*
X81413837Y-87133024D01*
X81413837Y-85581412D01*
X81404000Y-85544699D01*
X81404000Y-84648813D01*
X81413837Y-84593024D01*
X81413837Y-83041412D01*
X81333205Y-82740489D01*
X81185815Y-82564835D01*
X81140931Y-82538922D01*
X81132269Y-82489292D01*
X81119349Y-82382517D01*
X81108729Y-82354415D01*
X81103567Y-82324832D01*
X81060347Y-82226377D01*
X81022331Y-82125768D01*
X81005316Y-82101010D01*
X80993109Y-82073203D01*
X80932519Y-81995090D01*
X80882173Y-81921837D01*
X84231588Y-81921837D01*
X84532512Y-81841205D01*
X84708165Y-81693815D01*
X84819956Y-81500186D01*
X84856837Y-81291024D01*
X84856837Y-77453412D01*
X84776205Y-77152489D01*
X84628815Y-76976835D01*
X84435186Y-76865044D01*
X84304000Y-76841912D01*
X84304000Y-73207002D01*
X84352243Y-73147000D01*
X84683923Y-73147000D01*
X84719295Y-73279012D01*
X84866685Y-73454665D01*
X85060314Y-73566456D01*
X85269476Y-73603337D01*
X86186088Y-73603337D01*
X86487012Y-73522705D01*
X86662665Y-73375315D01*
X86679963Y-73345354D01*
X86746000Y-73424055D01*
X86746001Y-76383663D01*
X86279912Y-76383663D01*
X85978989Y-76464295D01*
X85803335Y-76611685D01*
X85691544Y-76805314D01*
X85654663Y-77014476D01*
X85654663Y-77931088D01*
X85735295Y-78232012D01*
X85882685Y-78407665D01*
X85912646Y-78424963D01*
X85803335Y-78516685D01*
X85691544Y-78710314D01*
X85654663Y-78919476D01*
X85654663Y-79836088D01*
X85735295Y-80137012D01*
X85882685Y-80312665D01*
X86076313Y-80424456D01*
X86111000Y-80430572D01*
X86111001Y-83085965D01*
X86104798Y-83113377D01*
X86111001Y-83213354D01*
X86111001Y-83248399D01*
X86114837Y-83275186D01*
X86120477Y-83366105D01*
X86132711Y-83399995D01*
X86137819Y-83435658D01*
X86175523Y-83518585D01*
X86206592Y-83604645D01*
X86227498Y-83632897D01*
X86242624Y-83666165D01*
X86309815Y-83744143D01*
X86326421Y-83766585D01*
X86346153Y-83786316D01*
X86407913Y-83857992D01*
X86436096Y-83876259D01*
X87569889Y-85010053D01*
X87584886Y-85033822D01*
X87659970Y-85100134D01*
X87684747Y-85124912D01*
X87706399Y-85141139D01*
X87774680Y-85201442D01*
X87807288Y-85216752D01*
X87836121Y-85238361D01*
X87921432Y-85270342D01*
X88004244Y-85309222D01*
X88039006Y-85314418D01*
X88073224Y-85327245D01*
X88175885Y-85334875D01*
X88203487Y-85339000D01*
X88231395Y-85339000D01*
X88325742Y-85346011D01*
X88358586Y-85339000D01*
X94515970Y-85339000D01*
X94543377Y-85345202D01*
X94643338Y-85339000D01*
X94678400Y-85339000D01*
X94705192Y-85335163D01*
X94796105Y-85329523D01*
X94829985Y-85317291D01*
X94865657Y-85312183D01*
X94948603Y-85274470D01*
X95034643Y-85243409D01*
X95062895Y-85222504D01*
X95096166Y-85207376D01*
X95174157Y-85140174D01*
X95196584Y-85123579D01*
X95216308Y-85103855D01*
X95287992Y-85042088D01*
X95306259Y-85013905D01*
X95870067Y-84450098D01*
X95893831Y-84435104D01*
X95960139Y-84360025D01*
X95984923Y-84335242D01*
X96001154Y-84313585D01*
X96061452Y-84245311D01*
X96076763Y-84212698D01*
X96098371Y-84183867D01*
X96130348Y-84098566D01*
X96169232Y-84015746D01*
X96174428Y-83980984D01*
X96187255Y-83946766D01*
X96189943Y-83910603D01*
X96329512Y-83873205D01*
X96505165Y-83725815D01*
X96616956Y-83532186D01*
X96653837Y-83323024D01*
X96653837Y-81771412D01*
X96573205Y-81470489D01*
X96425815Y-81294835D01*
X96232186Y-81183044D01*
X96023024Y-81146163D01*
X94471412Y-81146163D01*
X94170489Y-81226795D01*
X93994835Y-81374185D01*
X93977537Y-81404146D01*
X93885815Y-81294835D01*
X93692186Y-81183044D01*
X93594000Y-81165731D01*
X93594000Y-76934031D01*
X93600202Y-76906624D01*
X93594000Y-76806662D01*
X93594000Y-76771600D01*
X93590163Y-76744808D01*
X93584523Y-76653894D01*
X93572291Y-76620013D01*
X93567182Y-76584343D01*
X93529471Y-76501398D01*
X93498408Y-76415354D01*
X93477502Y-76387101D01*
X93462377Y-76353836D01*
X93395179Y-76275849D01*
X93378579Y-76253414D01*
X93358843Y-76233679D01*
X93297088Y-76162009D01*
X93268908Y-76143743D01*
X92770111Y-75644947D01*
X92755114Y-75621178D01*
X92680021Y-75554858D01*
X92655251Y-75530087D01*
X92633608Y-75513868D01*
X92565320Y-75453557D01*
X92532708Y-75438246D01*
X92503879Y-75416639D01*
X92418572Y-75384660D01*
X92335755Y-75345777D01*
X92300993Y-75340582D01*
X92266775Y-75327755D01*
X92164127Y-75320127D01*
X92136513Y-75316000D01*
X92108605Y-75316000D01*
X92014258Y-75308989D01*
X91981414Y-75316000D01*
X90536165Y-75316000D01*
X89784000Y-74563836D01*
X89784000Y-71369000D01*
X92885970Y-71369000D01*
X92913377Y-71375202D01*
X93013338Y-71369000D01*
X93048400Y-71369000D01*
X93075192Y-71365163D01*
X93166105Y-71359523D01*
X93199985Y-71347291D01*
X93235657Y-71342183D01*
X93318603Y-71304470D01*
X93404643Y-71273409D01*
X93432895Y-71252504D01*
X93466166Y-71237376D01*
X93544157Y-71170174D01*
X93566584Y-71153579D01*
X93586308Y-71133855D01*
X93657992Y-71072088D01*
X93676259Y-71043905D01*
X94535057Y-70185108D01*
X94558821Y-70170114D01*
X94625129Y-70095035D01*
X94649913Y-70070252D01*
X94666138Y-70048602D01*
X94726443Y-69980320D01*
X94741755Y-69947705D01*
X94763360Y-69918879D01*
X94795336Y-69833580D01*
X94834222Y-69750756D01*
X94839418Y-69715994D01*
X94852245Y-69681776D01*
X94855743Y-69634703D01*
X94885937Y-69572004D01*
X94919738Y-69347748D01*
X94919738Y-67679879D01*
X94896867Y-67559000D01*
X97098337Y-67559000D01*
X97248390Y-67709053D01*
X97233335Y-67721685D01*
X97121544Y-67915314D01*
X97084663Y-68124476D01*
X97084663Y-69041088D01*
X97165295Y-69342012D01*
X97312685Y-69517665D01*
X97342646Y-69534963D01*
X97233335Y-69626685D01*
X97121544Y-69820314D01*
X97084663Y-70029476D01*
X97084663Y-70946088D01*
X97165295Y-71247012D01*
X97312685Y-71422665D01*
X97506313Y-71534456D01*
X97541000Y-71540572D01*
X97541001Y-72290965D01*
X97534798Y-72318377D01*
X97541001Y-72418354D01*
X97541001Y-72453399D01*
X97544837Y-72480186D01*
X97550477Y-72571105D01*
X97562711Y-72604995D01*
X97567819Y-72640658D01*
X97605523Y-72723585D01*
X97636592Y-72809645D01*
X97657498Y-72837897D01*
X97672624Y-72871165D01*
X97739815Y-72949143D01*
X97756421Y-72971585D01*
X97776153Y-72991316D01*
X97837913Y-73062992D01*
X97866096Y-73081259D01*
X98999889Y-74215053D01*
X99014886Y-74238822D01*
X99089970Y-74305134D01*
X99114747Y-74329912D01*
X99136399Y-74346139D01*
X99204680Y-74406442D01*
X99237288Y-74421752D01*
X99266121Y-74443361D01*
X99351432Y-74475342D01*
X99434244Y-74514222D01*
X99469006Y-74519418D01*
X99503224Y-74532245D01*
X99605885Y-74539875D01*
X99633487Y-74544000D01*
X99661395Y-74544000D01*
X99755742Y-74551011D01*
X99788586Y-74544000D01*
X103648436Y-74544000D01*
X103628163Y-74658976D01*
X103628163Y-78186588D01*
X103708795Y-78487512D01*
X103856185Y-78663165D01*
X104049814Y-78774956D01*
X104258976Y-78811837D01*
X106286588Y-78811837D01*
X106406604Y-78779679D01*
X105508120Y-79678163D01*
X99453412Y-79678163D01*
X99152489Y-79758795D01*
X98976835Y-79906185D01*
X98865044Y-80099814D01*
X98828163Y-80308976D01*
X98828163Y-87336588D01*
X98908795Y-87637512D01*
X99056185Y-87813165D01*
X99249814Y-87924956D01*
X99458976Y-87961837D01*
X106486588Y-87961837D01*
X106787512Y-87881205D01*
X106963165Y-87733815D01*
X107074956Y-87540186D01*
X107111837Y-87331024D01*
X107111837Y-81281880D01*
X108724048Y-79669669D01*
X108798910Y-79604362D01*
X108860746Y-79516379D01*
X108927103Y-79431753D01*
X108939464Y-79404376D01*
X108956732Y-79379806D01*
X108995790Y-79279626D01*
X109040050Y-79181600D01*
X109045522Y-79152071D01*
X109056555Y-79123772D01*
X109068945Y-79025694D01*
X109090068Y-78911727D01*
X109084000Y-78806493D01*
X109084000Y-77334000D01*
X109575596Y-77334000D01*
X109576621Y-77334463D01*
X109601195Y-77351733D01*
X109701384Y-77390796D01*
X109799399Y-77435051D01*
X109828928Y-77440523D01*
X109857227Y-77451556D01*
X109955305Y-77463946D01*
X110069272Y-77485069D01*
X110174501Y-77479001D01*
X111193772Y-77479001D01*
X111335605Y-77461837D01*
X111891588Y-77461837D01*
X112192512Y-77381205D01*
X112368165Y-77233815D01*
X112479956Y-77040186D01*
X112516837Y-76831024D01*
X112516837Y-75753412D01*
X112507533Y-75718690D01*
X112637676Y-75586948D01*
X112808333Y-75355051D01*
X112943726Y-75100948D01*
X113041020Y-74829962D01*
X113098517Y-74546088D01*
X113109455Y-74154467D01*
X113067894Y-73867827D01*
X112985879Y-73591832D01*
X112864881Y-73330568D01*
X112707435Y-73089507D01*
X112516840Y-72873700D01*
X112510290Y-72868155D01*
X112516837Y-72831024D01*
X112516837Y-71753412D01*
X112436205Y-71452489D01*
X112288815Y-71276835D01*
X112095186Y-71165044D01*
X112008845Y-71149820D01*
X111981869Y-71110569D01*
X111941500Y-71074602D01*
X111941500Y-69781228D01*
X111916849Y-69577518D01*
X111893837Y-69516619D01*
X111893837Y-69134912D01*
X111813205Y-68833989D01*
X111665815Y-68658335D01*
X111530437Y-68580175D01*
X111569512Y-68569705D01*
X111745165Y-68422315D01*
X111856956Y-68228686D01*
X111893837Y-68019524D01*
X111893837Y-67645629D01*
X111914055Y-67593772D01*
X111941500Y-67376527D01*
X111941500Y-66086636D01*
X111973910Y-66058363D01*
X112015978Y-65998507D01*
X112192512Y-65951205D01*
X112368165Y-65803815D01*
X112479956Y-65610186D01*
X112516837Y-65401024D01*
X112516837Y-64323412D01*
X112507533Y-64288690D01*
X112637676Y-64156948D01*
X112808333Y-63925051D01*
X112943726Y-63670948D01*
X113041020Y-63399962D01*
X113098517Y-63116088D01*
X113109455Y-62724467D01*
X113067894Y-62437827D01*
X112985879Y-62161832D01*
X112864881Y-61900568D01*
X112707435Y-61659507D01*
X112516840Y-61443700D01*
X112510290Y-61438155D01*
X112516837Y-61401024D01*
X112516837Y-60323412D01*
X112436205Y-60022489D01*
X112288815Y-59846835D01*
X112095186Y-59735044D01*
X111886024Y-59698163D01*
X110358412Y-59698163D01*
X110057489Y-59778795D01*
X109965479Y-59856000D01*
X109084000Y-59856000D01*
X109084000Y-57189306D01*
X109090755Y-57090215D01*
X109072270Y-56984295D01*
X109059349Y-56877520D01*
X109048729Y-56849413D01*
X109043566Y-56819830D01*
X109000346Y-56721375D01*
X108962331Y-56620768D01*
X108945316Y-56596010D01*
X108933109Y-56568203D01*
X108872519Y-56490090D01*
X108806868Y-56394569D01*
X108728149Y-56324432D01*
X107011837Y-54608120D01*
X107011837Y-49933412D01*
X106931205Y-49632489D01*
X106783815Y-49456835D01*
X106590186Y-49345044D01*
X106381024Y-49308163D01*
X99353412Y-49308163D01*
X99052489Y-49388795D01*
X98876835Y-49536185D01*
X98765044Y-49729814D01*
X98728163Y-49938976D01*
X98728163Y-56966588D01*
X98808795Y-57267512D01*
X98956185Y-57443165D01*
X99149814Y-57554956D01*
X99358976Y-57591837D01*
X106386588Y-57591837D01*
X106687512Y-57511205D01*
X106698374Y-57502091D01*
X106816000Y-57619717D01*
X106816001Y-64542281D01*
X106577974Y-64780308D01*
X106392186Y-64673044D01*
X106183024Y-64636163D01*
X104631412Y-64636163D01*
X104330489Y-64716795D01*
X104154835Y-64864185D01*
X104137537Y-64894146D01*
X104045815Y-64784835D01*
X103852186Y-64673044D01*
X103643024Y-64636163D01*
X102218977Y-64636163D01*
X102077315Y-64467335D01*
X102047354Y-64450037D01*
X102156665Y-64358315D01*
X102268456Y-64164686D01*
X102305337Y-63955524D01*
X102305337Y-63038912D01*
X102224705Y-62737989D01*
X102195572Y-62703269D01*
X102211837Y-62611024D01*
X102211837Y-59083412D01*
X102131205Y-58782489D01*
X101983815Y-58606835D01*
X101790186Y-58495044D01*
X101581024Y-58458163D01*
X99553412Y-58458163D01*
X99252489Y-58538795D01*
X99076835Y-58686185D01*
X98965044Y-58879814D01*
X98928163Y-59088976D01*
X98928163Y-62616588D01*
X99008795Y-62917512D01*
X99156185Y-63093165D01*
X99349814Y-63204956D01*
X99558976Y-63241837D01*
X99624663Y-63241837D01*
X99624663Y-63961088D01*
X99705295Y-64262012D01*
X99852685Y-64437665D01*
X99882646Y-64454963D01*
X99803945Y-64521000D01*
X96171161Y-64521000D01*
X96189738Y-64397748D01*
X96189738Y-62729879D01*
X96137562Y-62454124D01*
X96126097Y-62434266D01*
X96124523Y-62408894D01*
X96112291Y-62375013D01*
X96107182Y-62339343D01*
X96069471Y-62256398D01*
X96038408Y-62170354D01*
X96017502Y-62142102D01*
X96002378Y-62108836D01*
X95935181Y-62030850D01*
X95918578Y-62008413D01*
X95898848Y-61988684D01*
X95837089Y-61917009D01*
X95808906Y-61898741D01*
X94942111Y-61031947D01*
X94927114Y-61008178D01*
X94912348Y-60995137D01*
X95111976Y-61030337D01*
X96028588Y-61030337D01*
X96329512Y-60949705D01*
X96505165Y-60802315D01*
X96616956Y-60608686D01*
X96653837Y-60399524D01*
X96653837Y-58974912D01*
X96573205Y-58673989D01*
X96425815Y-58498335D01*
X96351024Y-58455155D01*
X96505165Y-58325815D01*
X96616956Y-58132186D01*
X96653837Y-57923024D01*
X96653837Y-56371412D01*
X96573205Y-56070489D01*
X96425815Y-55894835D01*
X96232186Y-55783044D01*
X96023024Y-55746163D01*
X95731327Y-55746163D01*
X94431337Y-54446174D01*
X94431337Y-53894912D01*
X94350705Y-53593989D01*
X94203315Y-53418335D01*
X94009686Y-53306544D01*
X93800524Y-53269663D01*
X92883912Y-53269663D01*
X92582989Y-53350295D01*
X92407335Y-53497685D01*
X92390037Y-53527646D01*
X92298315Y-53418335D01*
X92104686Y-53306544D01*
X91895524Y-53269663D01*
X90978912Y-53269663D01*
X90677989Y-53350295D01*
X90573574Y-53437909D01*
X89920611Y-52784947D01*
X89905614Y-52761178D01*
X89830521Y-52694858D01*
X89805751Y-52670087D01*
X89784108Y-52653868D01*
X89715820Y-52593557D01*
X89683208Y-52578246D01*
X89654379Y-52556639D01*
X89569072Y-52524660D01*
X89486255Y-52485777D01*
X89451493Y-52480582D01*
X89417275Y-52467755D01*
X89314627Y-52460127D01*
X89287013Y-52456000D01*
X89259105Y-52456000D01*
X89164758Y-52448989D01*
X89131914Y-52456000D01*
X86459031Y-52456000D01*
X86431624Y-52449798D01*
X86331662Y-52456000D01*
X86296600Y-52456000D01*
X86269808Y-52459837D01*
X86178894Y-52465477D01*
X86145013Y-52477709D01*
X86109343Y-52482818D01*
X86026398Y-52520529D01*
X85940354Y-52551592D01*
X85912102Y-52572498D01*
X85878836Y-52587622D01*
X85800850Y-52654819D01*
X85778413Y-52671422D01*
X85758684Y-52691152D01*
X85687009Y-52752911D01*
X85668741Y-52781094D01*
X85169947Y-53279889D01*
X85146177Y-53294886D01*
X85079860Y-53369977D01*
X85055089Y-53394747D01*
X85038860Y-53416400D01*
X84978557Y-53484681D01*
X84963248Y-53517290D01*
X84941639Y-53546122D01*
X84909658Y-53631433D01*
X84870778Y-53714245D01*
X84865582Y-53749007D01*
X84852755Y-53783225D01*
X84845125Y-53885886D01*
X84841000Y-53913488D01*
X84841000Y-53941395D01*
X84833989Y-54035742D01*
X84841000Y-54068586D01*
X84841000Y-54087655D01*
X84787335Y-54132685D01*
X84675544Y-54326314D01*
X84638663Y-54535476D01*
X84638663Y-55960088D01*
X84719295Y-56261012D01*
X84841000Y-56406055D01*
X84841000Y-57137476D01*
X84840183Y-57271204D01*
X84858414Y-57334991D01*
X84867818Y-57400657D01*
X84893026Y-57456101D01*
X84909767Y-57514672D01*
X84945166Y-57570776D01*
X84972623Y-57631163D01*
X85012381Y-57677304D01*
X85044886Y-57728822D01*
X85083569Y-57762986D01*
X84962989Y-57795295D01*
X84787335Y-57942685D01*
X84675544Y-58136314D01*
X84638663Y-58345476D01*
X84638663Y-59770088D01*
X84719295Y-60071012D01*
X84723480Y-60076000D01*
X82337468Y-60076000D01*
X82297640Y-60020369D01*
X82025433Y-59748163D01*
X82094476Y-59760337D01*
X83011088Y-59760337D01*
X83312012Y-59679705D01*
X83487665Y-59532315D01*
X83599456Y-59338686D01*
X83636337Y-59129524D01*
X83636337Y-57704912D01*
X83555705Y-57403989D01*
X83434000Y-57258945D01*
X83434000Y-54616393D01*
X83568165Y-54503815D01*
X83679956Y-54310186D01*
X83716837Y-54101024D01*
X83716837Y-52573412D01*
X83636205Y-52272489D01*
X83488815Y-52096835D01*
X83295186Y-51985044D01*
X83086024Y-51948163D01*
X82008412Y-51948163D01*
X81975621Y-51956949D01*
X81941840Y-51918700D01*
X81722089Y-51732666D01*
X81477783Y-51580303D01*
X81214042Y-51464803D01*
X80936391Y-51388586D01*
X80650644Y-51353248D01*
X80362790Y-51359528D01*
X80078858Y-51407297D01*
X79804795Y-51495553D01*
X79546343Y-51622447D01*
X79308917Y-51785321D01*
X79097488Y-51980763D01*
X78916487Y-52204679D01*
X78769707Y-52452379D01*
X78660221Y-52718672D01*
X78590322Y-52997981D01*
X78561475Y-53284456D01*
X78574286Y-53572093D01*
X78628483Y-53854869D01*
X78722935Y-54126859D01*
X78855659Y-54382365D01*
X79023878Y-54616036D01*
X79224067Y-54822976D01*
X79452032Y-54998849D01*
X79702997Y-55139973D01*
X79971706Y-55243389D01*
X80252529Y-55306933D01*
X80539584Y-55329272D01*
X80826857Y-55309941D01*
X81108330Y-55249341D01*
X81378107Y-55148744D01*
X81630537Y-55010256D01*
X81666000Y-54983484D01*
X81666001Y-57262655D01*
X81612336Y-57307685D01*
X81595038Y-57337647D01*
X81503315Y-57228335D01*
X81309686Y-57116544D01*
X81100524Y-57079663D01*
X80183912Y-57079663D01*
X79882989Y-57160295D01*
X79707335Y-57307685D01*
X79595544Y-57501314D01*
X79558663Y-57710476D01*
X79558663Y-58941000D01*
X78058582Y-58941000D01*
X78036205Y-58857489D01*
X77888815Y-58681835D01*
X77695186Y-58570044D01*
X77486024Y-58533163D01*
X73958412Y-58533163D01*
X73657489Y-58613795D01*
X73481835Y-58761185D01*
X73370044Y-58954814D01*
X73333163Y-59163976D01*
X66801000Y-59163976D01*
X66801000Y-49021000D01*
X116079000Y-49021000D01*
X116079000Y-88139000D01*
G37*
D27*
X116079000Y-88139000D02*
X66801000Y-88139000D01*
X66801000Y-59163976D01*
X73333163Y-59163976D01*
X73333163Y-61491588D01*
X73413795Y-61792512D01*
X73561185Y-61968165D01*
X73754814Y-62079956D01*
X73963976Y-62116837D01*
X77491588Y-62116837D01*
X77792512Y-62036205D01*
X77968165Y-61888815D01*
X77994039Y-61844000D01*
X80206730Y-61844000D01*
X80354468Y-61991739D01*
X80529946Y-62132828D01*
X80799290Y-62266531D01*
X81091062Y-62339278D01*
X81391650Y-62347674D01*
X81687028Y-62291327D01*
X81963415Y-62172868D01*
X82207919Y-61997819D01*
X82346418Y-61844000D01*
X85712482Y-61844000D01*
X85846203Y-61844817D01*
X85849062Y-61844000D01*
X85993837Y-61844000D01*
X86715388Y-62565551D01*
X86690262Y-62732252D01*
X86690262Y-64400121D01*
X86742438Y-64675876D01*
X86744199Y-64678927D01*
X86739798Y-64698377D01*
X86746001Y-64798354D01*
X86746001Y-64833399D01*
X86749837Y-64860186D01*
X86755477Y-64951105D01*
X86767711Y-64984995D01*
X86772819Y-65020658D01*
X86810523Y-65103585D01*
X86841592Y-65189645D01*
X86862498Y-65217897D01*
X86877624Y-65251165D01*
X86944815Y-65329143D01*
X86961421Y-65351585D01*
X86981153Y-65371316D01*
X87042913Y-65442992D01*
X87071096Y-65461259D01*
X87400837Y-65791000D01*
X85612344Y-65791000D01*
X85567315Y-65737336D01*
X85373686Y-65625544D01*
X85164524Y-65588663D01*
X83739912Y-65588663D01*
X83438989Y-65669295D01*
X83263335Y-65816685D01*
X83151544Y-66010314D01*
X83114663Y-66219476D01*
X83114663Y-67136088D01*
X83195295Y-67437012D01*
X83342685Y-67612665D01*
X83536314Y-67724456D01*
X83745476Y-67761337D01*
X85170088Y-67761337D01*
X85471012Y-67680705D01*
X85616055Y-67559000D01*
X86708839Y-67559000D01*
X86690262Y-67682252D01*
X86690262Y-69350121D01*
X86742438Y-69625875D01*
X86746000Y-69632045D01*
X86746001Y-71105655D01*
X86692336Y-71150685D01*
X86675038Y-71180647D01*
X86583315Y-71071335D01*
X86389686Y-70959544D01*
X86180524Y-70922663D01*
X85263912Y-70922663D01*
X84962989Y-71003295D01*
X84787335Y-71150685D01*
X84675544Y-71344314D01*
X84669428Y-71379000D01*
X84130550Y-71379000D01*
X83999353Y-71260872D01*
X83737893Y-71112341D01*
X83450636Y-71023420D01*
X83150986Y-70998257D01*
X82852925Y-71038028D01*
X82566998Y-71142097D01*
X82245370Y-71372360D01*
X81982513Y-71635217D01*
X81911840Y-71694941D01*
X81830815Y-71800917D01*
X81747173Y-71904946D01*
X81739576Y-71920250D01*
X81729198Y-71933824D01*
X81672802Y-72054765D01*
X81613469Y-72174292D01*
X81609336Y-72190868D01*
X81600605Y-72209591D01*
X81592575Y-72258093D01*
X81540723Y-72466063D01*
X81537186Y-72592678D01*
X81536000Y-72599842D01*
X81536000Y-72635130D01*
X81532326Y-72766649D01*
X81536000Y-72785909D01*
X81536000Y-76828163D01*
X80868412Y-76828163D01*
X80567489Y-76908795D01*
X80486200Y-76977004D01*
X80493946Y-76915691D01*
X80515068Y-76801727D01*
X80509000Y-76696498D01*
X80509000Y-71761837D01*
X81296588Y-71761837D01*
X81597512Y-71681205D01*
X81773165Y-71533815D01*
X81884956Y-71340186D01*
X81921837Y-71131024D01*
X81921837Y-67293412D01*
X81841205Y-66992489D01*
X81693815Y-66816835D01*
X81500186Y-66705044D01*
X81291024Y-66668163D01*
X77453412Y-66668163D01*
X77152489Y-66748795D01*
X76976835Y-66896185D01*
X76865044Y-67089814D01*
X76828163Y-67298976D01*
X76828163Y-71136588D01*
X76908795Y-71437512D01*
X77056185Y-71613165D01*
X77249814Y-71724956D01*
X77458976Y-71761837D01*
X78241000Y-71761837D01*
X78241001Y-76260280D01*
X77673119Y-76828163D01*
X75048412Y-76828163D01*
X74747489Y-76908795D01*
X74571835Y-77056185D01*
X74460044Y-77249814D01*
X74423163Y-77458976D01*
X74423163Y-81296588D01*
X74503795Y-81597512D01*
X74651185Y-81773165D01*
X74844814Y-81884956D01*
X75053976Y-81921837D01*
X77673119Y-81921837D01*
X78634957Y-82883675D01*
X78606163Y-83046976D01*
X78606163Y-84598588D01*
X78686795Y-84899512D01*
X78834186Y-85075165D01*
X78864147Y-85092463D01*
X78754835Y-85184185D01*
X78643044Y-85377814D01*
X78606163Y-85586976D01*
X78606163Y-87138588D01*
X78686795Y-87439512D01*
X78834185Y-87615165D01*
X79027814Y-87726956D01*
X79236976Y-87763837D01*
X80788588Y-87763837D01*
X81089512Y-87683205D01*
X81265165Y-87535815D01*
X81376956Y-87342186D01*
X81413837Y-87133024D01*
X81413837Y-85581412D01*
X81404000Y-85544699D01*
X81404000Y-84648813D01*
X81413837Y-84593024D01*
X81413837Y-83041412D01*
X81333205Y-82740489D01*
X81185815Y-82564835D01*
X81140931Y-82538922D01*
X81132269Y-82489292D01*
X81119349Y-82382517D01*
X81108729Y-82354415D01*
X81103567Y-82324832D01*
X81060347Y-82226377D01*
X81022331Y-82125768D01*
X81005316Y-82101010D01*
X80993109Y-82073203D01*
X80932519Y-81995090D01*
X80882173Y-81921837D01*
X84231588Y-81921837D01*
X84532512Y-81841205D01*
X84708165Y-81693815D01*
X84819956Y-81500186D01*
X84856837Y-81291024D01*
X84856837Y-77453412D01*
X84776205Y-77152489D01*
X84628815Y-76976835D01*
X84435186Y-76865044D01*
X84304000Y-76841912D01*
X84304000Y-73207002D01*
X84352243Y-73147000D01*
X84683923Y-73147000D01*
X84719295Y-73279012D01*
X84866685Y-73454665D01*
X85060314Y-73566456D01*
X85269476Y-73603337D01*
X86186088Y-73603337D01*
X86487012Y-73522705D01*
X86662665Y-73375315D01*
X86679963Y-73345354D01*
X86746000Y-73424055D01*
X86746001Y-76383663D01*
X86279912Y-76383663D01*
X85978989Y-76464295D01*
X85803335Y-76611685D01*
X85691544Y-76805314D01*
X85654663Y-77014476D01*
X85654663Y-77931088D01*
X85735295Y-78232012D01*
X85882685Y-78407665D01*
X85912646Y-78424963D01*
X85803335Y-78516685D01*
X85691544Y-78710314D01*
X85654663Y-78919476D01*
X85654663Y-79836088D01*
X85735295Y-80137012D01*
X85882685Y-80312665D01*
X86076313Y-80424456D01*
X86111000Y-80430572D01*
X86111001Y-83085965D01*
X86104798Y-83113377D01*
X86111001Y-83213354D01*
X86111001Y-83248399D01*
X86114837Y-83275186D01*
X86120477Y-83366105D01*
X86132711Y-83399995D01*
X86137819Y-83435658D01*
X86175523Y-83518585D01*
X86206592Y-83604645D01*
X86227498Y-83632897D01*
X86242624Y-83666165D01*
X86309815Y-83744143D01*
X86326421Y-83766585D01*
X86346153Y-83786316D01*
X86407913Y-83857992D01*
X86436096Y-83876259D01*
X87569889Y-85010053D01*
X87584886Y-85033822D01*
X87659970Y-85100134D01*
X87684747Y-85124912D01*
X87706399Y-85141139D01*
X87774680Y-85201442D01*
X87807288Y-85216752D01*
X87836121Y-85238361D01*
X87921432Y-85270342D01*
X88004244Y-85309222D01*
X88039006Y-85314418D01*
X88073224Y-85327245D01*
X88175885Y-85334875D01*
X88203487Y-85339000D01*
X88231395Y-85339000D01*
X88325742Y-85346011D01*
X88358586Y-85339000D01*
X94515970Y-85339000D01*
X94543377Y-85345202D01*
X94643338Y-85339000D01*
X94678400Y-85339000D01*
X94705192Y-85335163D01*
X94796105Y-85329523D01*
X94829985Y-85317291D01*
X94865657Y-85312183D01*
X94948603Y-85274470D01*
X95034643Y-85243409D01*
X95062895Y-85222504D01*
X95096166Y-85207376D01*
X95174157Y-85140174D01*
X95196584Y-85123579D01*
X95216308Y-85103855D01*
X95287992Y-85042088D01*
X95306259Y-85013905D01*
X95870067Y-84450098D01*
X95893831Y-84435104D01*
X95960139Y-84360025D01*
X95984923Y-84335242D01*
X96001154Y-84313585D01*
X96061452Y-84245311D01*
X96076763Y-84212698D01*
X96098371Y-84183867D01*
X96130348Y-84098566D01*
X96169232Y-84015746D01*
X96174428Y-83980984D01*
X96187255Y-83946766D01*
X96189943Y-83910603D01*
X96329512Y-83873205D01*
X96505165Y-83725815D01*
X96616956Y-83532186D01*
X96653837Y-83323024D01*
X96653837Y-81771412D01*
X96573205Y-81470489D01*
X96425815Y-81294835D01*
X96232186Y-81183044D01*
X96023024Y-81146163D01*
X94471412Y-81146163D01*
X94170489Y-81226795D01*
X93994835Y-81374185D01*
X93977537Y-81404146D01*
X93885815Y-81294835D01*
X93692186Y-81183044D01*
X93594000Y-81165731D01*
X93594000Y-76934031D01*
X93600202Y-76906624D01*
X93594000Y-76806662D01*
X93594000Y-76771600D01*
X93590163Y-76744808D01*
X93584523Y-76653894D01*
X93572291Y-76620013D01*
X93567182Y-76584343D01*
X93529471Y-76501398D01*
X93498408Y-76415354D01*
X93477502Y-76387101D01*
X93462377Y-76353836D01*
X93395179Y-76275849D01*
X93378579Y-76253414D01*
X93358843Y-76233679D01*
X93297088Y-76162009D01*
X93268908Y-76143743D01*
X92770111Y-75644947D01*
X92755114Y-75621178D01*
X92680021Y-75554858D01*
X92655251Y-75530087D01*
X92633608Y-75513868D01*
X92565320Y-75453557D01*
X92532708Y-75438246D01*
X92503879Y-75416639D01*
X92418572Y-75384660D01*
X92335755Y-75345777D01*
X92300993Y-75340582D01*
X92266775Y-75327755D01*
X92164127Y-75320127D01*
X92136513Y-75316000D01*
X92108605Y-75316000D01*
X92014258Y-75308989D01*
X91981414Y-75316000D01*
X90536165Y-75316000D01*
X89784000Y-74563836D01*
X89784000Y-71369000D01*
X92885970Y-71369000D01*
X92913377Y-71375202D01*
X93013338Y-71369000D01*
X93048400Y-71369000D01*
X93075192Y-71365163D01*
X93166105Y-71359523D01*
X93199985Y-71347291D01*
X93235657Y-71342183D01*
X93318603Y-71304470D01*
X93404643Y-71273409D01*
X93432895Y-71252504D01*
X93466166Y-71237376D01*
X93544157Y-71170174D01*
X93566584Y-71153579D01*
X93586308Y-71133855D01*
X93657992Y-71072088D01*
X93676259Y-71043905D01*
X94535057Y-70185108D01*
X94558821Y-70170114D01*
X94625129Y-70095035D01*
X94649913Y-70070252D01*
X94666138Y-70048602D01*
X94726443Y-69980320D01*
X94741755Y-69947705D01*
X94763360Y-69918879D01*
X94795336Y-69833580D01*
X94834222Y-69750756D01*
X94839418Y-69715994D01*
X94852245Y-69681776D01*
X94855743Y-69634703D01*
X94885937Y-69572004D01*
X94919738Y-69347748D01*
X94919738Y-67679879D01*
X94896867Y-67559000D01*
X97098337Y-67559000D01*
X97248390Y-67709053D01*
X97233335Y-67721685D01*
X97121544Y-67915314D01*
X97084663Y-68124476D01*
X97084663Y-69041088D01*
X97165295Y-69342012D01*
X97312685Y-69517665D01*
X97342646Y-69534963D01*
X97233335Y-69626685D01*
X97121544Y-69820314D01*
X97084663Y-70029476D01*
X97084663Y-70946088D01*
X97165295Y-71247012D01*
X97312685Y-71422665D01*
X97506313Y-71534456D01*
X97541000Y-71540572D01*
X97541001Y-72290965D01*
X97534798Y-72318377D01*
X97541001Y-72418354D01*
X97541001Y-72453399D01*
X97544837Y-72480186D01*
X97550477Y-72571105D01*
X97562711Y-72604995D01*
X97567819Y-72640658D01*
X97605523Y-72723585D01*
X97636592Y-72809645D01*
X97657498Y-72837897D01*
X97672624Y-72871165D01*
X97739815Y-72949143D01*
X97756421Y-72971585D01*
X97776153Y-72991316D01*
X97837913Y-73062992D01*
X97866096Y-73081259D01*
X98999889Y-74215053D01*
X99014886Y-74238822D01*
X99089970Y-74305134D01*
X99114747Y-74329912D01*
X99136399Y-74346139D01*
X99204680Y-74406442D01*
X99237288Y-74421752D01*
X99266121Y-74443361D01*
X99351432Y-74475342D01*
X99434244Y-74514222D01*
X99469006Y-74519418D01*
X99503224Y-74532245D01*
X99605885Y-74539875D01*
X99633487Y-74544000D01*
X99661395Y-74544000D01*
X99755742Y-74551011D01*
X99788586Y-74544000D01*
X103648436Y-74544000D01*
X103628163Y-74658976D01*
X103628163Y-78186588D01*
X103708795Y-78487512D01*
X103856185Y-78663165D01*
X104049814Y-78774956D01*
X104258976Y-78811837D01*
X106286588Y-78811837D01*
X106406604Y-78779679D01*
X105508120Y-79678163D01*
X99453412Y-79678163D01*
X99152489Y-79758795D01*
X98976835Y-79906185D01*
X98865044Y-80099814D01*
X98828163Y-80308976D01*
X98828163Y-87336588D01*
X98908795Y-87637512D01*
X99056185Y-87813165D01*
X99249814Y-87924956D01*
X99458976Y-87961837D01*
X106486588Y-87961837D01*
X106787512Y-87881205D01*
X106963165Y-87733815D01*
X107074956Y-87540186D01*
X107111837Y-87331024D01*
X107111837Y-81281880D01*
X108724048Y-79669669D01*
X108798910Y-79604362D01*
X108860746Y-79516379D01*
X108927103Y-79431753D01*
X108939464Y-79404376D01*
X108956732Y-79379806D01*
X108995790Y-79279626D01*
X109040050Y-79181600D01*
X109045522Y-79152071D01*
X109056555Y-79123772D01*
X109068945Y-79025694D01*
X109090068Y-78911727D01*
X109084000Y-78806493D01*
X109084000Y-77334000D01*
X109575596Y-77334000D01*
X109576621Y-77334463D01*
X109601195Y-77351733D01*
X109701384Y-77390796D01*
X109799399Y-77435051D01*
X109828928Y-77440523D01*
X109857227Y-77451556D01*
X109955305Y-77463946D01*
X110069272Y-77485069D01*
X110174501Y-77479001D01*
X111193772Y-77479001D01*
X111335605Y-77461837D01*
X111891588Y-77461837D01*
X112192512Y-77381205D01*
X112368165Y-77233815D01*
X112479956Y-77040186D01*
X112516837Y-76831024D01*
X112516837Y-75753412D01*
X112507533Y-75718690D01*
X112637676Y-75586948D01*
X112808333Y-75355051D01*
X112943726Y-75100948D01*
X113041020Y-74829962D01*
X113098517Y-74546088D01*
X113109455Y-74154467D01*
X113067894Y-73867827D01*
X112985879Y-73591832D01*
X112864881Y-73330568D01*
X112707435Y-73089507D01*
X112516840Y-72873700D01*
X112510290Y-72868155D01*
X112516837Y-72831024D01*
X112516837Y-71753412D01*
X112436205Y-71452489D01*
X112288815Y-71276835D01*
X112095186Y-71165044D01*
X112008845Y-71149820D01*
X111981869Y-71110569D01*
X111941500Y-71074602D01*
X111941500Y-69781228D01*
X111916849Y-69577518D01*
X111893837Y-69516619D01*
X111893837Y-69134912D01*
X111813205Y-68833989D01*
X111665815Y-68658335D01*
X111530437Y-68580175D01*
X111569512Y-68569705D01*
X111745165Y-68422315D01*
X111856956Y-68228686D01*
X111893837Y-68019524D01*
X111893837Y-67645629D01*
X111914055Y-67593772D01*
X111941500Y-67376527D01*
X111941500Y-66086636D01*
X111973910Y-66058363D01*
X112015978Y-65998507D01*
X112192512Y-65951205D01*
X112368165Y-65803815D01*
X112479956Y-65610186D01*
X112516837Y-65401024D01*
X112516837Y-64323412D01*
X112507533Y-64288690D01*
X112637676Y-64156948D01*
X112808333Y-63925051D01*
X112943726Y-63670948D01*
X113041020Y-63399962D01*
X113098517Y-63116088D01*
X113109455Y-62724467D01*
X113067894Y-62437827D01*
X112985879Y-62161832D01*
X112864881Y-61900568D01*
X112707435Y-61659507D01*
X112516840Y-61443700D01*
X112510290Y-61438155D01*
X112516837Y-61401024D01*
X112516837Y-60323412D01*
X112436205Y-60022489D01*
X112288815Y-59846835D01*
X112095186Y-59735044D01*
X111886024Y-59698163D01*
X110358412Y-59698163D01*
X110057489Y-59778795D01*
X109965479Y-59856000D01*
X109084000Y-59856000D01*
X109084000Y-57189306D01*
X109090755Y-57090215D01*
X109072270Y-56984295D01*
X109059349Y-56877520D01*
X109048729Y-56849413D01*
X109043566Y-56819830D01*
X109000346Y-56721375D01*
X108962331Y-56620768D01*
X108945316Y-56596010D01*
X108933109Y-56568203D01*
X108872519Y-56490090D01*
X108806868Y-56394569D01*
X108728149Y-56324432D01*
X107011837Y-54608120D01*
X107011837Y-49933412D01*
X106931205Y-49632489D01*
X106783815Y-49456835D01*
X106590186Y-49345044D01*
X106381024Y-49308163D01*
X99353412Y-49308163D01*
X99052489Y-49388795D01*
X98876835Y-49536185D01*
X98765044Y-49729814D01*
X98728163Y-49938976D01*
X98728163Y-56966588D01*
X98808795Y-57267512D01*
X98956185Y-57443165D01*
X99149814Y-57554956D01*
X99358976Y-57591837D01*
X106386588Y-57591837D01*
X106687512Y-57511205D01*
X106698374Y-57502091D01*
X106816000Y-57619717D01*
X106816001Y-64542281D01*
X106577974Y-64780308D01*
X106392186Y-64673044D01*
X106183024Y-64636163D01*
X104631412Y-64636163D01*
X104330489Y-64716795D01*
X104154835Y-64864185D01*
X104137537Y-64894146D01*
X104045815Y-64784835D01*
X103852186Y-64673044D01*
X103643024Y-64636163D01*
X102218977Y-64636163D01*
X102077315Y-64467335D01*
X102047354Y-64450037D01*
X102156665Y-64358315D01*
X102268456Y-64164686D01*
X102305337Y-63955524D01*
X102305337Y-63038912D01*
X102224705Y-62737989D01*
X102195572Y-62703269D01*
X102211837Y-62611024D01*
X102211837Y-59083412D01*
X102131205Y-58782489D01*
X101983815Y-58606835D01*
X101790186Y-58495044D01*
X101581024Y-58458163D01*
X99553412Y-58458163D01*
X99252489Y-58538795D01*
X99076835Y-58686185D01*
X98965044Y-58879814D01*
X98928163Y-59088976D01*
X98928163Y-62616588D01*
X99008795Y-62917512D01*
X99156185Y-63093165D01*
X99349814Y-63204956D01*
X99558976Y-63241837D01*
X99624663Y-63241837D01*
X99624663Y-63961088D01*
X99705295Y-64262012D01*
X99852685Y-64437665D01*
X99882646Y-64454963D01*
X99803945Y-64521000D01*
X96171161Y-64521000D01*
X96189738Y-64397748D01*
X96189738Y-62729879D01*
X96137562Y-62454124D01*
X96126097Y-62434266D01*
X96124523Y-62408894D01*
X96112291Y-62375013D01*
X96107182Y-62339343D01*
X96069471Y-62256398D01*
X96038408Y-62170354D01*
X96017502Y-62142102D01*
X96002378Y-62108836D01*
X95935181Y-62030850D01*
X95918578Y-62008413D01*
X95898848Y-61988684D01*
X95837089Y-61917009D01*
X95808906Y-61898741D01*
X94942111Y-61031947D01*
X94927114Y-61008178D01*
X94912348Y-60995137D01*
X95111976Y-61030337D01*
X96028588Y-61030337D01*
X96329512Y-60949705D01*
X96505165Y-60802315D01*
X96616956Y-60608686D01*
X96653837Y-60399524D01*
X96653837Y-58974912D01*
X96573205Y-58673989D01*
X96425815Y-58498335D01*
X96351024Y-58455155D01*
X96505165Y-58325815D01*
X96616956Y-58132186D01*
X96653837Y-57923024D01*
X96653837Y-56371412D01*
X96573205Y-56070489D01*
X96425815Y-55894835D01*
X96232186Y-55783044D01*
X96023024Y-55746163D01*
X95731327Y-55746163D01*
X94431337Y-54446174D01*
X94431337Y-53894912D01*
X94350705Y-53593989D01*
X94203315Y-53418335D01*
X94009686Y-53306544D01*
X93800524Y-53269663D01*
X92883912Y-53269663D01*
X92582989Y-53350295D01*
X92407335Y-53497685D01*
X92390037Y-53527646D01*
X92298315Y-53418335D01*
X92104686Y-53306544D01*
X91895524Y-53269663D01*
X90978912Y-53269663D01*
X90677989Y-53350295D01*
X90573574Y-53437909D01*
X89920611Y-52784947D01*
X89905614Y-52761178D01*
X89830521Y-52694858D01*
X89805751Y-52670087D01*
X89784108Y-52653868D01*
X89715820Y-52593557D01*
X89683208Y-52578246D01*
X89654379Y-52556639D01*
X89569072Y-52524660D01*
X89486255Y-52485777D01*
X89451493Y-52480582D01*
X89417275Y-52467755D01*
X89314627Y-52460127D01*
X89287013Y-52456000D01*
X89259105Y-52456000D01*
X89164758Y-52448989D01*
X89131914Y-52456000D01*
X86459031Y-52456000D01*
X86431624Y-52449798D01*
X86331662Y-52456000D01*
X86296600Y-52456000D01*
X86269808Y-52459837D01*
X86178894Y-52465477D01*
X86145013Y-52477709D01*
X86109343Y-52482818D01*
X86026398Y-52520529D01*
X85940354Y-52551592D01*
X85912102Y-52572498D01*
X85878836Y-52587622D01*
X85800850Y-52654819D01*
X85778413Y-52671422D01*
X85758684Y-52691152D01*
X85687009Y-52752911D01*
X85668741Y-52781094D01*
X85169947Y-53279889D01*
X85146177Y-53294886D01*
X85079860Y-53369977D01*
X85055089Y-53394747D01*
X85038860Y-53416400D01*
X84978557Y-53484681D01*
X84963248Y-53517290D01*
X84941639Y-53546122D01*
X84909658Y-53631433D01*
X84870778Y-53714245D01*
X84865582Y-53749007D01*
X84852755Y-53783225D01*
X84845125Y-53885886D01*
X84841000Y-53913488D01*
X84841000Y-53941395D01*
X84833989Y-54035742D01*
X84841000Y-54068586D01*
X84841000Y-54087655D01*
X84787335Y-54132685D01*
X84675544Y-54326314D01*
X84638663Y-54535476D01*
X84638663Y-55960088D01*
X84719295Y-56261012D01*
X84841000Y-56406055D01*
X84841000Y-57137476D01*
X84840183Y-57271204D01*
X84858414Y-57334991D01*
X84867818Y-57400657D01*
X84893026Y-57456101D01*
X84909767Y-57514672D01*
X84945166Y-57570776D01*
X84972623Y-57631163D01*
X85012381Y-57677304D01*
X85044886Y-57728822D01*
X85083569Y-57762986D01*
X84962989Y-57795295D01*
X84787335Y-57942685D01*
X84675544Y-58136314D01*
X84638663Y-58345476D01*
X84638663Y-59770088D01*
X84719295Y-60071012D01*
X84723480Y-60076000D01*
X82337468Y-60076000D01*
X82297640Y-60020369D01*
X82025433Y-59748163D01*
X82094476Y-59760337D01*
X83011088Y-59760337D01*
X83312012Y-59679705D01*
X83487665Y-59532315D01*
X83599456Y-59338686D01*
X83636337Y-59129524D01*
X83636337Y-57704912D01*
X83555705Y-57403989D01*
X83434000Y-57258945D01*
X83434000Y-54616393D01*
X83568165Y-54503815D01*
X83679956Y-54310186D01*
X83716837Y-54101024D01*
X83716837Y-52573412D01*
X83636205Y-52272489D01*
X83488815Y-52096835D01*
X83295186Y-51985044D01*
X83086024Y-51948163D01*
X82008412Y-51948163D01*
X81975621Y-51956949D01*
X81941840Y-51918700D01*
X81722089Y-51732666D01*
X81477783Y-51580303D01*
X81214042Y-51464803D01*
X80936391Y-51388586D01*
X80650644Y-51353248D01*
X80362790Y-51359528D01*
X80078858Y-51407297D01*
X79804795Y-51495553D01*
X79546343Y-51622447D01*
X79308917Y-51785321D01*
X79097488Y-51980763D01*
X78916487Y-52204679D01*
X78769707Y-52452379D01*
X78660221Y-52718672D01*
X78590322Y-52997981D01*
X78561475Y-53284456D01*
X78574286Y-53572093D01*
X78628483Y-53854869D01*
X78722935Y-54126859D01*
X78855659Y-54382365D01*
X79023878Y-54616036D01*
X79224067Y-54822976D01*
X79452032Y-54998849D01*
X79702997Y-55139973D01*
X79971706Y-55243389D01*
X80252529Y-55306933D01*
X80539584Y-55329272D01*
X80826857Y-55309941D01*
X81108330Y-55249341D01*
X81378107Y-55148744D01*
X81630537Y-55010256D01*
X81666000Y-54983484D01*
X81666001Y-57262655D01*
X81612336Y-57307685D01*
X81595038Y-57337647D01*
X81503315Y-57228335D01*
X81309686Y-57116544D01*
X81100524Y-57079663D01*
X80183912Y-57079663D01*
X79882989Y-57160295D01*
X79707335Y-57307685D01*
X79595544Y-57501314D01*
X79558663Y-57710476D01*
X79558663Y-58941000D01*
X78058582Y-58941000D01*
X78036205Y-58857489D01*
X77888815Y-58681835D01*
X77695186Y-58570044D01*
X77486024Y-58533163D01*
X73958412Y-58533163D01*
X73657489Y-58613795D01*
X73481835Y-58761185D01*
X73370044Y-58954814D01*
X73333163Y-59163976D01*
X66801000Y-59163976D01*
X66801000Y-49021000D01*
X116079000Y-49021000D01*
X116079000Y-88139000D01*
M02*
